<?xml version="1.0" encoding="UTF-8"?>
<svg version="1.1" xmlns="http://www.w3.org/2000/svg" width="277" height="128">
<path d="M0 0 C91.41 0 182.82 0 277 0 C277 42.24 277 84.48 277 128 C185.59 128 94.18 128 0 128 C0 85.76 0 43.52 0 0 Z " fill="#DA002E" transform="translate(0,0)"/>
<path d="M0 0 C36.3 0 72.6 0 110 0 C110 42.24 110 84.48 110 128 C90.798125 128.0825 71.59625 128.165 51.8125 128.25 C45.74979736 128.28641602 39.68709473 128.32283203 33.44067383 128.36035156 C26.03649902 128.37841797 26.03649902 128.37841797 22.57011414 128.3817749 C20.14947062 128.38791665 17.72883934 128.40198381 15.30827332 128.42230225 C11.64125309 128.45154439 7.97498053 128.45562532 4.30786133 128.45410156 C3.22975347 128.468494 2.1516456 128.48288643 1.04086781 128.497715 C-6.22969346 128.45722026 -6.22969346 128.45722026 -10.20674133 126.09661865 C-12 124 -12 124 -12 122 C-13.0828125 121.814375 -13.0828125 121.814375 -14.1875 121.625 C-17.05763144 120.98719301 -19.42379382 120.43122565 -22 119 C-22.8125 116.375 -22.8125 116.375 -23 114 C-23.66 114 -24.32 114 -25 114 C-25.74518997 110.66847544 -26.12803405 107.58369101 -26.1328125 104.171875 C-26.13474609 102.84929687 -26.13474609 102.84929687 -26.13671875 101.5 C-26.13285156 100.5925 -26.12898437 99.685 -26.125 98.75 C-26.12886719 97.82703125 -26.13273438 96.9040625 -26.13671875 95.953125 C-26.13542969 95.0765625 -26.13414062 94.2 -26.1328125 93.296875 C-26.13168457 92.49604492 -26.13055664 91.69521484 -26.12939453 90.87011719 C-26 89 -26 89 -25 88 C-23.9402254 79.24387208 -23.7781486 70.37096034 -23.5 61.5625 C-22.56641791 34.56641791 -22.56641791 34.56641791 -21 33 C-20.7891018 30.89980546 -20.63122773 28.79417378 -20.5 26.6875 C-20.26911276 23.00567306 -20.05058306 19.54571783 -19 16 C-18.34 16 -17.68 16 -17 16 C-16.67 14.35 -16.34 12.7 -16 11 C-15.34 11 -14.68 11 -14 11 C-13.67 10.01 -13.34 9.02 -13 8 C-12.34 8 -11.68 8 -11 8 C-11 7.34 -11 6.68 -11 6 C-9.35 5.67 -7.7 5.34 -6 5 C-6 4.34 -6 3.68 -6 3 C-4.02 2.67 -2.04 2.34 0 2 C0 1.34 0 0.68 0 0 Z " fill="#0088C7" transform="translate(167,0)"/>
<path d="M0 0 C1.20970459 0.00523682 2.41940918 0.01047363 3.66577148 0.01586914 C4.97094727 0.0190918 6.27612305 0.02231445 7.62084961 0.02563477 C9.00952213 0.03399138 10.39819401 0.04245634 11.78686523 0.05102539 C13.17944179 0.05603873 14.57202005 0.06060193 15.96459961 0.06469727 C19.38453974 0.07653097 22.80445773 0.09446708 26.22436523 0.11352539 C26.71936523 6.54852539 26.71936523 6.54852539 27.22436523 13.11352539 C25.24436523 13.44352539 23.26436523 13.77352539 21.22436523 14.11352539 C21.46799805 15.65266602 21.46799805 15.65266602 21.71655273 17.22290039 C22.50928631 23.58157608 22.36915113 29.96608426 22.34936523 36.36352539 C22.35516602 38.26231445 22.35516602 38.26231445 22.36108398 40.19946289 C22.35979492 41.41375977 22.35850586 42.62805664 22.35717773 43.87915039 C22.3560498 44.98033203 22.35492188 46.08151367 22.35375977 47.21606445 C22.24293492 49.6977045 21.94605624 51.74993358 21.22436523 54.11352539 C20.56436523 54.11352539 19.90436523 54.11352539 19.22436523 54.11352539 C19.12124023 54.71036133 19.01811523 55.30719727 18.91186523 55.92211914 C17.50301927 60.41281564 13.30044257 62.96678041 9.32202148 65.16430664 C1.04315159 68.5171695 -10.16852629 68.18190029 -18.77563477 66.11352539 C-18.77563477 65.45352539 -18.77563477 64.79352539 -18.77563477 64.11352539 C-20.1272168 64.0168457 -20.1272168 64.0168457 -21.50610352 63.91821289 C-25.57522604 62.91673232 -26.61295161 61.5547902 -29.08813477 58.23852539 C-29.76489258 57.35422852 -30.44165039 56.46993164 -31.13891602 55.55883789 C-34.10642441 51.1252812 -33.90766944 47.08752918 -33.87329102 41.94555664 C-33.87187607 41.15074387 -33.87046112 40.35593109 -33.8690033 39.53703308 C-33.86340854 36.99999214 -33.85085704 34.46303964 -33.83813477 31.92602539 C-33.83311909 30.20532354 -33.8285563 28.48462031 -33.82446289 26.76391602 C-33.81344084 22.54708509 -33.79617983 18.33032024 -33.77563477 14.11352539 C-35.75563477 14.11352539 -37.73563477 14.11352539 -39.77563477 14.11352539 C-39.77563477 10.15352539 -39.77563477 6.19352539 -39.77563477 2.11352539 C-24.43063477 1.61852539 -24.43063477 1.61852539 -8.77563477 1.11352539 C-8.77563477 5.40352539 -8.77563477 9.69352539 -8.77563477 14.11352539 C-10.75563477 14.44352539 -12.73563477 14.77352539 -14.77563477 15.11352539 C-14.69480654 19.53094432 -14.58195559 23.94697793 -14.46313477 28.36352539 C-14.44057617 29.6177832 -14.41801758 30.87204102 -14.39477539 32.16430664 C-14.34160156 33.9722168 -14.34160156 33.9722168 -14.28735352 35.81665039 C-14.26116943 36.92685547 -14.23498535 38.03706055 -14.20800781 39.1809082 C-13.73406827 42.39545465 -13.04522732 43.82062332 -10.77563477 46.11352539 C-8.37136965 46.63391934 -8.37136965 46.63391934 -5.77563477 46.42602539 C-4.90938477 46.4015332 -4.04313477 46.37704102 -3.15063477 46.35180664 C-0.62862694 46.18671344 -0.62862694 46.18671344 2.22436523 45.11352539 C2.55436523 34.88352539 2.88436523 24.65352539 3.22436523 14.11352539 C1.24436523 14.11352539 -0.73563477 14.11352539 -2.77563477 14.11352539 C-3.77563477 13.11352539 -3.77563477 13.11352539 -3.90844727 10.42602539 C-3.90586914 9.33290039 -3.90329102 8.23977539 -3.90063477 7.11352539 C-3.90321289 6.02040039 -3.90579102 4.92727539 -3.90844727 3.80102539 C-3.72726489 0.13474672 -3.67921963 0.15048264 0 0 Z " fill="#F7FBFD" transform="translate(214.775634765625,33.886474609375)"/>
<path d="M0 0 C7.28421977 -0.02255606 14.56842059 -0.04091801 21.85266781 -0.05181217 C25.23471813 -0.05703975 28.6167434 -0.06413511 31.9987793 -0.07543945 C35.88329777 -0.08834267 39.76780597 -0.09322924 43.65234375 -0.09765625 C44.87211411 -0.10281754 46.09188446 -0.10797882 47.34861755 -0.11329651 C49.03024742 -0.11340981 49.03024742 -0.11340981 50.74584961 -0.11352539 C51.73846298 -0.115746 52.73107635 -0.11796661 53.75376892 -0.12025452 C56 0 56 0 57 1 C57.08669432 2.4887186 57.10703494 3.981445 57.09765625 5.47265625 C57.09443359 6.37177734 57.09121094 7.27089844 57.08789062 8.19726562 C57.07532227 9.61555664 57.07532227 9.61555664 57.0625 11.0625 C57.05798828 12.01189453 57.05347656 12.96128906 57.04882812 13.93945312 C57.0370011 16.29303065 57.02052025 18.64648477 57 21 C55.35 21 53.7 21 52 21 C52 21.66 52 22.32 52 23 C48.7 23 45.4 23 42 23 C41.505 20.03 41.505 20.03 41 17 C37.37 17 33.74 17 30 17 C30.33 20.3 30.66 23.6 31 27 C32.464375 27.144375 33.92875 27.28875 35.4375 27.4375 C39.875 27.875 39.875 27.875 41 29 C41.09873816 30.99799572 41.12971799 32.99957158 41.125 35 C41.12886719 36.6396875 41.12886719 36.6396875 41.1328125 38.3125 C41 41 41 41 40 42 C38.31391034 42.07205511 36.62499341 42.08386068 34.9375 42.0625 C34.01839844 42.05347656 33.09929687 42.04445312 32.15234375 42.03515625 C31.44207031 42.02355469 30.73179688 42.01195312 30 42 C30.33 44.64 30.66 47.28 31 50 C33.64 50.33 36.28 50.66 39 51 C40.70572284 55.47752245 41 57.98367082 41 63 C28.46 63 15.92 63 3 63 C1.28533964 59.57067929 1.94595944 55.78283935 2 52 C4.97 52 7.94 52 11 52 C10.9278125 51.16082031 10.855625 50.32164063 10.78125 49.45703125 C9.91992269 38.29566488 9.90325493 27.1901798 10 16 C6.7 15.67 3.4 15.34 0 15 C0 10.05 0 5.1 0 0 Z " fill="#FDF5F7" transform="translate(40,40)"/>
<path d="M0 0 C17.16 0 34.32 0 52 0 C52 0.66 52 1.32 52 2 C50.02 2.33 48.04 2.66 46 3 C46 3.66 46 4.32 46 5 C44.35 5.33 42.7 5.66 41 6 C41 6.66 41 7.32 41 8 C39.625 9.625 39.625 9.625 38 11 C37.34 11 36.68 11 36 11 C35.67 12.65 35.34 14.3 35 16 C34.34 16 33.68 16 33 16 C32.90912109 17.82337891 32.90912109 17.82337891 32.81640625 19.68359375 C32.73201668 21.26824228 32.6473679 22.85287702 32.5625 24.4375 C32.52318359 25.23994141 32.48386719 26.04238281 32.44335938 26.86914062 C32.11328125 32.88671875 32.11328125 32.88671875 31 34 C29.70035405 44.2166612 29.71725199 54.68252461 29.39257812 64.96435547 C28.64907667 87.35092333 28.64907667 87.35092333 27 89 C26.91262355 90.85369611 26.89301847 92.71067541 26.90234375 94.56640625 C26.90556641 95.69111328 26.90878906 96.81582031 26.91210938 97.97460938 C26.92048828 99.15861328 26.92886719 100.34261719 26.9375 101.5625 C26.94201172 102.75037109 26.94652344 103.93824219 26.95117188 105.16210938 C26.96300325 108.10812226 26.97948713 111.05403681 27 114 C27.66 114 28.32 114 29 114 C29.33 115.65 29.66 117.3 30 119 C33.3 119.99 36.6 120.98 40 122 C40 122.66 40 123.32 40 124 C40.99 124.33 41.98 124.66 43 125 C43 125.66 43 126.32 43 127 C43.99 127.495 43.99 127.495 45 128 C28.17 128 11.34 128 -6 128 C-2.71547 124.71547 0.08003309 122.38606681 4 120 C4.66 120 5.32 120 6 120 C6.2475 119.4225 6.495 118.845 6.75 118.25 C8 116 8 116 10.01928711 114.18969727 C12.39588685 111.56234326 12.61988724 110.20376361 12.94140625 106.71484375 C13.04855957 105.64298828 13.15571289 104.57113281 13.26611328 103.46679688 C13.3639209 102.30212891 13.46172852 101.13746094 13.5625 99.9375 C13.67835449 98.72771484 13.79420898 97.51792969 13.91357422 96.27148438 C14.29799808 92.18265932 14.65239796 88.09207436 15 84 C15.13413308 82.44025451 15.26841418 80.88052175 15.40283203 79.32080078 C16.21779477 69.85117309 16.21779477 69.85117309 16.99829102 60.37866211 C17.0579454 59.65037704 17.11759979 58.92209198 17.17906189 58.17173767 C17.34122539 56.18889624 17.50007142 54.20578429 17.65869141 52.22265625 C17.92856071 49.67453404 18.37773476 47.46387708 19 45 C19.96486468 32.58011528 20.62362777 20.85840618 14 10 C13.33984375 7.734375 13.33984375 7.734375 13 6 C10.525 5.505 10.525 5.505 8 5 C8 4.34 8 3.68 8 3 C6.865625 2.87625 5.73125 2.7525 4.5625 2.625 C3.386875 2.41875 2.21125 2.2125 1 2 C0.67 1.34 0.34 0.68 0 0 Z " fill="#020001" transform="translate(115,0)"/>
<path d="M0 0 C1.13679199 -0.00233643 2.27358398 -0.00467285 3.44482422 -0.00708008 C9.76046978 0.01836941 16.07530801 0.06315224 22.390625 0.1328125 C23.53692383 0.14006348 24.68322266 0.14731445 25.86425781 0.15478516 C28.99929183 0.18228545 32.13142314 0.24480813 35.265625 0.3203125 C36.20245117 0.32595215 37.13927734 0.3315918 38.10449219 0.33740234 C42.42213973 0.48121799 45.47471996 0.73996242 48.93359375 3.46875 C53.05972705 7.94255431 53.44219879 11.80683452 53.3125 17.65625 C52.72685918 27.12410997 52.72685918 27.12410997 51.390625 31.1328125 C50.730625 31.1328125 50.070625 31.1328125 49.390625 31.1328125 C49.060625 32.1228125 48.730625 33.1128125 48.390625 34.1328125 C46.359375 35.265625 46.359375 35.265625 43.890625 36.2578125 C40.90718012 37.33343168 40.90718012 37.33343168 38.390625 39.1328125 C37.85575018 41.64088099 37.42657044 44.16089171 36.98828125 46.6875 C36.390625 49.1328125 36.390625 49.1328125 34.390625 52.1328125 C34.65914584 54.75089069 35.15788497 56.70210968 36.41015625 59.01953125 C38.09566256 62.65243528 38.07380802 66.22311165 37.390625 70.1328125 C35.67693891 73.20343218 33.58161048 75.53731976 30.390625 77.1328125 C25.30764372 77.41677793 20.22370909 77.44654131 15.13354492 77.48291016 C13.43516326 77.49946074 11.73685099 77.52673935 10.03881836 77.56494141 C7.58671037 77.61980908 5.13623353 77.64159763 2.68359375 77.65625 C1.92821823 77.67891937 1.17284271 77.70158875 0.39457703 77.72494507 C-3.59054029 77.70903597 -5.36866205 77.32792588 -8.50268555 74.78759766 C-11.75484644 70.68932467 -13.00389815 68.45085647 -12.8671875 63.12890625 C-12.40525105 59.55239831 -10.7576722 57.09061123 -8.02441406 54.81079102 C-6.09206127 52.51937266 -6.25019965 51.06537369 -6.28125 48.09765625 C-6.28640625 47.12376953 -6.2915625 46.14988281 -6.296875 45.14648438 C-6.3175 44.13134766 -6.338125 43.11621094 -6.359375 42.0703125 C-6.36453125 41.05130859 -6.3696875 40.03230469 -6.375 38.98242188 C-6.22339541 33.89286483 -6.22339541 33.89286483 -7.609375 29.1328125 C-8.228125 28.8646875 -8.846875 28.5965625 -9.484375 28.3203125 C-12.40648953 26.68736614 -13.22056817 25.1749608 -14.609375 22.1328125 C-16.03045329 16.04247698 -15.79780088 10.68090374 -12.609375 5.1328125 C-10.49609375 3.875 -10.49609375 3.875 -8.609375 3.1328125 C-8.609375 2.4728125 -8.609375 1.8128125 -8.609375 1.1328125 C-5.47850334 0.08918861 -3.284785 0.00366489 0 0 Z M-9.609375 7.1328125 C-9.609375 12.0828125 -9.609375 17.0328125 -9.609375 22.1328125 C-6.309375 22.4628125 -3.009375 22.7928125 0.390625 23.1328125 C0.37902344 24.47472656 0.36742187 25.81664063 0.35546875 27.19921875 C0.2921972 37.89705389 0.47348184 48.47102326 1.390625 59.1328125 C-1.579375 59.1328125 -4.549375 59.1328125 -7.609375 59.1328125 C-7.63 60.5765625 -7.650625 62.0203125 -7.671875 63.5078125 C-7.68347656 64.31992188 -7.69507813 65.13203125 -7.70703125 65.96875 C-7.75403834 68.18218392 -7.75403834 68.18218392 -6.609375 70.1328125 C5.930625 70.1328125 18.470625 70.1328125 31.390625 70.1328125 C31.64077673 63.54727275 31.64077673 63.54727275 29.390625 58.1328125 C28.04315416 57.90206168 26.68684935 57.72128187 25.328125 57.5703125 C24.02875 57.4259375 22.729375 57.2815625 21.390625 57.1328125 C21.060625 54.4928125 20.730625 51.8528125 20.390625 49.1328125 C21.10089844 49.14441406 21.81117187 49.15601563 22.54296875 49.16796875 C23.46207031 49.17699219 24.38117188 49.18601563 25.328125 49.1953125 C26.24464844 49.20691406 27.16117188 49.21851563 28.10546875 49.23046875 C30.35655827 49.39230299 30.35655827 49.39230299 31.390625 48.1328125 C31.48936316 46.13481678 31.52034299 44.13324092 31.515625 42.1328125 C31.51820312 41.0396875 31.52078125 39.9465625 31.5234375 38.8203125 C31.69610255 36.21450896 31.69610255 36.21450896 30.390625 35.1328125 C27.40173141 34.67515583 24.40092852 34.42960299 21.390625 34.1328125 C20.895625 29.1828125 20.895625 29.1828125 20.390625 24.1328125 C24.020625 24.1328125 27.650625 24.1328125 31.390625 24.1328125 C31.885625 27.1028125 31.885625 27.1028125 32.390625 30.1328125 C35.690625 30.1328125 38.990625 30.1328125 42.390625 30.1328125 C42.390625 29.4728125 42.390625 28.8128125 42.390625 28.1328125 C44.040625 28.1328125 45.690625 28.1328125 47.390625 28.1328125 C47.41950646 24.82033063 47.43738299 21.50788083 47.453125 18.1953125 C47.46569336 16.77702148 47.46569336 16.77702148 47.47851562 15.33007812 C47.48173828 14.43095703 47.48496094 13.53183594 47.48828125 12.60546875 C47.49351807 11.77281494 47.49875488 10.94016113 47.50415039 10.08227539 C47.60705792 8.12764452 47.60705792 8.12764452 46.390625 7.1328125 C44.6413378 7.03916244 42.88826246 7.01536812 41.13647461 7.01928711 C39.45484474 7.01940041 39.45484474 7.01940041 37.73924255 7.01951599 C36.5194722 7.02467728 35.29970184 7.02983856 34.04296875 7.03515625 C32.1806234 7.03727867 32.1806234 7.03727867 30.28065491 7.03944397 C26.97457009 7.04410659 23.66855354 7.05309753 20.36248779 7.06414795 C16.9910135 7.07436423 13.61953217 7.07894205 10.24804688 7.08398438 C3.62888482 7.09503855 -2.99023571 7.1123159 -9.609375 7.1328125 Z " fill="#DA050D" transform="translate(49.609375,32.8671875)"/>
<path d="M0 0 C7.26 0 14.52 0 22 0 C22 0.66 22 1.32 22 2 C19.36 2.33 16.72 2.66 14 3 C14 3.66 14 4.32 14 5 C13.2575 5.721875 12.515 6.44375 11.75 7.1875 C5.62305488 13.45369388 3.82471904 19.61245019 3.875 28.25 C3.87693359 29.0534082 3.87886719 29.85681641 3.88085938 30.68457031 C3.92535615 36.94131133 4.29848999 43.12469358 4.77734375 49.36328125 C5.13733337 55.24311167 5.0816733 61.11044779 5 67 C5.66 67 6.32 67 7 67 C7.28716172 72.42590542 7.57191545 77.85193003 7.85449219 83.27807617 C7.95084426 85.12186042 8.04784057 86.96561112 8.14550781 88.80932617 C8.2862236 91.46784935 8.42457991 94.12648674 8.5625 96.78515625 C8.60624756 97.60210464 8.64999512 98.41905304 8.69506836 99.26075745 C8.93047644 103.84810672 9.042954 108.4066071 9 113 C9.99 113.33 10.98 113.66 12 114 C12 114.99 12 115.98 12 117 C12.66 117 13.32 117 14 117 C14 117.99 14 118.98 14 120 C14.99 120 15.98 120 17 120 C17 120.66 17 121.32 17 122 C18.3303125 122.37125 18.3303125 122.37125 19.6875 122.75 C23 124 23 124 28 128 C18.76 128 9.52 128 0 128 C0 85.76 0 43.52 0 0 Z " fill="#030000" transform="translate(0,0)"/>
<path d="M0 0 C9.9 0 19.8 0 30 0 C30 42.24 30 84.48 30 128 C23.07 128 16.14 128 9 128 C10.485 127.505 10.485 127.505 12 127 C12 126.34 12 125.68 12 125 C12.99 125 13.98 125 15 125 C15 124.34 15 123.68 15 123 C17.475 122.505 17.475 122.505 20 122 C20.495 120.515 20.495 120.515 21 119 C21.66 119 22.32 119 23 119 C23.268125 118.319375 23.53625 117.63875 23.8125 116.9375 C25 114 25 114 26.625 111 C28.9348145 105.57543564 28.25754052 99.77013405 28 94 C27.97389648 93.33661621 27.94779297 92.67323242 27.92089844 91.98974609 C27.63493113 85.01641682 27.23044476 78.24293046 25.53515625 71.44921875 C23.58956999 62.54496632 23.04655579 53.3287224 22.53515625 44.25 C22.47574356 43.22218918 22.47574356 43.22218918 22.41513062 42.1736145 C22.21631328 38.7086206 22.03268968 35.24387617 21.87304688 31.77685547 C21.51371091 25.17776591 21.16972411 19.8428857 18 14 C17.67 13.01 17.34 12.02 17 11 C16.34 11 15.68 11 15 11 C14.2884375 9.9171875 14.2884375 9.9171875 13.5625 8.8125 C9.79864672 4.68144152 5.11421607 3.07213927 0 1 C0 0.67 0 0.34 0 0 Z " fill="#000305" transform="translate(247,0)"/>
<path d="M0 0 C7.26 0 14.52 0 22 0 C22 0.66 22 1.32 22 2 C19.36 2.33 16.72 2.66 14 3 C14 3.66 14 4.32 14 5 C13.2575 5.721875 12.515 6.44375 11.75 7.1875 C5.62305488 13.45369388 3.82471904 19.61245019 3.875 28.25 C3.87693359 29.0534082 3.87886719 29.85681641 3.88085938 30.68457031 C3.92535615 36.94131133 4.29848999 43.12469358 4.77734375 49.36328125 C5.13733337 55.24311167 5.0816733 61.11044779 5 67 C5.66 67 6.32 67 7 67 C7.7609241 76.70178229 8.13500337 86.26475712 8 96 C7.67 96 7.34 96 7 96 C6.15976812 91.64667264 5.89229005 87.55557481 5.9375 83.125 C5.94652344 81.97257812 5.95554687 80.82015625 5.96484375 79.6328125 C5.97644531 78.76398438 5.98804688 77.89515625 6 77 C5.34 77 4.68 77 4 77 C3.92483154 75.64805542 3.92483154 75.64805542 3.84814453 74.26879883 C3.65555544 70.85962252 3.45726965 67.45086933 3.25537109 64.04223633 C3.16982535 62.57914786 3.0864199 61.11593236 3.00537109 59.65258789 C2.60977081 52.53422485 2.17014434 45.53219765 0.9375 38.5 C-0.35691386 30.72928674 -0.21906737 23.03857553 -0.125 15.1875 C-0.11493652 13.70508426 -0.1058167 12.22266181 -0.09765625 10.74023438 C-0.07766526 7.15984723 -0.03847619 3.58042327 0 0 Z " fill="#A10020" transform="translate(0,0)"/>
<path d="M0 0 C12.07386559 -0.04628837 24.14771015 -0.08185139 36.22164631 -0.10362434 C41.82772767 -0.11407291 47.43374844 -0.12825169 53.03979492 -0.15087891 C58.44734991 -0.17256901 63.85484652 -0.18456054 69.26244164 -0.18975449 C71.32816678 -0.19345714 73.39388863 -0.20068724 75.459589 -0.21146011 C78.34723505 -0.22592406 81.23463816 -0.22798008 84.12231445 -0.22705078 C85.41056374 -0.23783661 85.41056374 -0.23783661 86.72483826 -0.24884033 C92.65784352 -0.22810432 92.65784352 -0.22810432 96 2 C97.65549531 2.38499891 99.3222433 2.72793135 101 3 C101 3.66 101 4.32 101 5 C100.03230179 4.83766876 99.06460358 4.67533752 98.06758118 4.50808716 C93.67710678 3.88486654 89.34666903 3.85966657 84.91870117 3.87060547 C84.03641342 3.86885315 83.15412567 3.86710083 82.24510193 3.86529541 C79.34437053 3.86091421 76.44370072 3.86380249 73.54296875 3.8671875 C71.51426685 3.86651321 69.48556503 3.86554214 67.4568634 3.86428833 C63.2094343 3.86281626 58.96202626 3.8649495 54.71459961 3.86962891 C49.29123594 3.87531494 43.86792189 3.8720512 38.44456005 3.86605644 C34.25535209 3.86242827 30.06615573 3.86359995 25.8769474 3.86618423 C23.87842109 3.86684783 21.87989369 3.86604505 19.88136864 3.86370468 C17.07737858 3.86114221 14.27346672 3.86506944 11.46948242 3.87060547 C10.65616455 3.86858124 9.84284668 3.86655701 9.00488281 3.86447144 C3.28790298 3.88519948 -2.32196496 4.3441992 -8 5 C-8 4.34 -8 3.68 -8 3 C-5.36 2.67 -2.72 2.34 0 2 C0 1.34 0 0.68 0 0 Z " fill="#A40021" transform="translate(22,0)"/>
<path d="M0 0 C33.66 0.33 67.32 0.66 102 1 C102 1.66 102 2.32 102 3 C97.97542199 4.341526 94.09174063 4.15581425 89.89453125 4.16113281 C88.49658829 4.16858017 88.49658829 4.16858017 87.07040405 4.17617798 C83.98442857 4.19079564 80.89850443 4.19759985 77.8125 4.203125 C75.67163084 4.2088754 73.5307617 4.21463315 71.38989258 4.22039795 C66.90087646 4.23090586 62.41187825 4.23675036 57.92285156 4.24023438 C52.16229621 4.24572818 46.40197615 4.26977604 40.64149475 4.29820633 C36.22008565 4.31679781 31.79873372 4.32203638 27.37728882 4.32357025 C25.25294707 4.32660363 23.12860649 4.33465508 21.00430298 4.34775543 C18.03784051 4.36474801 15.07195969 4.36295267 12.10546875 4.35644531 C11.22329681 4.3656601 10.34112488 4.37487488 9.43222046 4.3843689 C8.22089951 4.37601517 8.22089951 4.37601517 6.98510742 4.36749268 C6.28383224 4.36895924 5.58255707 4.3704258 4.86003113 4.3719368 C2.44525688 3.88907208 1.53021877 2.88325393 0 1 C0 0.67 0 0.34 0 0 Z " fill="#006493" transform="translate(157,124)"/>
<path d="M0 0 C10.22327863 -0.13961845 20.44632685 -0.24593272 30.67036819 -0.31087303 C35.41893677 -0.34205679 40.16684844 -0.38428937 44.91503906 -0.45263672 C49.5057283 -0.51829606 54.09578962 -0.55380322 58.68691254 -0.56926346 C60.42989728 -0.58026697 62.17285142 -0.60175272 63.91556549 -0.63438034 C74.84974426 -0.8307704 82.60523495 -0.16545111 92 6 C91.67 6.66 91.34 7.32 91 8 C89.02 7.34 87.04 6.68 85 6 C85 5.34 85 4.68 85 4 C74.0210051 3.97681538 63.04201604 3.95905368 52.06300163 3.94818783 C46.96484385 3.94297241 41.86670283 3.93589907 36.76855469 3.92456055 C31.84727946 3.91368407 26.92602036 3.90771306 22.00473404 3.90512276 C20.12849804 3.9032771 18.25226291 3.899673 16.37603378 3.89426994 C13.7452988 3.88699636 11.11463016 3.88601173 8.48388672 3.88647461 C7.7106456 3.88287933 6.93740448 3.87928406 6.14073181 3.87557983 C1.98688288 3.88347276 -1.92520859 4.18676873 -6 5 C-6 4.34 -6 3.68 -6 3 C-4.02 2.67 -2.04 2.34 0 2 C0 1.34 0 0.68 0 0 Z " fill="#0078B0" transform="translate(167,0)"/>
<path d="M0 0 C1.46935753 0.24398781 1.46935753 0.24398781 2.96839905 0.49290466 C7.160391 1.08821691 11.27772242 1.13351821 15.50561523 1.11352539 C16.7360984 1.11374443 16.7360984 1.11374443 17.99143982 1.1139679 C20.68051881 1.11327584 23.36952698 1.10551679 26.05859375 1.09765625 C27.93188947 1.09578956 29.80518567 1.09436684 31.67848206 1.09336853 C36.59228886 1.08956315 41.50606578 1.07974988 46.41986084 1.06866455 C51.44071041 1.05840776 56.46156484 1.05386179 61.48242188 1.04882812 C71.32162766 1.03812574 81.16081134 1.02107322 91 1 C88.61244536 4.10531888 87.42570702 4.93849581 83.48428345 5.50793457 C82.05823792 5.53164537 80.63172218 5.5333189 79.20556641 5.51757812 C78.03408806 5.52809204 78.03408806 5.52809204 76.83894348 5.53881836 C74.25945376 5.55641036 71.68106323 5.54476964 69.1015625 5.53125 C67.30561106 5.53394513 65.50966105 5.53782772 63.7137146 5.54284668 C59.94930125 5.5487438 56.18526763 5.54017404 52.42089844 5.52148438 C47.60322542 5.49872739 42.78644535 5.51179567 37.96880531 5.53577423 C34.25921957 5.55025457 30.54984413 5.54561544 26.84025192 5.53526306 C25.06449655 5.53260024 23.2887219 5.53584988 21.51298904 5.54518127 C19.02588903 5.55538025 16.54021678 5.53979897 14.05322266 5.51757812 C12.95889168 5.52972351 12.95889168 5.52972351 11.842453 5.54211426 C6.59513703 5.45558672 3.95544549 4.21634078 0 1 C0 0.67 0 0.34 0 0 Z " fill="#A70022" transform="translate(22,123)"/>
<path d="M0 0 C3.71599191 -0.20086443 4.77208445 -0.1519437 8 2 C7.50886719 2.61230469 7.01773438 3.22460938 6.51171875 3.85546875 C4.34816553 8.35588306 4.67687422 12.39171834 4.8125 17.3125 C4.82603516 18.24384766 4.83957031 19.17519531 4.85351562 20.13476562 C4.88873118 22.42377646 4.93797901 24.71158458 5 27 C7.91652174 27.16681109 7.91652174 27.16681109 11 27 C13.2239714 25.1954684 13.2239714 25.1954684 13.24291992 22.69335938 C13.23881104 21.75298828 13.23470215 20.81261719 13.23046875 19.84375 C13.22756836 18.31041016 13.22756836 18.31041016 13.22460938 16.74609375 C13.21236328 15.67488281 13.20011719 14.60367188 13.1875 13.5 C13.18685547 12.42878906 13.18621094 11.35757813 13.18554688 10.25390625 C13.39415024 4.95883517 13.39415024 4.95883517 12 0 C13.32 0 14.64 0 16 0 C16.04938628 4.23582327 16.08571263 8.47149465 16.10986328 12.70751953 C16.11992963 14.14895547 16.1335838 15.59037095 16.15087891 17.03173828 C16.17510012 19.10193934 16.18647641 21.17187076 16.1953125 23.2421875 C16.20578613 24.4885498 16.21625977 25.73491211 16.22705078 27.01904297 C16 30 16 30 14 32 C11.7578125 32.37109375 11.7578125 32.37109375 9.125 32.4375 C8.26132813 32.47746094 7.39765625 32.51742187 6.5078125 32.55859375 C2.88927908 31.75259643 1.99524922 30.0604254 0 27 C-0.45410156 23.95385742 -0.45410156 23.95385742 -0.390625 20.60546875 C-0.37773437 19.40341797 -0.36484375 18.20136719 -0.3515625 16.96289062 C-0.31804687 15.71701172 -0.28453125 14.47113281 -0.25 13.1875 C-0.23195312 11.92228516 -0.21390625 10.65707031 -0.1953125 9.35351562 C-0.14823916 6.23490665 -0.08249094 3.11784027 0 0 Z " fill="#0F7EC7" transform="translate(200,49)"/>
<path d="M0 0 C7.26 0 14.52 0 22 0 C22 0.66 22 1.32 22 2 C19.36 2.33 16.72 2.66 14 3 C14 3.66 14 4.32 14 5 C8.58823529 9 8.58823529 9 6 9 C6 9.66 6 10.32 6 11 C5.34 11 4.68 11 4 11 C3.87882813 11.71027344 3.75765625 12.42054687 3.6328125 13.15234375 C3.46523438 14.07144531 3.29765625 14.99054687 3.125 15.9375 C2.96257812 16.85402344 2.80015625 17.77054688 2.6328125 18.71484375 C2.31957031 19.84599609 2.31957031 19.84599609 2 21 C1.34 21.33 0.68 21.66 0 22 C0 14.74 0 7.48 0 0 Z " fill="#080000" transform="translate(0,0)"/>
<path d="M0 0 C1.32 0 2.64 0 4 0 C4.33919096 3.66614909 4.67028081 7.3329879 5 11 C5.09539062 12.02996094 5.19078125 13.05992188 5.2890625 14.12109375 C6.72057397 30.17447236 6.72057397 30.17447236 4.25 36.75 C3.92515625 37.65234375 3.6003125 38.5546875 3.265625 39.484375 C1.88142692 42.23568229 0.278347 43.95140228 -2 46 C-1.8570752 45.41694092 -1.71415039 44.83388184 -1.56689453 44.2331543 C0.40157444 35.09137811 0.22506179 26.10786264 0.125 16.8125 C0.1149459 15.1764378 0.10582436 13.54036958 0.09765625 11.90429688 C0.07584492 7.93604684 0.04145053 3.96809149 0 0 Z " fill="#087BC5" transform="translate(236,49)"/>
<path d="M0 0 C2.31 0 4.62 0 7 0 C7.00410889 1.00788574 7.00821777 2.01577148 7.01245117 3.05419922 C7.03442753 6.8380665 7.08890357 10.62092095 7.15258789 14.40429688 C7.17560824 16.03342897 7.19012569 17.66270651 7.19555664 19.29199219 C7.2016208 31.80926458 7.2016208 31.80926458 11.93481445 43.25439453 C13 45 13 45 13 47 C11 47 11 47 9.54296875 45.83984375 C1.4367333 36.17392755 2.59637053 23.20337413 3.0090332 11.42407227 C3.04472412 10.23740967 3.08041504 9.05074707 3.1171875 7.828125 C3.16472168 6.7546582 3.21225586 5.68119141 3.26123047 4.57519531 C3.17502441 3.72538086 3.08881836 2.87556641 3 2 C2.01 1.34 1.02 0.68 0 0 Z " fill="#0070C1" transform="translate(174,49)"/>
<path d="M0 0 C-0.56845424 3.59231497 -1.8471346 5.13251878 -4.5 7.5625 C-6.96883952 9.83403472 -7.91440014 10.74320043 -9 14 C-9.66 14 -10.32 14 -11 14 C-11.01458252 14.68811768 -11.02916504 15.37623535 -11.04418945 16.08520508 C-11.38655537 30.62547347 -12.26160098 44.70521264 -15 59 C-15.33 59 -15.66 59 -16 59 C-16.11700961 48.98917813 -16.21281485 38.9570602 -15 29 C-14.67 28.67 -14.34 28.34 -14 28 C-13.7891018 25.89980546 -13.63122773 23.79417378 -13.5 21.6875 C-13.26911276 18.00567306 -13.05058306 14.54571783 -12 11 C-11.34 11 -10.68 11 -10 11 C-9.67 9.35 -9.34 7.7 -9 6 C-8.34 6 -7.68 6 -7 6 C-6.67 5.01 -6.34 4.02 -6 3 C-5.34 3 -4.68 3 -4 3 C-4 2.34 -4 1.68 -4 1 C-2 0 -2 0 0 0 Z " fill="#00567F" transform="translate(160,5)"/>
<path d="M0 0 C10.39614413 -0.04627317 20.7922639 -0.08184359 31.18848991 -0.10362434 C36.01550805 -0.11407626 40.84245591 -0.12826104 45.66943359 -0.15087891 C50.32485778 -0.17255722 54.98021422 -0.18455801 59.63568497 -0.18975449 C61.41475619 -0.19345928 63.19382356 -0.20069348 64.97286606 -0.21146011 C67.45839294 -0.22590854 69.94363733 -0.22798075 72.42919922 -0.22705078 C73.54050201 -0.23783661 73.54050201 -0.23783661 74.67425537 -0.24884033 C79.77189568 -0.22810432 79.77189568 -0.22810432 82 2 C80.61177032 1.99000725 80.61177032 1.99000725 79.19549561 1.97981262 C70.4284396 1.91943706 61.66145449 1.87389202 52.89423752 1.84456348 C48.38805953 1.82897798 43.88205485 1.80787149 39.37597656 1.77368164 C35.01875378 1.74083211 30.6616966 1.72309363 26.30435944 1.71536827 C24.65076342 1.7098703 22.99717538 1.69913558 21.34365082 1.68280983 C11.77564931 1.59219008 3.21467394 2.02288982 -6 5 C-6 4.34 -6 3.68 -6 3 C-4.02 2.67 -2.04 2.34 0 2 C0 1.34 0 0.68 0 0 Z " fill="#00476A" transform="translate(167,0)"/>
<path d="M0 0 C0.99 0.495 0.99 0.495 2 1 C2 1.66 2 2.32 2 3 C2.66 3 3.32 3 4 3 C8.48960637 7.86374023 9.24753437 13.69370763 9.6328125 20.0859375 C9.67437469 20.74655182 9.71593689 21.40716614 9.75875854 22.08779907 C9.84473402 23.47757538 9.92688056 24.86759338 10.00537109 26.2578125 C10.12429699 28.36255808 10.2544231 30.46636907 10.38671875 32.5703125 C10.78392907 39.05193171 11.11747949 45.50506228 11 52 C10.34 52 9.68 52 9 52 C8.93941406 50.96359375 8.87882812 49.9271875 8.81640625 48.859375 C8.73196629 47.48957127 8.64732003 46.11978025 8.5625 44.75 C8.52318359 44.06808594 8.48386719 43.38617188 8.44335938 42.68359375 C8.2143073 38.83414801 8.2143073 38.83414801 7.49780273 35.05517578 C6.95463737 32.81272062 6.80839267 30.74979666 6.71875 28.4453125 C6.68136719 27.58292969 6.64398438 26.72054687 6.60546875 25.83203125 C6.57066406 24.93871094 6.53585937 24.04539062 6.5 23.125 C6.28574476 17.67339439 6.06302315 12.36826692 5 7 C4.34 7 3.68 7 3 7 C0 2.61538462 0 2.61538462 0 0 Z " fill="#005B87" transform="translate(260,8)"/>
<path d="M0 0 C1.485 0.99 1.485 0.99 3 2 C3.6875 5.625 3.6875 5.625 4 9 C4.66 9 5.32 9 6 9 C6.2954279 36.4091442 6.2954279 36.4091442 4 41 C3.72134114 44.56948729 3.55271521 48.13881679 3.37890625 51.71484375 C3 55 3 55 1 58 C1.13923538 54.74968216 1.28754185 51.49983939 1.4375 48.25 C1.47681641 47.32960937 1.51613281 46.40921875 1.55664062 45.4609375 C1.59853516 44.57148437 1.64042969 43.68203125 1.68359375 42.765625 C1.72025146 41.94868164 1.75690918 41.13173828 1.79467773 40.29003906 C2 38 2 38 2.50708008 36.04150391 C3.59546436 31.5337925 3.22805894 26.73810822 3.25 22.125 C3.270625 21.04863281 3.29125 19.97226562 3.3125 18.86328125 C3.34130926 13.02220442 3.05651579 9.13172914 0 4 C0 2.68 0 1.36 0 0 Z " fill="#5B000D" transform="translate(131,11)"/>
<path d="M0 0 C-4.50469721 4.97512446 -10.27361402 6.77049692 -16.8515625 7.32421875 C-27.88067338 7.58751672 -27.88067338 7.58751672 -32 5 C-30.45892578 4.85304688 -30.45892578 4.85304688 -28.88671875 4.703125 C-21.22586668 3.89969465 -14.44588813 2.8774588 -7.33203125 -0.29296875 C-4.53003812 -1.14248425 -2.78779656 -0.77741396 0 0 Z " fill="#0172C2" transform="translate(231,98)"/>
<path d="M0 0 C0.66 0 1.32 0 2 0 C2.14462504 8.01865491 1.98687492 16.03189876 1 24 C0.67 24.33 0.34 24.66 0 25 C-0.08700342 26.63472882 -0.10701063 28.27314055 -0.09765625 29.91015625 C-0.09443359 30.89951172 -0.09121094 31.88886719 -0.08789062 32.90820312 C-0.07951172 33.94912109 -0.07113281 34.99003906 -0.0625 36.0625 C-0.05798828 37.10728516 -0.05347656 38.15207031 -0.04882812 39.22851562 C-0.03699913 41.8190666 -0.02051689 44.40950559 0 47 C-2 46 -2 46 -2.6171875 44.2109375 C-4.07866326 35.77016936 -2.95089387 26.44065055 -2 18 C-1.67 17.67 -1.34 17.34 -1 17 C-0.76298761 14.14122091 -0.57780818 11.30116703 -0.4375 8.4375 C-0.39431641 7.63119141 -0.35113281 6.82488281 -0.30664062 5.99414062 C-0.20024738 3.99631195 -0.09959112 1.9981793 0 0 Z " fill="#004163" transform="translate(142,64)"/>
<path d="M0 0 C1.02867187 -0.01160156 1.02867187 -0.01160156 2.078125 -0.0234375 C6.42530835 -0.0068452 9.96113993 0.65969885 14 2.25 C13.67 2.91 13.34 3.57 13 4.25 C3.76 4.25 -5.48 4.25 -15 4.25 C-14 2.25 -14 2.25 -11.4375 1.140625 C-7.5694296 0.13844312 -3.96415125 -0.04470847 0 0 Z " fill="#0073C1" transform="translate(226,28.75)"/>
<path d="M0 0 C2 2 2 2 2.125 5.125 C2.08375 6.07375 2.0425 7.0225 2 8 C2.66 8 3.32 8 4 8 C4.7609241 17.70178229 5.13500337 27.26475712 5 37 C4.67 37 4.34 37 4 37 C3.15976812 32.64667264 2.89229005 28.55557481 2.9375 24.125 C2.94652344 22.97257812 2.95554687 21.82015625 2.96484375 20.6328125 C2.97644531 19.76398438 2.98804688 18.89515625 3 18 C2.34 18 1.68 18 1 18 C0.67 12.06 0.34 6.12 0 0 Z " fill="#7D0017" transform="translate(3,59)"/>
<path d="M0 0 C0.33 0 0.66 0 1 0 C1.01417969 1.18335937 1.02835938 2.36671875 1.04296875 3.5859375 C1.25638805 11.95976705 1.44342249 18.91051375 5.94140625 26.25 C7 28 7 28 7 30 C5 30 5 30 3.51953125 28.79296875 C-0.58788167 23.94643269 -2.2975208 18.00376095 -1.80859375 11.71875 C-1.36428197 7.78260888 -0.72306697 3.89381334 0 0 Z " fill="#0276C4" transform="translate(180,66)"/>
<path d="M0 0 C2.0625 0.4375 2.0625 0.4375 4 1 C3.50886719 1.61230469 3.01773438 2.22460938 2.51171875 2.85546875 C0.34816553 7.35588306 0.67687422 11.39171834 0.8125 16.3125 C0.82603516 17.24384766 0.83957031 18.17519531 0.85351562 19.13476562 C0.88873118 21.42377646 0.93797901 23.71158458 1 26 C3.64 26.33 6.28 26.66 9 27 C8.67 27.66 8.34 28.32 8 29 C5.1875 29.25 5.1875 29.25 2 29 C-0.20075405 26.81684942 -0.94001389 25.44451353 -1.35644531 22.35864258 C-1.34242676 20.89140747 -1.34242676 20.89140747 -1.328125 19.39453125 C-1.32039062 17.79641602 -1.32039062 17.79641602 -1.3125 16.16601562 C-1.291875 15.05935547 -1.27125 13.95269531 -1.25 12.8125 C-1.24484375 11.69423828 -1.2396875 10.57597656 -1.234375 9.42382812 C-1.15403702 1.15403702 -1.15403702 1.15403702 0 0 Z " fill="#0071C1" transform="translate(204,50)"/>
<path d="M0 0 C0.66 0.33 1.32 0.66 2 1 C1.28972656 1.34933594 0.57945313 1.69867188 -0.15234375 2.05859375 C-1.07144531 2.51363281 -1.99054688 2.96867187 -2.9375 3.4375 C-3.85402344 3.88996094 -4.77054688 4.34242187 -5.71484375 4.80859375 C-7.90528904 5.80525394 -7.90528904 5.80525394 -9 7 C-9.32352982 8.53529607 -9.60872651 10.07874517 -9.875 11.625 C-10.72814148 16.12338234 -12.02891255 19.87863534 -14 24 C-14.66 23.67 -15.32 23.34 -16 23 C-14 18 -14 18 -12.9375 15.75 C-11.62438129 11.89818512 -11.33447835 8.04014639 -11 4 C-10.37351562 3.79503906 -9.74703125 3.59007813 -9.1015625 3.37890625 C-8.28429687 3.10949219 -7.46703125 2.84007813 -6.625 2.5625 C-5.81289062 2.29566406 -5.00078125 2.02882813 -4.1640625 1.75390625 C-1.98968201 1.04820271 -1.98968201 1.04820271 0 0 Z " fill="#DB0019" transform="translate(97,65)"/>
<path d="M0 0 C0.99 0.99 1.98 1.98 3 3 C-4.26 3 -11.52 3 -19 3 C-13.68211479 -0.54525681 -6.26852232 -0.50148179 0 0 Z " fill="#0074C2" transform="translate(194,31)"/>
<path d="M0 0 C0.99 0.33 1.98 0.66 3 1 C2.67 1.33 2.34 1.66 2 2 C1.74700409 5.95183868 1.81477266 9.91602259 1.8125 13.875 C1.80025391 14.99003906 1.78800781 16.10507813 1.77539062 17.25390625 C1.77345703 18.32253906 1.77152344 19.39117187 1.76953125 20.4921875 C1.76542236 21.47558105 1.76131348 22.45897461 1.75708008 23.47216797 C1.82270822 26.24600742 1.82270822 26.24600742 4 29 C7.06556598 29.73343428 7.06556598 29.73343428 10 30 C10 30.33 10 30.66 10 31 C3.375 31.125 3.375 31.125 0 30 C0 20.1 0 10.2 0 0 Z " fill="#005CBC" transform="translate(202,49)"/>
<path d="M0 0 C0 4.95 0 9.9 0 15 C-0.99 15 -1.98 15 -3 15 C-3 10.38 -3 5.76 -3 1 C-1 0 -1 0 0 0 Z " fill="#0059BB" transform="translate(210,33)"/>
<path d="M0 0 C1.32 0.33 2.64 0.66 4 1 C4 1.66 4 2.32 4 3 C10.27 3.33 16.54 3.66 23 4 C23 4.33 23 4.66 23 5 C20.06281233 5.19461488 17.12550068 5.38097593 14.1875 5.5625 C13.35412109 5.61857422 12.52074219 5.67464844 11.66210938 5.73242188 C10.85966797 5.78076172 10.05722656 5.82910156 9.23046875 5.87890625 C8.49207764 5.9260376 7.75368652 5.97316895 6.99291992 6.02172852 C5 6 5 6 2 5 C2 4.01 2 3.02 2 2 C1.34 2 0.68 2 0 2 C0 1.34 0 0.68 0 0 Z " fill="#1B85C9" transform="translate(192,97)"/>
<path d="M0 0 C0.33 0 0.66 0 1 0 C1.33910994 2.04071515 1.67102704 4.08262621 2 6.125 C2.185625 7.26195312 2.37125 8.39890625 2.5625 9.5703125 C2.96956049 12.76137602 3.07809902 15.78817791 3 19 C2.01 19 1.02 19 0 19 C0 12.73 0 6.46 0 0 Z " fill="#230004" transform="translate(0,32)"/>
<path d="M0 0 C0.66 0 1.32 0 2 0 C2.103125 1.134375 2.20625 2.26875 2.3125 3.4375 C2.89110501 8.19397351 4.35073697 12.51898346 6 17 C5.34 17 4.68 17 4 17 C3.67 16.01 3.34 15.02 3 14 C2.34 13.67 1.68 13.34 1 13 C0.5859375 10.05859375 0.5859375 10.05859375 0.375 6.4375 C0.30023438 5.23996094 0.22546875 4.04242188 0.1484375 2.80859375 C0.09945313 1.88175781 0.05046875 0.95492187 0 0 Z " fill="#91001C" transform="translate(8,100)"/>
<path d="M0 0 C0.99 0.495 0.99 0.495 2 1 C2.484375 2.92578125 2.484375 2.92578125 2.75 5.3125 C2.84796875 6.09238281 2.9459375 6.87226562 3.046875 7.67578125 C2.99392264 10.30133568 2.32990442 11.76473757 1 14 C0.67 14 0.34 14 0 14 C0 9.38 0 4.76 0 0 Z " fill="#0070C0" transform="translate(242,35)"/>
<path d="M0 0 C1.32 0 2.64 0 4 0 C3.67 7.26 3.34 14.52 3 22 C2.67 22 2.34 22 2 22 C1.97494385 21.44014404 1.9498877 20.88028809 1.92407227 20.3034668 C1.80796255 17.76458695 1.6853042 15.22606447 1.5625 12.6875 C1.52318359 11.80642578 1.48386719 10.92535156 1.44335938 10.01757812 C1.40146484 9.17001953 1.35957031 8.32246094 1.31640625 7.44921875 C1.26141968 6.27879028 1.26141968 6.27879028 1.20532227 5.0847168 C1.05874737 2.80670899 1.05874737 2.80670899 0 0 Z " fill="#0061BC" transform="translate(236,49)"/>
<path d="M0 0 C3.18871468 2.12580979 3.73505293 3.11382172 4.66015625 6.71484375 C5.36347169 11.44403377 5.14089252 16.23313634 5 21 C4.67 21 4.34 21 4 21 C3.96261719 20.27554687 3.92523438 19.55109375 3.88671875 18.8046875 C3.49936602 13.10832381 2.8328853 9.04992597 0 4 C0 2.68 0 1.36 0 0 Z " fill="#8E001B" transform="translate(131,11)"/>
<path d="M0 0 C0.33 0 0.66 0 1 0 C0.64766839 5.4611399 0.64766839 5.4611399 0 8 C-2.0625 9.5 -2.0625 9.5 -4 10 C-4.66 9.34 -5.32 8.68 -6 8 C-5.195625 7.236875 -4.39125 6.47375 -3.5625 5.6875 C-0.83200976 3.20569102 -0.83200976 3.20569102 0 0 Z " fill="#117FC7" transform="translate(234,88)"/>
<path d="M0 0 C0.66 0.33 1.32 0.66 2 1 C1.01347016 4.31832766 0.31268497 5.76548627 -2.5 7.875 C-3.325 8.24625 -4.15 8.6175 -5 9 C-5.66 8.67 -6.32 8.34 -7 8 C-6.38125 7.7525 -5.7625 7.505 -5.125 7.25 C-2.6170261 5.77472123 -2.07707051 4.65125048 -1 2 C-0.67 1.34 -0.34 0.68 0 0 Z " fill="#4D000C" transform="translate(124,114)"/>
<path d="M0 0 C0.33 0 0.66 0 1 0 C1 3.96 1 7.92 1 12 C1.99 12.33 2.98 12.66 4 13 C2.35 13.66 0.7 14.32 -1 15 C-1 14.34 -1 13.68 -1 13 C-1.99 12.67 -2.98 12.34 -4 12 C-2.68 12 -1.36 12 0 12 C0 8.04 0 4.08 0 0 Z " fill="#148ACA" transform="translate(206,36)"/>
<path d="M0 0 C2.31 0 4.62 0 7 0 C7 2.97 7 5.94 7 9 C5 7 5 7 4.875 4.375 C4.91625 3.59125 4.9575 2.8075 5 2 C3.35 1.67 1.7 1.34 0 1 C0 0.67 0 0.34 0 0 Z " fill="#0050B9" transform="translate(174,49)"/>
<path d="M0 0 C1.125 3.75 1.125 3.75 0 6 C-3.3 6 -6.6 6 -10 6 C-10.33 5.34 -10.66 4.68 -11 4 C-8.03 4.33 -5.06 4.66 -2 5 C-1.34 3.35 -0.68 1.7 0 0 Z " fill="#0879C5" transform="translate(214,75)"/>
<path d="M0 0 C2.97 0.99 5.94 1.98 9 3 C9 3.99 9 4.98 9 6 C7.02 5.34 5.04 4.68 3 4 C3 3.34 3 2.68 3 2 C2.01 1.67 1.02 1.34 0 1 C0 0.67 0 0.34 0 0 Z " fill="#00557E" transform="translate(249,2)"/>
<path d="M0 0 C1.98 0.66 3.96 1.32 6 2 C6 2.66 6 3.32 6 4 C6.99 4.33 7.98 4.66 9 5 C7 6 7 6 3.9375 5.3125 C1 4 1 4 0.125 1.875 C0.08375 1.25625 0.0425 0.6375 0 0 Z " fill="#003D5C" transform="translate(149,120)"/>
<path d="M0 0 C0.66 0.33 1.32 0.66 2 1 C0.02 3.31 -1.96 5.62 -4 8 C-4.33 7.34 -4.66 6.68 -5 6 C-4.67 5.01 -4.34 4.02 -4 3 C-3.34 3 -2.68 3 -2 3 C-2 2.34 -2 1.68 -2 1 C-1.34 0.67 -0.68 0.34 0 0 Z " fill="#770015" transform="translate(8,8)"/>
</svg>
