<svg width="760" height="520" xmlns="http://www.w3.org/2000/svg">
  <style>
    .box { fill:#e8e8e8; stroke:#333; stroke-width:1.5; }
    .arrow { stroke:#000; stroke-width:1.5; marker-end:url(#arrow); }
    text { font-family:Arial, sans-serif; font-size:14px; }
  </style>

  <defs>
    <marker id="arrow" markerWidth="10" markerHeight="10" refX="5" refY="3"
      orient="auto">
      <path d="M0,0 L0,6 L9,3 z" fill="#000" />
    </marker>
  </defs>

  <rect class="box" x="310" y="20" width="140" height="50" rx="6" />
  <text x="330" y="50">User Input</text>

  <rect class="box" x="300" y="120" width="160" height="60" rx="6" />
  <text x="305" y="155">DetermineQueryType</text>

  <rect class="box" x="40" y="240" width="160" height="60" rx="6" />
  <text x="75" y="275">SqlQueryTool</text>

  <rect class="box" x="240" y="240" width="160" height="60" rx="6" />
  <text x="255" y="275">DocumentQueryTool</text>

  <rect class="box" x="440" y="240" width="160" height="60" rx="6" />
  <text x="485" y="275">ChatLLM</text>

  <rect class="box" x="640" y="240" width="160" height="60" rx="6" />
  <text x="665" y="275">ReActAgent</text>

  <rect class="box" x="300" y="400" width="160" height="60" rx="6" />
  <text x="330" y="435">Final Answer</text>

  <line class="arrow" x1="380" y1="70" x2="380" y2="120" />
  <line class="arrow" x1="300" y1="150" x2="200" y2="240" />
  <line class="arrow" x1="380" y1="180" x2="320" y2="240" />
  <line class="arrow" x1="440" y1="180" x2="520" y2="240" />
  <line class="arrow" x1="460" y1="150" x2="720" y2="240" />

  <line class="arrow" x1="120" y1="300" x2="380" y2="400" />
  <line class="arrow" x1="320" y1="300" x2="380" y2="400" />
  <line class="arrow" x1="520" y1="300" x2="380" y2="400" />
  <line class="arrow" x1="720" y1="300" x2="460" y2="400" />
</svg>
