<?xml version="1.0" encoding="UTF-8"?>
<svg version="1.1" xmlns="http://www.w3.org/2000/svg" width="293" height="492">
<path d="M0 0 C5.02502099 2.61429664 8.29413857 5.90194696 10.08203125 11.265625 C10.62119965 17.62781216 9.68293912 21.93775111 6.08203125 27.265625 C2.89453125 30.265625 2.89453125 30.265625 0.08203125 30.265625 C0.87206114 34.24511841 1.6643551 38.22415792 2.45703125 42.203125 C2.67875 43.32009766 2.90046875 44.43707031 3.12890625 45.58789062 C3.56800558 47.78984463 4.01530261 49.99018139 4.47119141 52.1887207 C4.85439288 54.11897178 5.19881478 56.05776189 5.48583984 58.00463867 C5.84665793 60.23072936 6.20599317 62.1879497 7.08203125 64.265625 C9.67738056 66.05674765 9.67738056 66.05674765 12.95703125 66.703125 C25.22349383 70.67887006 33.11104981 79.07450409 39.08203125 90.265625 C39.30576416 90.95140625 39.52949707 91.6371875 39.76000977 92.34375 C40.98518177 94.5648092 40.98518177 94.5648092 43.91333008 95.05517578 C45.10982178 95.18907715 46.30631348 95.32297852 47.5390625 95.4609375 C48.18999374 95.53863876 48.84092499 95.61634003 49.51158142 95.69639587 C51.63762212 95.94551678 53.7655542 96.16813018 55.89453125 96.390625 C57.35792264 96.55763496 58.82113961 96.7261802 60.28417969 96.89624023 C68.45580885 97.83187494 76.63869333 98.60873623 84.83203125 99.328125 C96.34216516 100.37329171 106.77195175 101.37454418 115.08203125 110.265625 C121.3289008 119.7226914 120.39626062 129.03901224 119.08203125 139.828125 C118.98664063 140.64603516 118.89125 141.46394531 118.79296875 142.30664062 C118.56058616 144.29351175 118.32197609 146.27965294 118.08203125 148.265625 C118.96890625 148.5234375 119.85578125 148.78125 120.76953125 149.046875 C129.91294967 152.41096291 136.06121096 159.59912722 140.08203125 168.265625 C143.36208831 176.4202113 143.63824279 186.41453798 140.94921875 194.796875 C139.50529878 197.790552 137.9384889 200.51088139 136.08203125 203.265625 C135.62570312 203.95140625 135.169375 204.6371875 134.69921875 205.34375 C129.04581085 212.77394324 120.97658527 216.61755652 111.91796875 218.0390625 C111.31210937 218.11382812 110.70625 218.18859375 110.08203125 218.265625 C110.11683594 218.82507813 110.15164063 219.38453125 110.1875 219.9609375 C110.58926205 231.86074666 108.41573621 244.18351726 100.296875 253.26171875 C92.90367143 260.33156153 83.78513129 261.74683326 73.95703125 263.328125 C72.40181763 263.58190918 72.40181763 263.58190918 70.81518555 263.84082031 C55.7133582 266.21107763 40.3841667 267.79429763 25.08203125 267.265625 C25.08203125 269.905625 25.08203125 272.545625 25.08203125 275.265625 C25.9946875 275.23082031 25.9946875 275.23082031 26.92578125 275.1953125 C40.37131569 274.91849267 51.90941084 276.44961035 64.08203125 282.265625 C65.74391316 282.94413127 67.40920142 283.61457771 69.08203125 284.265625 C69.49453125 283.86730469 69.90703125 283.46898437 70.33203125 283.05859375 C77.07387064 276.87355806 83.14483929 274.61651697 92.34375 274.921875 C99.35584328 275.80213778 104.81982459 279.05135056 109.57421875 284.21484375 C114.05563558 290.31003504 115.91124422 296.8027083 115.08203125 304.265625 C113.94399655 308.70178576 112.63046169 312.44297934 110.08203125 316.265625 C109.74197385 317.75540029 109.45335577 319.2575157 109.20703125 320.765625 C108.59585592 323.63488325 108.27457588 325.03029268 106.39453125 327.328125 C103.19303153 328.62603029 100.49733845 328.52338403 97.08203125 328.265625 C96.75203125 327.935625 96.42203125 327.605625 96.08203125 327.265625 C93.56007158 326.86619324 91.05239469 326.51482652 88.51953125 326.203125 C87.80861328 326.11224609 87.09769531 326.02136719 86.36523438 325.92773438 C84.60464722 325.70322997 82.84339647 325.48394103 81.08203125 325.265625 C81.06744873 325.82096924 81.05286621 326.37631348 81.0378418 326.94848633 C79.23352798 389.60216801 79.23352798 389.60216801 57.70703125 412.828125 C46.46664663 423.265625 46.46664663 423.265625 44.08203125 423.265625 C44.10559692 424.16486694 44.10559692 424.16486694 44.12963867 425.08227539 C44.19247255 427.83079377 44.2311736 430.57916042 44.26953125 433.328125 C44.29466797 434.27107422 44.31980469 435.21402344 44.34570312 436.18554688 C44.42237562 443.52054883 43.58398513 448.37875514 38.64453125 454.078125 C35.32779922 456.90948161 33.46576654 458.265625 29.08203125 458.265625 C29.11683594 459.09964844 29.15164062 459.93367188 29.1875 460.79296875 C29.39059963 469.23611051 28.89999096 475.8929289 24.26953125 483.078125 C16.74838935 490.5992669 8.48187558 491.51595956 -1.75195312 491.58789062 C-2.77611328 491.58466797 -3.80027344 491.58144531 -4.85546875 491.578125 C-5.87576172 491.59423828 -6.89605469 491.61035156 -7.94726562 491.62695312 C-15.7941629 491.63196072 -23.05307397 490.7021891 -29.79296875 486.453125 C-34.1548663 481.96293635 -37.06331394 477.59653541 -37.015625 471.25390625 C-37.01079102 470.11791992 -37.01079102 470.11791992 -37.00585938 468.95898438 C-36.99748047 468.17330078 -36.98910156 467.38761719 -36.98046875 466.578125 C-36.97595703 465.78083984 -36.97144531 464.98355469 -36.96679688 464.16210938 C-36.95502725 462.19658243 -36.93709223 460.23109415 -36.91796875 458.265625 C-38.0059375 458.14445312 -39.09390625 458.02328125 -40.21484375 457.8984375 C-44.86294626 457.1041415 -46.67752004 455.65336683 -49.91796875 452.265625 C-53.24539751 446.26059474 -53.28592753 441.09764285 -53.10546875 434.328125 C-53.08516602 432.8730957 -53.08516602 432.8730957 -53.06445312 431.38867188 C-53.02935552 429.01373371 -52.9801915 426.63998122 -52.91796875 424.265625 C-53.53583252 423.96325928 -54.15369629 423.66089355 -54.7902832 423.34936523 C-68.44702711 416.39327961 -78.64990658 401.58806916 -83.953125 387.51953125 C-87.43332366 376.70841981 -88.41133411 365.56352674 -89.59326172 354.31542969 C-89.89225318 351.507158 -90.21337578 348.70279069 -90.546875 345.8984375 C-90.73321284 344.31251643 -90.91942014 342.72658002 -91.10546875 341.140625 C-91.23139404 340.08633301 -91.23139404 340.08633301 -91.35986328 339.01074219 C-91.84168636 334.74197701 -91.99046763 330.55978958 -91.91796875 326.265625 C-93.71003422 326.40647296 -95.50161792 326.55346201 -97.29296875 326.703125 C-98.29070312 326.78433594 -99.2884375 326.86554688 -100.31640625 326.94921875 C-102.89724488 327.11528126 -102.89724488 327.11528126 -104.91796875 328.265625 C-109.229443 328.75371642 -111.21743338 328.76818298 -114.79296875 326.203125 C-117.29596081 322.74310656 -117.40371995 320.45307951 -117.91796875 316.265625 C-119.19551429 314.2295368 -120.52496693 312.22453381 -121.91796875 310.265625 C-124.12675712 303.56846539 -123.78035793 295.54761528 -120.95703125 289.109375 C-117.30308097 282.62567375 -112.24810403 277.90991104 -105.03125 275.68359375 C-97.06342343 274.10770199 -89.84377938 274.95332782 -82.91796875 279.265625 C-82.17546875 280.02875 -81.43296875 280.791875 -80.66796875 281.578125 C-79.06070573 283.51869526 -79.06070573 283.51869526 -76.73046875 283.265625 C-74.32613438 282.41075056 -72.15178269 281.42654232 -69.85546875 280.328125 C-59.32652564 275.55638724 -47.28642479 275.77747492 -35.91796875 275.265625 C-35.91796875 272.625625 -35.91796875 269.985625 -35.91796875 267.265625 C-36.46074463 267.28012695 -37.00352051 267.29462891 -37.56274414 267.30957031 C-45.53688998 267.42359139 -53.42506785 266.76414297 -61.35546875 266.015625 C-62.06084778 265.94937927 -62.76622681 265.88313354 -63.49298096 265.81488037 C-101.4170112 262.18807461 -101.4170112 262.18807461 -111.35546875 250.390625 C-118.84936589 240.17716841 -119.10280277 230.5878929 -118.91796875 218.265625 C-120.19671875 218.059375 -121.47546875 217.853125 -122.79296875 217.640625 C-133.58991251 215.18292195 -141.44174605 208.28343178 -147.30078125 199.09765625 C-151.42543416 190.71855365 -151.47703695 179.27121934 -149.15234375 170.31640625 C-148.22497292 168.14886094 -147.19513599 166.24346038 -145.91796875 164.265625 C-145.34046875 163.234375 -144.76296875 162.203125 -144.16796875 161.140625 C-139.42259546 155.07709247 -133.70829078 150.80225106 -126.91796875 147.265625 C-126.99015625 146.50121094 -127.06234375 145.73679688 -127.13671875 144.94921875 C-129.49490902 117.73177268 -129.49490902 117.73177268 -123.91796875 110.265625 C-114.95433738 100.60082162 -102.16549624 99.9363124 -89.73046875 98.765625 C-88.5295459 98.63800781 -87.32862305 98.51039062 -86.09130859 98.37890625 C-79.9807305 97.73155512 -73.88275785 97.18287053 -67.75 96.796875 C-66.62037842 96.70728516 -65.49075684 96.61769531 -64.3269043 96.52539062 C-62.19198738 96.35651459 -60.05336567 96.2279523 -57.91333008 96.14648438 C-54.88727683 95.88178996 -52.66775082 95.56761799 -49.91796875 94.265625 C-47.84127078 91.62236231 -46.48656023 89.06392803 -45.13232422 85.9921875 C-43.97319171 83.38961576 -42.81048066 81.38896172 -40.91796875 79.265625 C-40.25796875 79.265625 -39.59796875 79.265625 -38.91796875 79.265625 C-38.42296875 77.780625 -38.42296875 77.780625 -37.91796875 76.265625 C-35.6953125 74.36328125 -35.6953125 74.36328125 -32.85546875 72.328125 C-31.47681641 71.32458984 -31.47681641 71.32458984 -30.0703125 70.30078125 C-26.91796875 68.265625 -26.91796875 68.265625 -24.88305664 67.66772461 C-22.32296129 66.84303743 -20.87107781 66.14258011 -18.91796875 64.265625 C-17.03086137 59.20699365 -16.2732709 54.01602944 -15.48046875 48.703125 C-15.23962278 47.25270428 -14.99551327 45.80282147 -14.74804688 44.35351562 C-14.29636311 41.70061902 -13.86817775 39.04804858 -13.45532227 36.38842773 C-12.91796875 33.265625 -12.91796875 33.265625 -11.91796875 30.265625 C-12.66046875 30.03875 -13.40296875 29.811875 -14.16796875 29.578125 C-18.00943438 27.74469822 -20.03285287 25.03585676 -21.91796875 21.265625 C-22.43119223 16.11656315 -22.53772721 11.66008154 -20.41796875 6.890625 C-14.70441799 0.8913967 -8.42467553 -3.22574134 0 0 Z " fill="#D1DCEC" transform="translate(149.91796875,0.734375)"/>
<path d="M0 0 C35.145 0.495 35.145 0.495 71 1 C71 3.64 71 6.28 71 9 C71.91265625 8.96519531 71.91265625 8.96519531 72.84375 8.9296875 C86.28928444 8.65286767 97.82737959 10.18398535 110 16 C111.66188191 16.67850627 113.32717017 17.34895271 115 18 C115.4125 17.60167969 115.825 17.20335937 116.25 16.79296875 C122.99183939 10.60793306 129.06280804 8.35089197 138.26171875 8.65625 C145.27381203 9.53651278 150.73779334 12.78572556 155.4921875 17.94921875 C159.97360433 24.04441004 161.82921297 30.5370833 161 38 C159.8619653 42.43616076 158.54843044 46.17735434 156 50 C155.6599426 51.48977529 155.37132452 52.9918907 155.125 54.5 C154.51382467 57.36925825 154.19254463 58.76466768 152.3125 61.0625 C149.11100028 62.36040529 146.4153072 62.25775903 143 62 C142.67 61.67 142.34 61.34 142 61 C139.47804033 60.60056824 136.97036344 60.24920152 134.4375 59.9375 C133.72658203 59.84662109 133.01566406 59.75574219 132.28320312 59.66210938 C130.52261597 59.43760497 128.76136522 59.21831603 127 59 C126.98541748 59.55534424 126.97083496 60.11068848 126.95581055 60.68286133 C125.15149673 123.33654301 125.15149673 123.33654301 103.625 146.5625 C92.38461538 157 92.38461538 157 90 157 C90.02356567 157.89924194 90.02356567 157.89924194 90.04760742 158.81665039 C90.1104413 161.56516877 90.14914235 164.31353542 90.1875 167.0625 C90.21263672 168.00544922 90.23777344 168.94839844 90.26367188 169.91992188 C90.34034437 177.25492383 89.50195388 182.11313014 84.5625 187.8125 C81.24576797 190.64385661 79.38373529 192 75 192 C75.03480469 192.83402344 75.06960937 193.66804687 75.10546875 194.52734375 C75.30856838 202.97048551 74.81795971 209.6273039 70.1875 216.8125 C62.6663581 224.3336419 54.39984433 225.25033456 44.16601562 225.32226562 C43.14185547 225.31904297 42.11769531 225.31582031 41.0625 225.3125 C40.04220703 225.32861328 39.02191406 225.34472656 37.97070312 225.36132812 C30.12380585 225.36633572 22.86489478 224.4365641 16.125 220.1875 C11.76310245 215.69731135 8.85465481 211.33091041 8.90234375 204.98828125 C8.90717773 203.85229492 8.90717773 203.85229492 8.91210938 202.69335938 C8.92467773 201.51483398 8.92467773 201.51483398 8.9375 200.3125 C8.94201172 199.51521484 8.94652344 198.71792969 8.95117188 197.89648438 C8.9629415 195.93095743 8.98087652 193.96546915 9 192 C7.91203125 191.87882813 6.8240625 191.75765625 5.703125 191.6328125 C1.05502249 190.8385165 -0.75955129 189.38774183 -4 186 C-7.32742876 179.99496974 -7.36795878 174.83201785 -7.1875 168.0625 C-7.16719727 166.6074707 -7.16719727 166.6074707 -7.14648438 165.12304688 C-7.11138677 162.74810871 -7.06222275 160.37435622 -7 158 C-7.61786377 157.69763428 -8.23572754 157.39526855 -8.87231445 157.08374023 C-22.52905836 150.12765461 -32.73193783 135.32244416 -38.03515625 121.25390625 C-41.51535491 110.44279481 -42.49336536 99.29790174 -43.67529297 88.04980469 C-43.97428443 85.241533 -44.29540703 82.43716569 -44.62890625 79.6328125 C-44.81524409 78.04689143 -45.00145139 76.46095502 -45.1875 74.875 C-45.2714502 74.17213867 -45.35540039 73.46927734 -45.44189453 72.74511719 C-45.92371761 68.47635201 -46.07249888 64.29416458 -46 60 C-47.79206547 60.14084796 -49.58364917 60.28783701 -51.375 60.4375 C-52.37273438 60.51871094 -53.37046875 60.59992188 -54.3984375 60.68359375 C-56.97927613 60.84965626 -56.97927613 60.84965626 -59 62 C-63.31147425 62.48809142 -65.29946463 62.50255798 -68.875 59.9375 C-71.37799206 56.47748156 -71.4857512 54.18745451 -72 50 C-73.27754554 47.9639118 -74.60699818 45.95890881 -76 44 C-78.20878837 37.30284039 -77.86238918 29.28199028 -75.0390625 22.84375 C-71.38511222 16.36004875 -66.33013528 11.64428604 -59.11328125 9.41796875 C-51.14545468 7.84207699 -43.92581063 8.68770282 -37 13 C-35.88625 14.1446875 -35.88625 14.1446875 -34.75 15.3125 C-33.14273698 17.25307026 -33.14273698 17.25307026 -30.8125 17 C-28.40816563 16.14512556 -26.23381394 15.16091732 -23.9375 14.0625 C-13.40855689 9.29076224 -1.36845604 9.51184992 10 9 C10 6.36 10 3.72 10 1 C6.7 1 3.4 1 0 1 C0 0.67 0 0.34 0 0 Z " fill="#D1DEEE" transform="translate(104,267)"/>
<path d="M0 0 C3.74189672 -0.00218526 7.48349676 -0.02043443 11.2253418 -0.03930664 C26.24852804 -0.07315884 41.11306478 0.53645655 56.08911133 1.72387695 C61.41079079 2.13505962 66.71401902 2.34530236 72.05020142 2.44198608 C81.76367375 2.64188415 89.26132495 3.21319503 96.64135742 10.11889648 C102.13080622 15.98539833 103.91665747 20.75613643 103.76245117 28.81030273 C103.75528076 29.5116333 103.74811035 30.21296387 103.74072266 30.93554688 C103.48871037 47.27154354 103.48871037 47.27154354 101.57495117 49.18530273 C101.29780141 51.40496356 101.08204305 53.63232981 100.89135742 55.86108398 C100.83092758 56.54148239 100.77049774 57.2218808 100.70823669 57.92289734 C100.44964432 60.83572317 100.20132989 63.74940074 99.95263672 66.66308594 C99.26050586 74.70372138 98.40292944 82.63085937 96.97900391 90.58251953 C96.41343765 94.22572306 96.36972179 97.74918833 96.32495117 101.43530273 C96.12134515 107.39289977 95.13216691 111.31149678 90.94995117 115.70483398 C89.32277247 117.25201372 89.32277247 117.25201372 88.57495117 120.18530273 C84.37044262 121.99718825 80.30362767 122.57833177 75.77026367 123.00170898 C74.4631543 123.12610352 73.15604492 123.25049805 71.80932617 123.37866211 C71.13192383 123.43948975 70.45452148 123.50031738 69.7565918 123.56298828 C67.73955877 123.7442435 65.72368098 123.93543292 63.70776367 124.12866211 C60.32194996 124.44866667 56.93460869 124.74362481 53.54519653 125.02285767 C51.71088828 125.17409483 49.87714458 125.33213689 48.04345703 125.49072266 C35.34657242 126.44699129 22.62535105 126.37258393 9.89892578 126.37060547 C5.94124625 126.37048526 1.98375704 126.39093124 -1.97387695 126.40991211 C-64.01287305 126.5447968 -64.01287305 126.5447968 -73.05004883 120.18530273 C-82.22182426 108.59990219 -82.50263428 95.18057979 -83.08129883 80.97436523 C-83.3828099 77.65089095 -84.06690247 74.74053238 -84.93041992 71.53295898 C-86.01301578 66.39463632 -86.15322188 61.10283903 -86.48754883 55.87280273 C-86.64167045 53.54314617 -86.79906672 51.21370323 -86.96020508 48.88452148 C-87.02602783 47.86189209 -87.09185059 46.8392627 -87.15966797 45.78564453 C-87.34079728 43.07426567 -87.34079728 43.07426567 -88.42504883 40.18530273 C-88.65428691 36.7309353 -88.61021018 33.27149457 -88.61254883 29.81030273 C-88.62479492 28.86413086 -88.63704102 27.91795898 -88.6496582 26.94311523 C-88.67112772 16.75225004 -88.67112772 16.75225004 -85.11254883 12.68530273 C-84.55567383 12.19030273 -83.99879883 11.69530273 -83.42504883 11.18530273 C-82.70317383 10.36030273 -81.98129883 9.53530273 -81.23754883 8.68530273 C-64.41361316 -6.26930675 -20.78329939 -0.00134983 0 0 Z " fill="#012B64" transform="translate(138.425048828125,118.814697265625)"/>
<path d="M0 0 C3.76140362 2.76109255 6.41447998 5.58027197 9.125 9.375 C9.78757812 10.29023438 10.45015625 11.20546875 11.1328125 12.1484375 C16 19.58158996 16 19.58158996 16 24 C16.66 24 17.32 24 18 24 C20.87800989 36.59129329 22.83674147 53.63451631 15.75 65.1875 C14.843253 66.46542998 13.92618655 67.73608797 13 69 C12.04109532 70.52047316 11.08278084 72.04131866 10.125 73.5625 C2.08158796 85.36489355 -9.94601488 92.60491375 -23.63671875 96.3828125 C-32.87236953 98.07762414 -41.99430797 97.52791355 -51 95 C-51 94.34 -51 93.68 -51 93 C-51.639375 92.9175 -52.27875 92.835 -52.9375 92.75 C-64.76931663 89.85241225 -72.22746878 82.83909161 -79 73 C-87.75157942 57.89453415 -90.09017276 43.41733736 -87 26 C-85.5 23.1875 -85.5 23.1875 -84 21 C-83.30420546 18.80869466 -83.30420546 18.80869466 -83 17 C-82.34 17 -81.68 17 -81 17 C-80.87625 16.236875 -80.7525 15.47375 -80.625 14.6875 C-80 12 -80 12 -78 9 C-77.34 9 -76.68 9 -76 9 C-75.74992187 8.41605469 -75.49984375 7.83210938 -75.2421875 7.23046875 C-73.83463972 4.70307949 -72.30301311 3.20696046 -70.125 1.3125 C-69.44695312 0.71050781 -68.76890625 0.10851562 -68.0703125 -0.51171875 C-65.98934166 -2.00766194 -64.50369174 -2.5789756 -62 -3 C-62 -3.66 -62 -4.32 -62 -5 C-55.5 -8 -55.5 -8 -51 -8 C-51 -8.66 -51 -9.32 -51 -10 C-32.38560681 -15.31839806 -15.57004026 -10.99400255 0 0 Z " fill="#01A4DE" transform="translate(180,311)"/>
<path d="M0 0 C5.02502099 2.61429664 8.29413857 5.90194696 10.08203125 11.265625 C10.62119965 17.62781216 9.68293912 21.93775111 6.08203125 27.265625 C2.89453125 30.265625 2.89453125 30.265625 0.08203125 30.265625 C0.87206114 34.24511841 1.6643551 38.22415792 2.45703125 42.203125 C2.67875 43.32009766 2.90046875 44.43707031 3.12890625 45.58789062 C3.56800558 47.78984463 4.01530261 49.99018139 4.47119141 52.1887207 C4.85439288 54.11897178 5.19881478 56.05776189 5.48583984 58.00463867 C5.84665793 60.23072936 6.20599317 62.1879497 7.08203125 64.265625 C9.67738056 66.05674765 9.67738056 66.05674765 12.95703125 66.703125 C25.22349383 70.67887006 33.11104981 79.07450409 39.08203125 90.265625 C39.2934375 91.00554687 39.50484375 91.74546875 39.72265625 92.5078125 C41.44344072 94.73296484 42.26522955 94.67707318 44.99609375 95.09375 C46.56460054 95.25325917 48.13519942 95.3931446 49.70703125 95.515625 C50.50882813 95.59296875 51.310625 95.6703125 52.13671875 95.75 C54.11696836 95.9385952 56.0993741 96.1042953 58.08203125 96.265625 C58.08203125 96.595625 58.08203125 96.925625 58.08203125 97.265625 C55.10280532 97.29246487 52.1238183 97.31238537 49.14453125 97.328125 C47.86932617 97.34069336 47.86932617 97.34069336 46.56835938 97.35351562 C45.75947266 97.35673828 44.95058594 97.35996094 44.1171875 97.36328125 C43.36832275 97.36851807 42.61945801 97.37375488 41.84790039 97.37915039 C40.08203125 97.265625 40.08203125 97.265625 39.08203125 96.265625 C26.16101972 94.58353753 12.89823783 95.11317001 -0.09643555 95.13525391 C-3.84362849 95.14060808 -7.59070134 95.13528528 -11.33789062 95.12890625 C-31.05986092 93.71224808 -31.05986092 93.71224808 -49.91796875 97.265625 C-52.65083985 97.47517422 -55.36864036 97.64069792 -58.10546875 97.765625 C-63.44231926 98.0155729 -68.62507581 98.49027386 -73.91796875 99.265625 C-76.59736355 99.37314486 -79.23428924 99.3127071 -81.91796875 99.265625 C-81.91796875 98.935625 -81.91796875 98.605625 -81.91796875 98.265625 C-80.5110376 98.17027466 -80.5110376 98.17027466 -79.07568359 98.07299805 C-75.56984982 97.81037497 -72.07448071 97.50139593 -68.57568359 97.16088867 C-67.06619124 97.02350065 -65.55491507 96.90436446 -64.04248047 96.80444336 C-54.9846076 96.4276066 -54.9846076 96.4276066 -47.66113281 91.78369141 C-46.15949512 88.99168539 -45.04502974 86.22329169 -43.91796875 83.265625 C-42.40771484 80.91674805 -42.40771484 80.91674805 -40.91796875 79.265625 C-40.25796875 79.265625 -39.59796875 79.265625 -38.91796875 79.265625 C-38.42296875 77.780625 -38.42296875 77.780625 -37.91796875 76.265625 C-35.6953125 74.36328125 -35.6953125 74.36328125 -32.85546875 72.328125 C-31.93636719 71.65910156 -31.01726562 70.99007812 -30.0703125 70.30078125 C-26.91796875 68.265625 -26.91796875 68.265625 -24.88305664 67.66772461 C-22.32296129 66.84303743 -20.87107781 66.14258011 -18.91796875 64.265625 C-17.03086137 59.20699365 -16.2732709 54.01602944 -15.48046875 48.703125 C-15.23962278 47.25270428 -14.99551327 45.80282147 -14.74804688 44.35351562 C-14.29636311 41.70061902 -13.86817775 39.04804858 -13.45532227 36.38842773 C-12.91796875 33.265625 -12.91796875 33.265625 -11.91796875 30.265625 C-12.66046875 30.03875 -13.40296875 29.811875 -14.16796875 29.578125 C-18.00943438 27.74469822 -20.03285287 25.03585676 -21.91796875 21.265625 C-22.43119223 16.11656315 -22.53772721 11.66008154 -20.41796875 6.890625 C-14.70441799 0.8913967 -8.42467553 -3.22574134 0 0 Z " fill="#A6B6DA" transform="translate(149.91796875,0.734375)"/>
<path d="M0 0 C1.94519531 0.32484375 3.89039062 0.6496875 5.89453125 0.984375 C13.75575417 2.10387485 21.47423588 2.30508437 29.40551758 2.26074219 C31.6957413 2.2499612 33.98518951 2.26073994 36.27539062 2.2734375 C43.56264021 2.27933771 50.57017881 2.05255898 57.71411133 0.42871094 C60 0 60 0 65 0 C65 8.25 65 16.5 65 25 C66.98 25.495 66.98 25.495 69 26 C68.01 26 67.02 26 66 26 C66.05220703 27.25103516 66.05220703 27.25103516 66.10546875 28.52734375 C66.30856838 36.97048551 65.81795971 43.6273039 61.1875 50.8125 C53.6663581 58.3336419 45.39984433 59.25033456 35.16601562 59.32226562 C34.14185547 59.31904297 33.11769531 59.31582031 32.0625 59.3125 C31.04220703 59.32861328 30.02191406 59.34472656 28.97070312 59.36132812 C21.12380585 59.36633572 13.86489478 58.4365641 7.125 54.1875 C2.76310245 49.69731135 -0.14534519 45.33091041 -0.09765625 38.98828125 C-0.09443359 38.23095703 -0.09121094 37.47363281 -0.08789062 36.69335938 C-0.07951172 35.90767578 -0.07113281 35.12199219 -0.0625 34.3125 C-0.05798828 33.51521484 -0.05347656 32.71792969 -0.04882812 31.89648438 C-0.0370585 29.93095743 -0.01912348 27.96546915 0 26 C-1.10472656 25.87753906 -2.20945312 25.75507813 -3.34765625 25.62890625 C-7.35676687 24.93856742 -8.50244508 24.09696811 -11 21 C-6.56396731 21.65235775 -4.31088218 22.84455891 0 25 C0 16.75 0 8.5 0 0 Z " fill="#104881" transform="translate(113,433)"/>
<path d="M0 0 C7.09989651 4.52299646 10.91450462 10.19553939 13.06640625 18.31640625 C14.2275909 25.41546692 11.98803496 32.43396318 8.06640625 38.31640625 C7.72634885 39.80618154 7.43773077 41.30829695 7.19140625 42.81640625 C6.58023092 45.6856645 6.25895088 47.08107393 4.37890625 49.37890625 C1.17740653 50.67681154 -1.51828655 50.57416528 -4.93359375 50.31640625 C-5.26359375 49.98640625 -5.59359375 49.65640625 -5.93359375 49.31640625 C-8.45555342 48.91697449 -10.96323031 48.56560777 -13.49609375 48.25390625 C-14.20701172 48.16302734 -14.91792969 48.07214844 -15.65039062 47.97851562 C-17.41097778 47.75401122 -19.17222853 47.53472228 -20.93359375 47.31640625 C-20.94817627 47.87175049 -20.96275879 48.42709473 -20.9777832 48.99926758 C-21.32117167 60.92321978 -22.03647567 72.76593295 -23.30859375 84.62890625 C-23.42243408 85.74177002 -23.53627441 86.85463379 -23.65356445 88.0012207 C-24.41186811 94.71668503 -25.73423161 100.92355779 -27.93359375 107.31640625 C-28.26359375 107.31640625 -28.59359375 107.31640625 -28.93359375 107.31640625 C-28.78269287 106.34058594 -28.63179199 105.36476563 -28.47631836 104.359375 C-27.87307118 100.12702942 -27.5500345 95.89189989 -27.25 91.62890625 C-27.12576033 89.94270028 -27.00140763 88.25650263 -26.87695312 86.5703125 C-26.68671409 83.95568278 -26.49784622 81.3409686 -26.3112793 78.72607422 C-24.06799338 47.45080588 -24.06799338 47.45080588 -21.93359375 45.31640625 C-21.20605931 33.56392676 -21.52132274 23.66744388 -29.2109375 14.1640625 C-36.51366726 6.33142945 -45.77884329 2.96547159 -55.93359375 0.31640625 C-55.93359375 -0.01359375 -55.93359375 -0.34359375 -55.93359375 -0.68359375 C-48.65835521 -0.4410858 -43.92269498 1.59199861 -37.6328125 5.234375 C-35.03605731 6.60716416 -35.03605731 6.60716416 -32.71875 5.61328125 C-30.81189009 4.26550985 -30.81189009 4.26550985 -28.68359375 2.37890625 C-20.21253039 -3.97439127 -9.46428875 -4.85912499 0 0 Z " fill="#637CAC" transform="translate(251.93359375,278.68359375)"/>
<path d="M0 0 C-3.70906146 2.47270764 -5.95132871 2.32618187 -10.375 2.5 C-15.09391897 2.68615065 -18.69691961 3.05570098 -23 5 C-24.093125 5.20625 -25.18625 5.4125 -26.3125 5.625 C-30.85080991 7.31725115 -33.09361072 9.77919298 -36.30078125 13.3203125 C-38 15 -38 15 -40 15 C-43.78304668 23.98473586 -41.85425808 34.35071018 -41.0625 43.8125 C-40.97548828 44.91787109 -40.88847656 46.02324219 -40.79882812 47.16210938 C-40.38380121 52.79856504 -40.38380121 52.79856504 -39.50849915 58.37321472 C-39.03004174 60.84481155 -38.75530494 63.22396433 -38.56689453 65.73242188 C-38.49657013 66.64527954 -38.42624573 67.55813721 -38.35379028 68.49865723 C-38.28086761 69.47878784 -38.20794495 70.45891846 -38.1328125 71.46875 C-37.96765903 73.5898602 -37.80228686 75.71095338 -37.63671875 77.83203125 C-37.38184132 81.13961201 -37.12895934 84.44731149 -36.88037109 87.75537109 C-35.8974454 100.76584043 -34.64324076 113.64292738 -32.64868164 126.53979492 C-31.76580241 132.33604496 -31.31497296 138.14584736 -31 144 C-35.0197978 139.9802022 -34.92394605 133.06534021 -35.125 127.60546875 C-35.125 124.7340411 -35.09015409 121.86990527 -35 119 C-36.918125 118.690625 -36.918125 118.690625 -38.875 118.375 C-49.67194376 115.91729695 -57.5237773 109.01780678 -63.3828125 99.83203125 C-67.50746541 91.45292865 -67.5590682 80.00559434 -65.234375 71.05078125 C-64.30700417 68.88323594 -63.27716724 66.97783538 -62 65 C-61.4225 63.96875 -60.845 62.9375 -60.25 61.875 C-55.50462671 55.81146747 -49.79032203 51.53662606 -43 48 C-43.0721875 47.23558594 -43.144375 46.47117188 -43.21875 45.68359375 C-45.57694027 18.46614768 -45.57694027 18.46614768 -40 11 C-34.05058684 4.58519934 -27.44934255 2.45077997 -19 1 C-18.2884375 0.86980469 -17.576875 0.73960938 -16.84375 0.60546875 C-11.2649743 -0.25192506 -5.62628053 -0.09308185 0 0 Z " fill="#667FA9" transform="translate(66,100)"/>
<path d="M0 0 C2.375 2.125 2.375 2.125 4 4 C4.99 4.66 5.98 5.32 7 6 C6.48050781 6.47308594 5.96101563 6.94617188 5.42578125 7.43359375 C-2.38839303 14.84333757 -7.56573155 22.79408791 -8.23046875 33.82421875 C-8.21628906 35.09910156 -8.20210937 36.37398438 -8.1875 37.6875 C-8.18105469 38.97011719 -8.17460938 40.25273437 -8.16796875 41.57421875 C-8.12798921 44.75603704 -8.12798921 44.75603704 -7.53442383 46.79980469 C-6.82325322 49.72765735 -6.57241225 52.63030522 -6.28125 55.62890625 C-6.15363281 56.91087891 -6.02601562 58.19285156 -5.89453125 59.51367188 C-5.69615617 61.54344762 -5.49895025 63.57333316 -5.30224609 65.60327148 C-5.11059504 67.57042925 -4.91473026 69.53717507 -4.71875 71.50390625 C-4.60466797 72.67767822 -4.49058594 73.8514502 -4.37304688 75.06079102 C-4.08979185 78.05439388 -4.08979185 78.05439388 -3 81 C-2.85284801 82.62567079 -2.75278133 84.25586857 -2.68359375 85.88671875 C-2.64169922 86.82451172 -2.59980469 87.76230469 -2.55664062 88.72851562 C-2.51732422 89.70498047 -2.47800781 90.68144531 -2.4375 91.6875 C-2.39431641 92.67556641 -2.35113281 93.66363281 -2.30664062 94.68164062 C-2.20058346 97.12095546 -2.09852286 99.56037113 -2 102 C-2.33 102 -2.66 102 -3 102 C-4.99734216 90.62506555 -6.49372048 79.23787108 -7.6875 67.75 C-7.81874268 66.50130127 -7.94998535 65.25260254 -8.08520508 63.96606445 C-8.65835768 58.28720231 -9.17734336 52.70876718 -9 47 C-10.79206547 47.14084796 -12.58364917 47.28783701 -14.375 47.4375 C-15.37273438 47.51871094 -16.37046875 47.59992188 -17.3984375 47.68359375 C-19.97927613 47.84965626 -19.97927613 47.84965626 -22 49 C-26.31147425 49.48809142 -28.29946463 49.50255798 -31.875 46.9375 C-34.37799206 43.47748156 -34.4857512 41.18745451 -35 37 C-36.27754554 34.9639118 -37.60699818 32.95890881 -39 31 C-41.20878837 24.30284039 -40.86238918 16.28199028 -38.0390625 9.84375 C-34.38511222 3.36004875 -29.33013528 -1.35571396 -22.11328125 -3.58203125 C-14.11186793 -5.16456586 -6.96782019 -4.27669966 0 0 Z " fill="#6881A7" transform="translate(67,280)"/>
<path d="M0 0 C2.83536313 1.41768156 3.24902647 3.59170751 4.4140625 6.40625 C5.97638527 13.32213214 4.84755875 20.60450082 4 27.5625 C3.90460938 28.38041016 3.80921875 29.19832031 3.7109375 30.04101562 C3.47855491 32.02788675 3.23994484 34.01402794 3 36 C4.3303125 36.38671875 4.3303125 36.38671875 5.6875 36.78125 C14.83091842 40.14533791 20.97917971 47.33350222 25 56 C28.28005706 64.1545863 28.55621154 74.14891298 25.8671875 82.53125 C24.42326753 85.524927 22.85645765 88.24525639 21 91 C20.54367187 91.68578125 20.08734375 92.3715625 19.6171875 93.078125 C13.9637796 100.50831824 5.89455402 104.35193152 -3.1640625 105.7734375 C-4.07285156 105.88558594 -4.07285156 105.88558594 -5 106 C-4.97679687 106.59425781 -4.95359375 107.18851562 -4.9296875 107.80078125 C-4.78551273 114.4225223 -5.62253274 120.53082341 -7 127 C-7.33 127 -7.66 127 -8 127 C-7.55840227 118.04622544 -6.73221294 109.15917083 -5.75 100.25 C-4.17910359 85.99007863 -2.77016113 71.71557397 -1.375 57.4375 C-1.26490601 56.31291382 -1.15481201 55.18832764 -1.04138184 54.02966309 C-0.72227431 50.76853406 -0.40389891 47.50733471 -0.0859375 44.24609375 C0.00875824 43.27608932 0.10345398 42.3060849 0.20101929 41.3066864 C0.6628079 36.5543155 1.11638437 31.80122344 1.55737305 27.046875 C1.67897041 25.73722778 1.67897041 25.73722778 1.80302429 24.40112305 C2.07228048 21.11890493 2.16881306 17.85513841 2.1875 14.5625 C2.20876953 12.83193359 2.20876953 12.83193359 2.23046875 11.06640625 C2.00354346 8.04714601 1.398579 6.60367868 0 4 C0 2.68 0 1.36 0 0 Z " fill="#637BAD" transform="translate(265,113)"/>
<path d="M0 0 C3.74189672 -0.00218526 7.48349676 -0.02043443 11.2253418 -0.03930664 C26.24852804 -0.07315884 41.11306478 0.53645655 56.08911133 1.72387695 C61.41079079 2.13505962 66.71401902 2.34530236 72.05020142 2.44198608 C81.76216854 2.64185318 89.39707369 3.16141418 96.67651367 10.22436523 C101.80699064 15.84540574 102.69607345 18.67572137 102.57495117 26.18530273 C101.77057617 25.10249023 101.77057617 25.10249023 100.94995117 23.99780273 C93.38006623 15.03346531 85.30372499 12.87068789 73.91601562 11.85400391 C72.40672093 11.73242131 70.89718411 11.61381674 69.38745117 11.49780273 C68.59881683 11.43493073 67.8101825 11.37205872 66.99765015 11.30728149 C47.68002181 9.83781145 28.3049386 9.88628725 8.94329453 9.87478256 C6.4208972 9.87282864 3.89852094 9.86771246 1.37612915 9.86221313 C-18.05070571 9.83077022 -37.29646055 10.24462999 -56.66030884 11.94288635 C-60.01322496 12.23687486 -63.36824582 12.49942033 -66.72398376 12.75891113 C-75.6402973 13.56501589 -80.19073091 16.46583713 -85.92504883 23.06030273 C-86.42004883 23.76155273 -86.91504883 24.46280273 -87.42504883 25.18530273 C-88.0529558 16.04576785 -88.0529558 16.04576785 -85.73754883 12.87280273 C-84.59286133 12.03749023 -84.59286133 12.03749023 -83.42504883 11.18530273 C-82.68254883 10.33967773 -81.94004883 9.49405273 -81.17504883 8.62280273 C-64.37291232 -6.27000008 -20.72977877 -0.00134635 0 0 Z " fill="#04073D" transform="translate(138.425048828125,118.814697265625)"/>
<path d="M0 0 C5.23398145 3.37365287 9.09273679 8.09071037 11.0625 14 C11.70195973 21.75738027 11.94077563 27.74580047 7.0625 34 C3.2749711 38.46616604 0.02775249 41.9870326 -5.9375 43 C-12.544379 43.49209857 -18.26967521 43.87070961 -23.9375 40 C-24.783125 39.443125 -25.62875 38.88625 -26.5 38.3125 C-31.88226097 33.20625241 -34.68822531 27.98756351 -35.06640625 20.515625 C-34.72240806 13.80244827 -32.27720542 8.36237398 -27.6484375 3.5078125 C-20.00045261 -3.23219245 -9.23416902 -4.60148625 0 0 Z " fill="#A7B7D9" transform="translate(281.9375,353)"/>
<path d="M0 0 C7.12341019 2.6853719 11.6152491 8.35138216 15 15 C16.80514976 20.83371568 16.4260161 26.34549401 14.10546875 31.9453125 C11.34673392 37.07285497 7.72823532 40.91561705 2.8125 44 C-3.84354358 45.7458475 -10.17760262 45.78656976 -16.8125 43.9375 C-23.22315849 40.04082523 -27.91442793 35.36084262 -30 28 C-30.95502176 21.03585258 -30.12097779 15.40222428 -26.703125 9.234375 C-19.90140362 0.31101576 -10.56935414 -1.16297101 0 0 Z " fill="#A7B7D9" transform="translate(30,351)"/>
<path d="M0 0 C5.02502099 2.61429664 8.29413857 5.90194696 10.08203125 11.265625 C10.62119965 17.62781216 9.68293912 21.93775111 6.08203125 27.265625 C2.89453125 30.265625 2.89453125 30.265625 0.08203125 30.265625 C0.08203125 31.255625 0.08203125 32.245625 0.08203125 33.265625 C-0.57796875 33.265625 -1.23796875 33.265625 -1.91796875 33.265625 C-1.91796875 32.275625 -1.91796875 31.285625 -1.91796875 30.265625 C-4.55796875 30.265625 -7.19796875 30.265625 -9.91796875 30.265625 C-10.57796875 33.565625 -11.23796875 36.865625 -11.91796875 40.265625 C-12.24796875 40.265625 -12.57796875 40.265625 -12.91796875 40.265625 C-13.04296875 33.640625 -13.04296875 33.640625 -11.91796875 30.265625 C-12.66046875 30.03875 -13.40296875 29.811875 -14.16796875 29.578125 C-18.00943438 27.74469822 -20.03285287 25.03585676 -21.91796875 21.265625 C-22.43119223 16.11656315 -22.53772721 11.66008154 -20.41796875 6.890625 C-14.70441799 0.8913967 -8.42467553 -3.22574134 0 0 Z " fill="#A3B4DA" transform="translate(149.91796875,0.734375)"/>
<path d="M0 0 C23.43 0.33 46.86 0.66 71 1 C71 3.64 71 6.28 71 9 C71.68964844 8.98839844 72.37929687 8.97679687 73.08984375 8.96484375 C79.15772652 8.90657876 84.98357396 9.21096052 91 10 C91 10.33 91 10.66 91 11 C89.99284943 10.99111755 88.98569885 10.98223511 87.94802856 10.9730835 C78.33183425 10.89105076 68.71571329 10.83158948 59.09924507 10.79275131 C54.15845992 10.7721113 49.21796305 10.74424095 44.27734375 10.69824219 C8.14431221 8.84478357 8.14431221 8.84478357 -26 18 C-28.375 17.6875 -28.375 17.6875 -30 17 C-17.04766043 10.31985636 -4.28162228 9.64301143 10 9 C10 6.36 10 3.72 10 1 C6.7 1 3.4 1 0 1 C0 0.67 0 0.34 0 0 Z " fill="#6B83AC" transform="translate(104,267)"/>
<path d="M0 0 C4.31598189 1.94176788 6.54298315 3.94687421 8.4375 8.3125 C10.16900369 19.66346863 10.16900369 19.66346863 7 24 C6.01 24.66 5.02 25.32 4 26 C3.67 26.99 3.34 27.98 3 29 C-0.35777201 29.65851451 -3.57318849 30.13665199 -7 30 C-9.9375 27.6875 -9.9375 27.6875 -12 25 C-12.99 24.34 -13.98 23.68 -15 23 C-16.75669448 17.72991657 -16.89949121 12.46916921 -16 7 C-12.38338323 1.20401936 -6.73038153 -1.89417923 0 0 Z " fill="#0086D0" transform="translate(193,177)"/>
<path d="M0 0 C4.01068373 0.98038936 6.69246185 3.42725092 9.28515625 6.55859375 C11.5851191 10.44846381 12.08460052 14.12167807 11.28515625 18.55859375 C9.96303771 21.50285004 8.42802055 24.13806253 6.28515625 26.55859375 C5.29515625 26.88859375 4.30515625 27.21859375 3.28515625 27.55859375 C3.28515625 28.21859375 3.28515625 28.87859375 3.28515625 29.55859375 C0.32721902 31.03756236 -1.41704599 30.99415195 -4.71484375 30.55859375 C-8.76354416 27.97449599 -11.91449095 25.0681313 -13.71484375 20.55859375 C-14.15581948 13.83371391 -13.63926792 8.2994403 -9.65234375 2.62109375 C-6.18454154 0.1862539 -4.16689451 -0.2295618 0 0 Z " fill="#0087D1" transform="translate(103.71484375,176.44140625)"/>
<path d="M0 0 C2.64 0 5.28 0 8 0 C8 0.99 8 1.98 8 3 C8.99 3 9.98 3 11 3 C11.05534912 3.55461914 11.11069824 4.10923828 11.16772461 4.68066406 C11.42128107 7.2040917 11.67934505 9.72703883 11.9375 12.25 C12.02451172 13.12269531 12.11152344 13.99539062 12.20117188 14.89453125 C12.28818359 15.73886719 12.37519531 16.58320312 12.46484375 17.453125 C12.58267212 18.61569824 12.58267212 18.61569824 12.70288086 19.80175781 C13.00237767 22.32232528 13.00237767 22.32232528 14 26 C14 28.97 14 31.94 14 35 C7.4 35 0.8 35 -6 35 C-6 25.99215407 -6 25.99215407 -5.4140625 22.74609375 C-5.28773438 22.03646484 -5.16140625 21.32683594 -5.03125 20.59570312 C-4.8971875 19.88349609 -4.763125 19.17128906 -4.625 18.4375 C-4.49867188 17.72142578 -4.37234375 17.00535156 -4.2421875 16.26757812 C-3.23108959 10.71159512 -1.78693353 5.3608006 0 0 Z " fill="#CED9EE" transform="translate(140,31)"/>
<path d="M0 0 C0.99 0.33 1.98 0.66 3 1 C2.01 1.33 1.02 1.66 0 2 C0.01571045 2.59949463 0.0314209 3.19898926 0.04760742 3.81665039 C0.1104413 6.56516877 0.14914235 9.31353542 0.1875 12.0625 C0.21263672 13.00544922 0.23777344 13.94839844 0.26367188 14.91992188 C0.34117382 22.33427431 -0.46938076 27.22836941 -5.625 32.875 C-6.40875 33.57625 -7.1925 34.2775 -8 35 C-8.495 35.495 -8.495 35.495 -9 36 C-11.31 36 -13.62 36 -16 36 C-16 27.75 -16 19.5 -16 11 C-17.32 10.67 -18.64 10.34 -20 10 C-19.00419922 9.74476563 -19.00419922 9.74476563 -17.98828125 9.484375 C-12.76340933 8.05039555 -9.06569688 6.71720858 -5 3 C-2.375 1.1875 -2.375 1.1875 0 0 Z " fill="#8192C1" transform="translate(194,422)"/>
<path d="M0 0 C4.5076467 0.53031138 7.41954788 2.25221116 11 5 C11 5.66 11 6.32 11 7 C12.28583984 7.29003906 12.28583984 7.29003906 13.59765625 7.5859375 C19.44653174 8.91792493 25.25718743 10.26380085 31 12 C26.58169998 13.76732001 25.3039693 12.5154198 20 11 C20 19.25 20 27.5 20 36 C15 35 15 35 13 33 C12.030625 32.773125 11.06125 32.54625 10.0625 32.3125 C7 31 7 31 5.3203125 28.1015625 C3.3925299 23.19167228 3.67393987 18.26028141 3.8125 13.0625 C3.82603516 12.09248047 3.83957031 11.12246094 3.85351562 10.12304688 C3.88861323 7.74810871 3.93777725 5.37435622 4 3 C2.68 2.34 1.36 1.68 0 1 C0 0.67 0 0.34 0 0 Z " fill="#91A2BB" transform="translate(93,422)"/>
<path d="M0 0 C3.37462715 0.54723683 5.08235 1.0549 8 3 C9.87783451 2.63989748 9.87783451 2.63989748 12 2 C14.07762639 1.91302944 16.15786293 1.88231573 18.23730469 1.88647461 C19.49830994 1.88655014 20.75931519 1.88662567 22.05853271 1.88670349 C23.42964721 1.89180972 24.80076131 1.8970257 26.171875 1.90234375 C27.57863311 1.90420972 28.98539188 1.90563278 30.39215088 1.90663147 C34.08780727 1.91044256 37.78342413 1.9202608 41.47906494 1.93133545 C45.25296494 1.94157986 49.02687135 1.94613558 52.80078125 1.95117188 C60.20053882 1.96188436 67.60026386 1.97894384 75 2 C75.495 4.97 75.495 4.97 76 8 C54.55 8 33.1 8 11 8 C11 7.01 11 6.02 11 5 C9.9275 4.9175 8.855 4.835 7.75 4.75 C3.7261549 3.94523098 2.51830747 3.12270126 0 0 Z " fill="#002B66" transform="translate(102,454)"/>
<path d="M0 0 C18.15 0 36.3 0 55 0 C53.89156706 3.32529883 52.76610443 4.2768478 49.84204102 6.09130859 C42.81732633 9.5566483 34.70882469 9.33656018 27.0625 9.3125 C26.04220703 9.32861328 25.02191406 9.34472656 23.97070312 9.36132812 C15.95912817 9.36644081 8.66523513 8.41905518 1.875 3.9375 C0 2 0 2 0 0 Z " fill="#00296F" transform="translate(118,483)"/>
<path d="M0 0 C20.79 0 41.58 0 63 0 C63 1.98 63 3.96 63 6 C42.21 6 21.42 6 0 6 C0 4.02 0 2.04 0 0 Z " fill="#003A6F" transform="translate(114,448)"/>
<path d="M0 0 C20.79 0 41.58 0 63 0 C63 1.98 63 3.96 63 6 C42.21 6 21.42 6 0 6 C0 4.02 0 2.04 0 0 Z " fill="#002F68" transform="translate(114,439)"/>
<path d="M0 0 C20.79 0 41.58 0 63 0 C63 1.32 63 2.64 63 4 C42.21 4 21.42 4 0 4 C0 2.68 0 1.36 0 0 Z " fill="#002A64" transform="translate(114,466)"/>
<path d="M0 0 C3.80470451 0.7133821 5.41196019 1.67868421 8 4.5625 C9.27176524 8.67703459 9.50686067 10.59101705 7.5 14.4375 C4.20063519 17.24196009 2.32249312 17.71155149 -2 17.5625 C-5.4375 15.5625 -5.4375 15.5625 -8 12.5625 C-8.6875 9.0625 -8.6875 9.0625 -8 5.5625 C-5.54999553 2.17572911 -4.13607554 0.77551416 0 0 Z " fill="#8496DC" transform="translate(260,328.4375)"/>
<path d="M0 0 C4.10703441 0.85563217 5.55401113 2.24378009 8 5.625 C8.79153944 10.05762088 8.50416232 11.86875652 6 15.625 C2.93307963 17.66961358 2.33106293 17.94893649 -1.125 17.6875 C-3.74404157 17.14886692 -4.89138607 16.71324882 -7 15 C-8.43348212 11.59547997 -8.51361669 9.28451893 -8 5.625 C-5.55401113 2.24378009 -4.10703441 0.85563217 0 0 Z " fill="#8697DC" transform="translate(32,328.375)"/>
<path d="M0 0 C20.46 0 40.92 0 62 0 C62 0.99 62 1.98 62 3 C41.54 3 21.08 3 0 3 C0 2.01 0 1.02 0 0 Z " fill="#002A64" transform="translate(114,449)"/>
<path d="M0 0 C2.8125 1.5625 2.8125 1.5625 5 4 C5.67496305 8.12477419 5.40126114 10.24562906 3.4375 13.9375 C1 16 1 16 -2.625 16.375 C-6 16 -6 16 -8 15 C-9.34565126 10.96304622 -9.56596169 7.22113092 -9 3 C-6.4354731 -0.13442177 -3.93628604 -0.67204884 0 0 Z " fill="#A1B2D6" transform="translate(44,313)"/>
<path d="M0 0 C0.99 0.66 1.98 1.32 3 2 C3.29296875 4.6015625 3.29296875 4.6015625 3.1875 7.625 C3.16042969 8.62789063 3.13335937 9.63078125 3.10546875 10.6640625 C3.07066406 11.43492187 3.03585937 12.20578125 3 13 C1.39620659 13.05416188 -0.20811406 13.09286638 -1.8125 13.125 C-2.70582031 13.14820313 -3.59914062 13.17140625 -4.51953125 13.1953125 C-7 13 -7 13 -10 11 C-10.39866145 7.41204691 -10.38842058 4.8910825 -8.9375 1.5625 C-5.98820117 -0.81596679 -3.66596109 -0.39278155 0 0 Z " fill="#ACBCD7" transform="translate(254,314)"/>
<path d="M0 0 C-3.70906146 2.47270764 -5.95132871 2.32618187 -10.375 2.5 C-15.09391897 2.68615065 -18.69691961 3.05570098 -23 5 C-24.093125 5.20625 -25.18625 5.4125 -26.3125 5.625 C-30.85080991 7.31725115 -33.09361072 9.77919298 -36.30078125 13.3203125 C-38 15 -38 15 -40 15 C-44.42809114 25.51671646 -41.64013493 38.86622467 -41 50 C-43.31 50.66 -45.62 51.32 -48 52 C-46.74458443 49.48916886 -45.49936512 49.12874554 -43 48 C-43.10828125 46.85337891 -43.10828125 46.85337891 -43.21875 45.68359375 C-45.57694027 18.46614768 -45.57694027 18.46614768 -40 11 C-34.05058684 4.58519934 -27.44934255 2.45077997 -19 1 C-18.2884375 0.86980469 -17.576875 0.73960938 -16.84375 0.60546875 C-11.2649743 -0.25192506 -5.62628053 -0.09308185 0 0 Z " fill="#6574E8" transform="translate(66,100)"/>
<path d="M0 0 C3.37462715 0.54723683 5.08235 1.0549 8 3 C9.87783451 2.63989748 9.87783451 2.63989748 12 2 C14.07762639 1.91302944 16.15786293 1.88231573 18.23730469 1.88647461 C19.49830994 1.88655014 20.75931519 1.88662567 22.05853271 1.88670349 C23.42964721 1.89180972 24.80076131 1.8970257 26.171875 1.90234375 C27.57863311 1.90420972 28.98539188 1.90563278 30.39215088 1.90663147 C34.08780727 1.91044256 37.78342413 1.9202608 41.47906494 1.93133545 C45.25296494 1.94157986 49.02687135 1.94613558 52.80078125 1.95117188 C60.20053882 1.96188436 67.60026386 1.97894384 75 2 C75 2.66 75 3.32 75 4 C66.2378373 4.20051041 57.47552846 4.3841923 48.71257591 4.54658794 C44.64328121 4.62252521 40.57427153 4.70418511 36.50537109 4.79907227 C32.57630767 4.89048536 28.64721316 4.96667127 24.71763992 5.03244972 C23.22088289 5.06015301 21.72421576 5.09327831 20.22770309 5.13199425 C18.12623255 5.1854209 16.02526434 5.21929594 13.92333984 5.2487793 C12.1313063 5.28541939 12.1313063 5.28541939 10.30307007 5.32279968 C6.56785046 4.95776725 4.18726275 3.95062788 1 2 C0.67 1.34 0.34 0.68 0 0 Z " fill="#003B71" transform="translate(102,454)"/>
<path d="M0 0 C1.83498047 -0.03867187 1.83498047 -0.03867187 3.70703125 -0.078125 C7.38085454 0.26822871 9.23174837 1.11059882 12.1875 3.25 C9.1875 4.25 9.1875 4.25 6.1875 3.25 C-1.8514742 2.27130662 -1.8514742 2.27130662 -9.33984375 4.70703125 C-11.32187835 6.46022759 -13.0776574 8.2545037 -14.8125 10.25 C-15.62847656 11.01376953 -15.62847656 11.01376953 -16.4609375 11.79296875 C-18.06618662 13.32216886 -18.06618662 13.32216886 -18.8125 16.25 C-19.4725 16.25 -20.1325 16.25 -20.8125 16.25 C-20.52931868 18.8136947 -20.23627507 21.37561526 -19.9375 23.9375 C-19.85886719 24.65873047 -19.78023437 25.37996094 -19.69921875 26.12304688 C-19.2228949 30.13515932 -18.54949858 33.54975512 -16.8125 37.25 C-20.63079295 33.81353634 -22.43705762 30.82276828 -23.18359375 25.70703125 C-23.36252748 18.58125842 -22.19628685 13.0012066 -17.8125 7.25 C-12.09940595 2.40372022 -7.46970326 0.09386015 0 0 Z " fill="#5368E0" transform="translate(22.8125,350.75)"/>
<path d="M0 0 C4.94790177 -0.0493651 9.89566083 -0.08570269 14.84375 -0.10986328 C16.52769466 -0.11993317 18.21162179 -0.13358988 19.89550781 -0.15087891 C22.31319501 -0.17508426 24.73065143 -0.18647296 27.1484375 -0.1953125 C27.9036972 -0.20563507 28.65895691 -0.21595764 29.43710327 -0.22659302 C31.2929398 -0.22699318 33.1481928 -0.12222716 35 0 C35.66 0.66 36.32 1.32 37 2 C33.36895899 3.65394472 30.52426247 4.25595076 26.54296875 4.265625 C24.99706055 4.26949219 24.99706055 4.26949219 23.41992188 4.2734375 C22.35322266 4.26570313 21.28652344 4.25796875 20.1875 4.25 C19.13240234 4.25773437 18.07730469 4.26546875 16.99023438 4.2734375 C10.9742409 4.25844437 5.76044669 3.75106461 0 2 C0 1.34 0 0.68 0 0 Z " fill="#0F419D" transform="translate(125,488)"/>
<path d="M0 0 C0.33 0 0.66 0 1 0 C1.34547554 12.87826513 1.09322783 25.55984805 -0.3125 38.375 C-0.43020752 39.48399658 -0.54791504 40.59299316 -0.66918945 41.7355957 C-1.460149 48.42105096 -2.81911748 54.62950391 -5 61 C-5.33 61 -5.66 61 -6 61 C-5.84909912 60.02417969 -5.69819824 59.04835938 -5.54272461 58.04296875 C-4.93947743 53.81062317 -4.61644075 49.57549364 -4.31640625 45.3125 C-4.19216658 43.62629403 -4.06781388 41.94009638 -3.94335938 40.25390625 C-3.75312034 37.63927653 -3.56425247 35.02456235 -3.37768555 32.40966797 C-2.59816859 21.54185933 -1.59977695 10.78088361 0 0 Z " fill="#7684EA" transform="translate(229,325)"/>
<path d="M0 0 C1.10093994 0.21221191 1.10093994 0.21221191 2.22412109 0.42871094 C10.98544976 1.96238145 19.45502766 2.3100902 28.33007812 2.26074219 C30.62917234 2.24998047 32.92749116 2.26072464 35.2265625 2.2734375 C42.56275121 2.27935967 49.6185008 2.04219627 56.81396484 0.42871094 C59 0 59 0 63 0 C63 1.32 63 2.64 63 4 C42.21 4 21.42 4 0 4 C0 2.68 0 1.36 0 0 Z " fill="#05497D" transform="translate(114,433)"/>
<path d="M0 0 C2.8203125 -0.29296875 2.8203125 -0.29296875 6.125 -0.1875 C7.76855469 -0.14689453 7.76855469 -0.14689453 9.4453125 -0.10546875 C10.28835937 -0.07066406 11.13140625 -0.03585937 12 0 C13.00910674 3.51617397 13.36568093 6.99274361 13.71875 10.62890625 C13.84636719 11.91087891 13.97398438 13.19285156 14.10546875 14.51367188 C14.30384383 16.54344762 14.50104975 18.57333316 14.69775391 20.60327148 C14.88940496 22.57042925 15.08526974 24.53717507 15.28125 26.50390625 C15.45237305 28.26456421 15.45237305 28.26456421 15.62695312 30.06079102 C15.91020815 33.05439388 15.91020815 33.05439388 17 36 C17.14715199 37.62567079 17.24721867 39.25586857 17.31640625 40.88671875 C17.35830078 41.82451172 17.40019531 42.76230469 17.44335938 43.72851562 C17.48267578 44.70498047 17.52199219 45.68144531 17.5625 46.6875 C17.60568359 47.67556641 17.64886719 48.66363281 17.69335938 49.68164062 C17.79941654 52.12095546 17.90147714 54.56037113 18 57 C17.67 57 17.34 57 17 57 C15.00265784 45.62506555 13.50627952 34.23787108 12.3125 22.75 C12.18125732 21.50130127 12.05001465 20.25260254 11.91479492 18.96606445 C11.34164232 13.28720231 10.82265664 7.70876718 11 2 C4.565 2.495 4.565 2.495 -2 3 C-1.34 2.01 -0.68 1.02 0 0 Z " fill="#3648E3" transform="translate(47,325)"/>
<path d="M0 0 C4.31392226 0.4793247 6.16569547 1.7457985 9 5 C8.34 5 7.68 5 7 5 C7.13942681 8.56278089 7.28767078 12.1251426 7.4375 15.6875 C7.47681641 16.69490234 7.51613281 17.70230469 7.55664062 18.74023438 C7.59853516 19.71669922 7.64042969 20.69316406 7.68359375 21.69921875 C7.72025146 22.59471436 7.75690918 23.49020996 7.79467773 24.4128418 C8.00061751 27.00778088 8.43767822 29.46054684 9 32 C5.63253321 29.09173323 4.17656829 25.94054248 3.77294922 21.50463867 C3.78342285 20.6510376 3.79389648 19.79743652 3.8046875 18.91796875 C3.81113281 17.98662109 3.81757812 17.05527344 3.82421875 16.09570312 C3.84097656 15.13599609 3.85773438 14.17628906 3.875 13.1875 C3.88402344 12.20845703 3.89304687 11.22941406 3.90234375 10.22070312 C3.92582818 7.81354939 3.9586716 5.40690257 4 3 C2.68 2.34 1.36 1.68 0 1 C0 0.67 0 0.34 0 0 Z " fill="#4454D4" transform="translate(93,422)"/>
<path d="M0 0 C3.63 0 7.26 0 11 0 C11 3.3 11 6.6 11 10 C10.28457031 10.11069824 9.56914063 10.22139648 8.83203125 10.33544922 C5.55408611 10.84484529 2.27705006 11.35987842 -1 11.875 C-2.68802734 12.13603516 -2.68802734 12.13603516 -4.41015625 12.40234375 C-14.63889309 13.74035512 -14.63889309 13.74035512 -24.25 17.1875 C-26.53473108 18.248268 -27.64136434 17.6871232 -30 17 C-17.04766043 10.31985636 -4.28162228 9.64301143 10 9 C10 6.36 10 3.72 10 1 C6.7 1 3.4 1 0 1 C0 0.67 0 0.34 0 0 Z " fill="#4351E7" transform="translate(104,267)"/>
<path d="M0 0 C0.495 0.99 0.495 0.99 1 2 C-6.48232908 11.75717638 -14.9858006 14.77773567 -26.99609375 16.40625 C-29.33020281 16.6446271 -31.65873006 16.84978578 -34 17 C-30.74472791 13.23003786 -27.09105521 13.24877632 -22.375 12.6875 C-13.36857598 11.40546585 -7.5877606 9.02529238 -1.4375 2.125 C-0.963125 1.42375 -0.48875 0.7225 0 0 Z " fill="#7E8DEA" transform="translate(253,247)"/>
<path d="M0 0 C2.5 1.1875 2.5 1.1875 5 3 C5.4375 5.5625 5.4375 5.5625 5 8 C3 10 3 10 0.5 10.25 C-2 10 -2 10 -4 8 C-4.375 5.5625 -4.375 5.5625 -4 3 C-2 1.1875 -2 1.1875 0 0 Z " fill="#6D76EE" transform="translate(124,21)"/>
<path d="M0 0 C0.495 0.33 0.99 0.66 1.5 1 C-0.4375 1.5625 -0.4375 1.5625 -2.5 2 C-2.83 1.67 -3.16 1.34 -3.5 1 C-9.57942307 1 -12.4015471 3.1487763 -16.80078125 7.2109375 C-19.73873978 10.30423637 -20.76287025 12.52300787 -21.125 16.6875 C-21.19976562 17.49574219 -21.27453125 18.30398437 -21.3515625 19.13671875 C-21.40054688 19.75160156 -21.44953125 20.36648437 -21.5 21 C-21.83 21 -22.16 21 -22.5 21 C-23.11586314 11.38569207 -23.11586314 11.38569207 -21 6.625 C-15.04577399 0.37306269 -8.66375231 -3.46550092 0 0 Z " fill="#4F64E0" transform="translate(150.5,1)"/>
<path d="M0 0 C6.63971912 -0.32127673 12.89257326 0.27836756 19.4375 1.3125 C20.23075684 1.43020752 21.02401367 1.54791504 21.84130859 1.66918945 C25.90705327 2.34971622 28.28440835 2.88901062 31 6 C26.58168667 5.38629574 22.1657164 4.75709747 17.75 4.125 C16.49574219 3.95097656 15.24148437 3.77695313 13.94921875 3.59765625 C12.74394531 3.42363281 11.53867188 3.24960938 10.296875 3.0703125 C9.18666992 2.91320801 8.07646484 2.75610352 6.93261719 2.59423828 C4.26716637 2.05413611 2.3357185 1.35670458 0 0 Z " fill="#6E7CEA" transform="translate(226,100)"/>
<path d="M0 0 C1.47968324 0.14049518 2.95874516 0.28754826 4.4375 0.4375 C5.67306641 0.55931641 5.67306641 0.55931641 6.93359375 0.68359375 C9 1 9 1 10 2 C10.67154465 5.20174614 11.08786582 8.45135783 11.5625 11.6875 C11.77036133 13.03618164 11.77036133 13.03618164 11.98242188 14.41210938 C12.66315994 18.98277924 13.17683932 23.36373443 13 28 C8.9802022 23.9802022 9.07605395 17.06534021 8.875 11.60546875 C8.875 8.7340411 8.90984591 5.86990527 9 3 C4.545 2.01 4.545 2.01 0 1 C0 0.67 0 0.34 0 0 Z " fill="#3E52E2" transform="translate(22,216)"/>
<path d="M0 0 C1.16711563 3.64610542 1.03231032 7.00772078 0.9375 10.8125 C0.88874691 16.00741264 1.15486567 20.15652239 3 25 C-0.91108479 21.74076267 -2.11381228 18.99487622 -3 14 C-2.929069 8.8850871 -2.52955996 4.50966632 0 0 Z " fill="#4A5DE1" transform="translate(250,362)"/>
<path d="M0 0 C4.07300505 2.13536187 6.42200864 3.68469574 8.2265625 8.015625 C7.71867187 7.67789062 7.21078125 7.34015625 6.6875 6.9921875 C-0.23488964 2.50689384 -6.3875486 -0.07054728 -14.7734375 1.015625 C-15.7634375 1.675625 -16.7534375 2.335625 -17.7734375 3.015625 C-19.9609375 2.640625 -19.9609375 2.640625 -21.7734375 2.015625 C-15.44438938 -2.32429371 -7.14415729 -2.53567273 0 0 Z " fill="#3A50E2" transform="translate(279.7734375,351.984375)"/>
<path d="M0 0 C0.66 0.33 1.32 0.66 2 1 C0.37860535 2.81584234 -1.24686736 4.6277162 -2.875 6.4375 C-3.33519531 6.95376953 -3.79539062 7.47003906 -4.26953125 8.00195312 C-7.7734375 11.88671875 -7.7734375 11.88671875 -10 13 C-10.72159424 14.64363134 -11.39351421 16.31050386 -12 18 C-12.66 18 -13.32 18 -14 18 C-12.74809374 13.51400257 -11.20614467 10.40652872 -8 7 C-7.34 7 -6.68 7 -6 7 C-5.67 6.01 -5.34 5.02 -5 4 C-3.37667033 2.61423077 -1.71275535 1.27358732 0 0 Z " fill="#596BE0" transform="translate(117,73)"/>
<path d="M0 0 C-0.56847656 0.36351562 -1.13695312 0.72703125 -1.72265625 1.1015625 C-6.82782691 4.42546327 -11.45773055 7.94095071 -16 12 C-16 8.41826265 -14.87780144 7.13102437 -12.5625 4.5 C-8.85820209 0.94387401 -5.17931378 -1.73399345 0 0 Z " fill="#2F4BC6" transform="translate(47,278)"/>
<path d="M0 0 C1.01351195 3.32558608 1.07181724 6.28481837 1 9.75 C0.95227877 14.6175652 1.26050886 19.19330762 2 24 C-0.55971333 21.77416232 -1.38414839 20.31165488 -2 17 C-2.38851391 11.01869281 -2.41683292 5.58892613 0 0 Z " fill="#223FCC" transform="translate(29,290)"/>
<path d="M0 0 C0.66 0.66 1.32 1.32 2 2 C4.8907496 2.4673667 7.71660569 2.83699342 10.625 3.125 C11.82769531 3.25455078 11.82769531 3.25455078 13.0546875 3.38671875 C15.03563635 3.59896327 17.01772718 3.80049931 19 4 C19 4.33 19 4.66 19 5 C13.06 5 7.12 5 1 5 C0.67 3.35 0.34 1.7 0 0 Z " fill="#4759E8" transform="translate(189,93)"/>
<path d="M0 0 C1.21992215 2.9122997 1.01199085 3.96877469 -0.14453125 6.98046875 C-0.69496094 8.03878906 -1.24539062 9.09710938 -1.8125 10.1875 C-2.62654297 11.78658203 -2.62654297 11.78658203 -3.45703125 13.41796875 C-5 16 -5 16 -7 17 C-6.24470474 13.13747743 -4.60515228 9.79819633 -2.9375 6.25 C-2.38964844 5.07953125 -1.84179688 3.9090625 -1.27734375 2.703125 C-0.64505859 1.36507813 -0.64505859 1.36507813 0 0 Z " fill="#4D5EE8" transform="translate(222,386)"/>
<path d="M0 0 C0.33 0.66 0.66 1.32 1 2 C-2.81579564 6.97590933 -6.26624788 10.35365287 -12 13 C-12.66 12.67 -13.32 12.34 -14 12 C-13.32453125 11.55269531 -12.6490625 11.10539062 -11.953125 10.64453125 C-5.23560348 6.12119488 -5.23560348 6.12119488 0 0 Z " fill="#404DE8" transform="translate(253,247)"/>
<path d="M0 0 C0.66 0.33 1.32 0.66 2 1 C0.90344712 2.31886772 -0.20253423 3.62990057 -1.3125 4.9375 C-1.92738281 5.66839844 -2.54226562 6.39929688 -3.17578125 7.15234375 C-5 9 -5 9 -8 10 C-8.33 10.99 -8.66 11.98 -9 13 C-8.4888844 9.21774458 -7.88940186 7.47663017 -5 5 C-4.113125 4.113125 -3.22625 3.22625 -2.3125 2.3125 C-1.549375 1.549375 -0.78625 0.78625 0 0 Z " fill="#323D65" transform="translate(60,125)"/>
<path d="M0 0 C0.66 0.33 1.32 0.66 2 1 C0.5484451 2.67257355 -0.91144409 4.33791758 -2.375 6 C-3.18710938 6.928125 -3.99921875 7.85625 -4.8359375 8.8125 C-5.55007812 9.534375 -6.26421875 10.25625 -7 11 C-7.66 11 -8.32 11 -9 11 C-7.59155282 7.78475695 -5.89655214 5.67816132 -3.375 3.25 C-2.74335937 2.63640625 -2.11171875 2.0228125 -1.4609375 1.390625 C-0.73777344 0.70226562 -0.73777344 0.70226562 0 0 Z " fill="#BBC7E3" transform="translate(74,285)"/>
<path d="M0 0 C1.65 0 3.3 0 5 0 C5 1.65 5 3.3 5 5 C3.35 5 1.7 5 0 5 C0 3.35 0 1.7 0 0 Z " fill="#00ABE1" transform="translate(159,340)"/>
<path d="M0 0 C0 0.99 0 1.98 0 3 C-4.29 3 -8.58 3 -13 3 C-13 2.67 -13 2.34 -13 2 C-11.58461283 1.66127487 -10.16762037 1.32925376 -8.75 1 C-7.56664062 0.7215625 -7.56664062 0.7215625 -6.359375 0.4375 C-4 0 -4 0 0 0 Z " fill="#04366A" transform="translate(177,433)"/>
<path d="M0 0 C11.52164009 -0.3690205 11.52164009 -0.3690205 17 2 C17 2.33 17 2.66 17 3 C11.08739655 3.25706972 5.76081841 2.2982126 0 1 C0 0.67 0 0.34 0 0 Z " fill="#1B3BCE" transform="translate(234,276)"/>
<path d="M0 0 C11.52164009 -0.3690205 11.52164009 -0.3690205 17 2 C17 2.33 17 2.66 17 3 C14.66705225 3.04241723 12.33297433 3.04092937 10 3 C9.67 2.67 9.34 2.34 9 2 C7.48530552 1.76807135 5.96245438 1.58784762 4.4375 1.4375 C3.61121094 1.35371094 2.78492188 1.26992188 1.93359375 1.18359375 C1.29550781 1.12300781 0.65742187 1.06242187 0 1 C0 0.67 0 0.34 0 0 Z " fill="#193ACE" transform="translate(47,276)"/>
<path d="M0 0 C4.12751449 0.60698743 7.3321148 2.03810791 11 4 C9.375 4.6875 9.375 4.6875 7 5 C1.33333333 2.66666667 1.33333333 2.66666667 0 0 Z " fill="#3043D7" transform="translate(102,454)"/>
<path d="M0 0 C4.31392226 0.4793247 6.16569547 1.7457985 9 5 C2.25 3.375 2.25 3.375 0 0 Z " fill="#7D8BE4" transform="translate(93,422)"/>
</svg>
