<?xml version="1.0" encoding="UTF-8"?>
<svg version="1.1" xmlns="http://www.w3.org/2000/svg" width="381" height="177">
<path d="M0 0 C1.15783997 -0.01022186 2.31567993 -0.02044373 3.50860596 -0.03097534 C7.29981722 -0.05855795 11.09029271 -0.05686979 14.8815918 -0.05224609 C16.86783093 -0.0580602 18.85407034 -0.06388614 20.84030503 -0.07105958 C27.07573926 -0.09314571 33.31093244 -0.09418458 39.54638672 -0.08203125 C45.93710168 -0.06996504 52.3269345 -0.09456161 58.71749908 -0.13717139 C64.24240211 -0.1726279 69.76702723 -0.18437111 75.29203957 -0.1778959 C78.5751176 -0.17430452 81.85743526 -0.1818994 85.14043617 -0.20732498 C103.41999469 -0.33153089 118.83454564 0.2460386 132.76831055 13.54931641 C138.49664776 19.58729347 141.85585937 27.3076895 142.76831055 35.54931641 C142.70061574 37.32843623 142.57597708 39.10588717 142.40869141 40.87841797 C142.31055145 41.9374231 142.2124115 42.99642822 142.11129761 44.08752441 C141.94151901 45.80111145 141.94151901 45.80111145 141.76831055 47.54931641 C141.65278839 48.73199097 141.53726624 49.91466553 141.41824341 51.13317871 C141.02397063 55.10091624 140.61853285 59.06743365 140.2097168 63.03369141 C140.05894591 64.50278218 139.90822576 65.97187816 139.7575531 67.440979 C139.44316096 70.50354032 139.1278837 73.56600894 138.81201172 76.62841797 C138.41227601 80.50496248 138.01518072 84.38177221 137.61882114 88.25866318 C137.30859889 91.2892934 136.99671916 94.31975148 136.68440056 97.35016632 C136.53757117 98.77708586 136.39127375 100.20406027 136.24557686 101.63109589 C135.34893309 110.40442739 134.34000645 119.15486663 133.18907166 127.89825439 C132.76776782 131.55402576 132.52051148 135.18740428 132.33081055 138.86181641 C131.583219 149.82649236 129.13599836 159.53091105 120.91674805 167.29931641 C116.87695134 170.51827792 112.61417175 172.73482656 107.84643555 174.68994141 C105.7688364 175.50134287 105.7688364 175.50134287 103.91801834 176.58463097 C101.52812354 177.65710078 99.90312064 177.81478043 97.29486084 177.84365845 C96.4037561 177.85796906 95.51265137 177.87227966 94.59454346 177.88702393 C93.62418152 177.89240173 92.65381958 177.89777954 91.65405273 177.90332031 C90.62578369 177.91646271 89.59751465 177.9296051 88.53808594 177.94314575 C85.13044932 177.98260053 81.72298965 178.00594377 78.31518555 178.02587891 C77.14730751 178.03402996 75.97942947 178.04218102 74.77616119 178.05057907 C68.58507497 178.09231169 62.39407733 178.12090109 56.20288086 178.13964844 C49.84112158 178.16168453 43.48077948 178.23036987 37.11951828 178.30999184 C32.20173759 178.36259191 27.28428625 178.37905625 22.36624908 178.3862114 C20.0236996 178.39588719 17.68116203 178.41895404 15.33889008 178.45628738 C-1.38185579 178.70606028 -14.1627263 177.1178292 -26.98168945 165.54931641 C-36.15021948 155.12869638 -36.3066242 142.01744432 -37.48168945 128.73681641 C-39.1538486 110.63517608 -41.16680598 92.57154208 -43.16235352 74.50317383 C-43.29094757 73.33596298 -43.41954163 72.16875214 -43.55203247 70.96617126 C-43.79373923 68.77372551 -44.0364031 66.58138496 -44.28024292 64.38917542 C-48.30209827 27.93453437 -48.30209827 27.93453437 -37.59106445 14.09619141 C-27.7568321 3.48043066 -14.01937442 -0.06524062 0 0 Z " fill="#E00001" transform="translate(46.231689453125,-0.54931640625)"/>
<path d="M0 0 C2.1426724 -0.00524673 4.2853425 -0.01152702 6.42800903 -0.01878357 C10.9011732 -0.02914324 15.37401839 -0.02469082 19.84716797 -0.01000977 C25.54150641 0.00716206 31.23483419 -0.01632183 36.92905998 -0.05149937 C41.34927893 -0.0736023 45.7692609 -0.07200067 50.18951797 -0.06373405 C52.28719312 -0.06292142 54.3848869 -0.06965127 56.48250961 -0.08450508 C73.78841022 -0.18828554 88.39090865 1.40039579 101.8203125 13.56640625 C110.42943073 22.37573653 110.55277459 35.41233785 111.58477783 46.98791504 C111.98454251 51.47037623 112.41662365 55.94976592 112.84375 60.4296875 C112.92684418 61.31123505 113.00993835 62.19278259 113.09555054 63.1010437 C113.76825094 70.18802253 114.56299467 77.25217492 115.4453125 84.31640625 C116.44375001 92.35280398 117.34491709 100.38906256 118.1171875 108.45043945 C118.57459445 113.2081501 119.09675736 117.95230137 119.67114258 122.69726562 C121.35058738 136.82673535 122.65429741 149.63937801 114.0078125 161.87890625 C112.97397411 163.13227576 111.91203566 164.36312013 110.8203125 165.56640625 C110.34207031 166.09878906 109.86382812 166.63117188 109.37109375 167.1796875 C96.59620719 179.6327885 79.93994218 178.45594965 63.35291052 178.33942771 C59.89656622 178.32028154 56.44029005 178.33170531 52.98391724 178.33833313 C47.18586713 178.3446412 41.38828401 178.32657077 35.59033203 178.29370117 C28.91783482 178.25618288 22.24622007 178.25801049 15.57367599 178.28074235 C9.11188563 178.30179471 2.65041685 178.2943613 -3.81136703 178.2744236 C-6.54239141 178.26650423 -9.2731388 178.26834758 -12.00415421 178.2784481 C-15.82770539 178.28649264 -19.64975328 178.26205721 -23.47314453 178.22924805 C-24.58619965 178.23779816 -25.69925476 178.24634827 -26.84603882 178.25515747 C-37.93049329 178.09206377 -48.78688244 173.94434237 -57.1796875 166.56640625 C-64.87906978 157.77140037 -68.68975943 147.61515167 -68.02731323 135.86326599 C-67.70759004 132.84013804 -67.33004348 129.82991524 -66.9296875 126.81640625 C-66.64156528 124.49499757 -66.35516992 122.17337406 -66.0703125 119.8515625 C-65.92142578 118.65289551 -65.77253906 117.45422852 -65.61914062 116.21923828 C-64.89960364 110.23828695 -64.2886966 104.24696184 -63.6796875 98.25390625 C-63.4945459 96.44780884 -63.4945459 96.44780884 -63.30566406 94.60522461 C-62.92888584 90.92576507 -62.5539946 87.24611794 -62.1796875 83.56640625 C-61.31714975 75.0870312 -60.44465451 66.6088943 -59.55029297 58.1328125 C-59.17575031 54.52851797 -58.82010711 50.92264609 -58.46484375 47.31640625 C-58.22472501 45.00382652 -57.98387 42.69132308 -57.7421875 40.37890625 C-57.64421875 39.33452393 -57.54625 38.2901416 -57.4453125 37.21411133 C-56.30494162 26.65108257 -53.25833333 17.77504407 -45.1796875 10.56640625 C-31.41388617 0.09664186 -16.50892574 -0.04951014 0 0 Z " fill="#007DCA" transform="translate(260.1796875,-0.56640625)"/>
<path d="M0 0 C1.21839821 -0.00642769 1.21839821 -0.00642769 2.46141052 -0.01298523 C4.1769823 -0.01872451 5.89257841 -0.01923174 7.6081543 -0.01489258 C10.23983918 -0.01172628 12.87040674 -0.03521753 15.50195312 -0.06054688 C17.16796733 -0.0628192 18.83398456 -0.06352367 20.5 -0.0625 C21.2895961 -0.07170975 22.0791922 -0.08091949 22.89271545 -0.09040833 C25.10766602 -0.0715332 25.10766602 -0.0715332 28.68359375 0.30078125 C31.08478434 3.90256713 31.12130697 6.80944494 31.30859375 10.98828125 C31.34726562 11.69017578 31.3859375 12.39207031 31.42578125 13.11523438 C31.51982715 14.8433278 31.60279055 16.572018 31.68359375 18.30078125 C29.37359375 18.96078125 27.06359375 19.62078125 24.68359375 20.30078125 C24.65578112 22.07151872 24.63684496 23.84239542 24.62109375 25.61328125 C24.60949219 26.59941406 24.59789062 27.58554688 24.5859375 28.6015625 C24.66494289 31.59428672 24.87573814 34.48254263 25.171875 37.45703125 C25.74624671 43.47281912 25.90294987 49.44760597 25.93359375 55.48828125 C25.95421875 56.51630859 25.97484375 57.54433594 25.99609375 58.60351562 C26.04853711 68.8496365 23.23689908 75.46835483 16.68359375 83.30078125 C16.08546875 84.02265625 15.48734375 84.74453125 14.87109375 85.48828125 C4.66335834 93.94611916 -7.41948437 95.28574903 -20.31640625 94.30078125 C-32.06215596 92.4717594 -40.8263411 87.60108388 -48.31640625 78.30078125 C-51.7656852 72.25708788 -53.44134897 66.58348314 -53.44921875 59.63671875 C-53.45211914 57.9647644 -53.45211914 57.9647644 -53.45507812 56.2590332 C-53.44831055 54.48532349 -53.44831055 54.48532349 -53.44140625 52.67578125 C-53.43947266 51.47203857 -53.43753906 50.2682959 -53.43554688 49.02807617 C-53.38943844 39.42535377 -53.01737368 29.87649703 -52.31640625 20.30078125 C-53.40953125 20.34203125 -54.50265625 20.38328125 -55.62890625 20.42578125 C-59.31640625 20.30078125 -59.31640625 20.30078125 -62.31640625 18.30078125 C-62.6796875 15.11328125 -62.6796875 15.11328125 -62.62890625 11.30078125 C-62.62503906 10.04265625 -62.62117187 8.78453125 -62.6171875 7.48828125 C-62.31640625 4.30078125 -62.31640625 4.30078125 -60.31640625 2.30078125 C-57.24700091 2.04231096 -54.26192602 1.90268289 -51.1875 1.8515625 C-50.28266373 1.82982468 -49.37782745 1.80808685 -48.4455719 1.78569031 C-46.53160491 1.74174384 -44.6175238 1.70255077 -42.70336914 1.66772461 C-39.76216648 1.61343372 -36.82166176 1.54328212 -33.88085938 1.47070312 C-32.02475988 1.43005218 -30.16864026 1.3903077 -28.3125 1.3515625 C-27.42711044 1.33080154 -26.54172089 1.31004059 -25.62950134 1.28865051 C-23.52542761 1.25340459 -21.42057179 1.27152519 -19.31640625 1.30078125 C-17.19715021 3.42003729 -17.89809608 7.92039055 -17.75390625 10.86328125 C-17.71072266 11.66958984 -17.66753906 12.47589844 -17.62304688 13.30664062 C-17.51665363 15.3044693 -17.41599737 17.30260195 -17.31640625 19.30078125 C-20.0251996 20.65517793 -22.32573893 20.36579576 -25.31640625 20.30078125 C-25.27220962 25.76401802 -25.20233065 31.22610388 -25.10888672 36.6887207 C-25.08070366 38.54604928 -25.05947585 40.4034972 -25.04541016 42.26098633 C-25.02394341 44.93502786 -24.97727556 47.6076386 -24.92578125 50.28125 C-24.92455261 51.10852097 -24.92332397 51.93579193 -24.92205811 52.78813171 C-24.82188661 56.75275879 -24.58475001 58.85819294 -22.48535156 62.32080078 C-19.45148237 65.09035044 -17.37232167 65.00117081 -13.31640625 64.98828125 C-12.09953125 65.01277344 -10.88265625 65.03726563 -9.62890625 65.0625 C-6.17312254 64.57022531 -6.17312254 64.57022531 -3.8984375 61.94140625 C-1.73524745 56.96339854 -1.84274721 52.72751253 -2.00390625 47.36328125 C-2.019375 46.3487085 -2.03484375 45.33413574 -2.05078125 44.28881836 C-2.20315568 36.27455817 -2.61003725 28.28527367 -3.31640625 20.30078125 C-4.45078125 20.15640625 -5.58515625 20.01203125 -6.75390625 19.86328125 C-10.31640625 19.30078125 -10.31640625 19.30078125 -11.31640625 18.30078125 C-11.46958616 15.64075314 -11.548005 13.02456245 -11.56640625 10.36328125 C-11.58703125 9.62142578 -11.60765625 8.87957031 -11.62890625 8.11523438 C-11.64453125 5.9609375 -11.64453125 5.9609375 -11.31640625 2.30078125 C-7.51028383 -0.23663369 -4.41190593 -0.00510562 0 0 Z " fill="#F3FAFD" transform="translate(302.31640625,46.69921875)"/>
<path d="M0 0 C10.15266547 -0.02255146 20.30531443 -0.04091534 30.45799923 -0.05181217 C35.17179733 -0.05704089 39.88557747 -0.06413834 44.59936523 -0.07543945 C49.14455404 -0.08626873 53.68972552 -0.09227692 58.23492622 -0.09487724 C59.97294958 -0.09673142 61.71097194 -0.10035189 63.44898796 -0.10573006 C65.87478595 -0.11294103 68.30051146 -0.11399092 70.72631836 -0.11352539 C71.45208069 -0.11712067 72.17784302 -0.12071594 72.92559814 -0.12442017 C77.88594784 -0.11405216 77.88594784 -0.11405216 79 1 C79.08758003 2.99964982 79.10696576 5.0023611 79.09765625 7.00390625 C79.09282227 8.82631836 79.09282227 8.82631836 79.08789062 10.68554688 C79.07532227 12.60463867 79.07532227 12.60463867 79.0625 14.5625 C79.05798828 15.84576172 79.05347656 17.12902344 79.04882812 18.45117188 C79.03699545 21.63416022 79.02051068 24.81705762 79 28 C77.58398286 28.48108275 76.16715563 28.95978141 74.75 29.4375 C73.96109375 29.70433594 73.1721875 29.97117187 72.359375 30.24609375 C67.75167371 31.71842214 63.89033476 32.27168526 59 32 C57 30 57 30 56 23 C51.05 22.67 46.1 22.34 41 22 C41.495 29.92 41.495 29.92 42 38 C46.29 38.33 50.58 38.66 55 39 C56.21989687 45.09948433 55.95686566 50.85479607 55 57 C53.18884044 58.81115956 50.38721773 58.38199448 47.9375 58.5625 C46.83277344 58.64628906 45.72804687 58.73007813 44.58984375 58.81640625 C43.30787109 58.90728516 43.30787109 58.90728516 42 59 C42 62.3 42 65.6 42 69 C42.85464844 69.06058594 43.70929688 69.12117188 44.58984375 69.18359375 C46.24693359 69.30927734 46.24693359 69.30927734 47.9375 69.4375 C49.59072266 69.55931641 49.59072266 69.55931641 51.27734375 69.68359375 C54 70 54 70 55 71 C55.40025025 72.55133491 55.74558706 74.11702031 56.0625 75.6875 C56.23910156 76.53699219 56.41570312 77.38648438 56.59765625 78.26171875 C57 81 57 81 57 87 C39.51 87 22.02 87 4 87 C3.67 81.72 3.34 76.44 3 71 C8.445 70.505 8.445 70.505 14 70 C13.9278125 69.21625 13.855625 68.4325 13.78125 67.625 C12.60342698 52.4441699 12.91690862 37.21495439 13 22 C8.71 21.67 4.42 21.34 0 21 C0 14.07 0 7.14 0 0 Z " fill="#FEF6F8" transform="translate(55,56)"/>
<path d="M0 0 C0.66 1.32 1.32 2.64 2 4 C0.18806942 4.31578486 -1.62458346 4.62742564 -3.4375 4.9375 C-4.44683594 5.11152344 -5.45617187 5.28554688 -6.49609375 5.46484375 C-15.2813607 6.80662923 -24.01220842 7.28123089 -32.88671875 7.60546875 C-34.24216797 7.66154297 -34.24216797 7.66154297 -35.625 7.71875 C-36.44226563 7.74904297 -37.25953125 7.77933594 -38.1015625 7.81054688 C-40.00969298 7.79856116 -40.00969298 7.79856116 -41 9 C-41.09981214 11.6773138 -41.13879875 14.32304175 -41.125 17 C-41.12886719 17.75023438 -41.13273438 18.50046875 -41.13671875 19.2734375 C-41.47675541 22.93606117 -41.47675541 22.93606117 -40 26 C-38.48530552 26.23192865 -36.96245438 26.41215238 -35.4375 26.5625 C-34.61121094 26.64628906 -33.78492188 26.73007813 -32.93359375 26.81640625 C-31.97646484 26.90728516 -31.97646484 26.90728516 -31 27 C-31.01571045 28.28575928 -31.0314209 29.57151855 -31.04760742 30.89624023 C-31.10219902 35.69891006 -31.13645594 40.50155283 -31.16479492 45.30444336 C-31.17981521 47.37708154 -31.20023747 49.44968829 -31.22631836 51.5222168 C-31.26300024 54.51358836 -31.27979435 57.5045371 -31.29296875 60.49609375 C-31.30845261 61.41208847 -31.32393646 62.32808319 -31.33988953 63.27183533 C-31.34262927 73.91477892 -28.02577206 81.82008088 -20.75 89.625 C-12.88275449 97.19158645 -3.40186907 99.04291628 7.25 99.25 C21.8676018 98.93972072 31.0607874 97.02732492 41.5 86.625 C42.1496875 85.93664062 42.799375 85.24828125 43.46875 84.5390625 C43.9740625 84.03117187 44.479375 83.52328125 45 83 C45.33 83 45.66 83 46 83 C46.46178879 85.77073275 46.65627979 87.31934948 46 90 C39.35486018 98.90977702 30.19850589 103.7892944 19.4296875 105.61328125 C8.84613995 106.80664253 -2.03761841 107.19667687 -12 103 C-12.71027344 102.71382813 -13.42054688 102.42765625 -14.15234375 102.1328125 C-15.78238963 101.45497164 -17.39406755 100.73314308 -19 100 C-19 99.34 -19 98.68 -19 98 C-19.556875 97.9175 -20.11375 97.835 -20.6875 97.75 C-26.41848347 95.89130266 -30.1272456 91.09984088 -33 86 C-36.5985745 77.61134974 -38.16281887 70.46714691 -37.88671875 61.33984375 C-37.85460647 59.64260608 -37.82405447 57.9453383 -37.79492188 56.24804688 C-37.74544416 53.585358 -37.68707849 50.92426652 -37.60229492 48.26245117 C-37.52357807 45.68382024 -37.48314107 43.10690234 -37.44921875 40.52734375 C-37.41511398 39.73247055 -37.38100922 38.93759735 -37.34587097 38.11863708 C-37.26768223 35.58021154 -37.26768223 35.58021154 -38 32 C-40.80092771 29.50088419 -40.80092771 29.50088419 -44 28 C-46.5299613 25.51273847 -46.96022063 24.32369484 -47.3984375 20.7578125 C-47.39070312 19.55898438 -47.38296875 18.36015625 -47.375 17.125 C-47.38273438 15.93132813 -47.39046875 14.73765625 -47.3984375 13.5078125 C-46.95712467 9.62252898 -46.16954564 7.24958147 -44 4 C-40.04770668 1.64273934 -35.5108421 1.35727884 -31 0.875 C-30.23123535 0.79008301 -29.4624707 0.70516602 -28.67041016 0.61767578 C-19.12895229 -0.32979766 -9.57549441 -0.16997919 0 0 Z " fill="#005EC2" transform="translate(281,41)"/>
<path d="M0 0 C2.475 0.495 2.475 0.495 5 1 C5.33 2.65 5.66 4.3 6 6 C7.32 4.68 8.64 3.36 10 2 C11.875 2.625 11.875 2.625 14 4 C15.68908972 8.09098267 16.24158397 11.54524278 16.1953125 15.94921875 C16.18886719 17.04427734 16.18242187 18.13933594 16.17578125 19.26757812 C16.15902344 20.39615234 16.14226562 21.52472656 16.125 22.6875 C16.11597656 23.82767578 16.10695313 24.96785156 16.09765625 26.14257812 C16.08024303 28.24833366 16.05871853 30.35406211 16.03173828 32.4597168 C16.00866628 34.30636404 16 36.15320863 16 38 C17.93597985 36.06402015 17.16381416 32.42954211 17.16796875 29.7890625 C17.17129715 29.06512299 17.17462555 28.34118347 17.17805481 27.5953064 C17.18312739 26.06028887 17.18546303 24.52526028 17.18530273 22.99023438 C17.18748445 20.64174151 17.20562287 18.29372185 17.22460938 15.9453125 C17.22754419 14.45573078 17.2295284 12.96614682 17.23046875 11.4765625 C17.23765427 10.77334869 17.24483978 10.07013489 17.25224304 9.34561157 C17.23502296 5.66705311 17.09860684 4.14791026 15 1 C16 0 16 0 18.5625 -0.0625 C19.7690625 -0.0315625 19.7690625 -0.0315625 21 0 C21.07410115 5.78406969 21.12857885 11.56786371 21.16479492 17.35229492 C21.17989082 19.32044283 21.20036948 21.28855706 21.22631836 23.2565918 C21.26266649 26.08390612 21.27971814 28.9107761 21.29296875 31.73828125 C21.30845261 32.61962234 21.32393646 33.50096344 21.33988953 34.40901184 C21.34011612 35.22963608 21.34034271 36.05026031 21.34057617 36.89575195 C21.34723801 37.61745071 21.35389984 38.33914948 21.36076355 39.0827179 C20.88761107 41.59729228 20.02180039 42.47058607 18 44 C14.78515625 44.43359375 14.78515625 44.43359375 11.0625 44.4375 C9.83660156 44.45683594 8.61070312 44.47617188 7.34765625 44.49609375 C4 44 4 44 1.81518555 42.5402832 C-0.89088294 38.75324318 -0.50038224 35.40118329 -0.390625 30.859375 C-0.38496521 29.97719299 -0.37930542 29.09501099 -0.37347412 28.18609619 C-0.35111591 25.37350787 -0.30092132 22.56220205 -0.25 19.75 C-0.22993425 17.84116426 -0.21168361 15.93230851 -0.1953125 14.0234375 C-0.151253 9.34846555 -0.08222984 4.67445008 0 0 Z " fill="#0078C9" transform="translate(278,68)"/>
<path d="M0 0 C1.4540625 0.0309375 1.4540625 0.0309375 2.9375 0.0625 C2.92178955 1.34825928 2.9060791 2.63401855 2.88989258 3.95874023 C2.83530098 8.76141006 2.80104406 13.56405283 2.77270508 18.36694336 C2.75768479 20.43958154 2.73726253 22.51218829 2.71118164 24.5847168 C2.67449976 27.57608836 2.65770565 30.5670371 2.64453125 33.55859375 C2.62904739 34.47458847 2.61356354 35.39058319 2.59761047 36.33433533 C2.59487073 46.97727892 5.91172794 54.88258088 13.1875 62.6875 C21.05474551 70.25408645 30.53563093 72.10541628 41.1875 72.3125 C57.25516208 71.97144114 66.36346165 69.19804869 77.50390625 57.6015625 C78.21353516 56.83972656 78.21353516 56.83972656 78.9375 56.0625 C78.9375 60.83403503 76.06957063 63.6340614 72.9375 67.0625 C70.44883871 69.16742213 67.85218108 70.61728376 64.9375 72.0625 C63.63619141 72.76246094 63.63619141 72.76246094 62.30859375 73.4765625 C55.00879791 76.88376838 48.54824561 77.52749218 40.5625 77.5625 C39.15363525 77.57180542 39.15363525 77.57180542 37.71630859 77.58129883 C32.01522516 77.47715321 28.00314516 76.68419355 22.9375 74.0625 C22.1434375 73.67449219 21.349375 73.28648437 20.53125 72.88671875 C13.69285981 69.17408527 7.55453542 65.69551998 4.9375 58.0625 C3.9475 57.7325 2.9575 57.4025 1.9375 57.0625 C-1.36087335 51.05415753 -1.50305259 44.34643358 -1.50390625 37.6640625 C-1.51711411 36.70728607 -1.53032196 35.75050964 -1.54393005 34.76473999 C-1.58449898 31.73896244 -1.60642234 28.71348647 -1.625 25.6875 C-1.64880343 22.64018011 -1.67687259 19.59314331 -1.71678162 16.54598999 C-1.74110969 14.65743921 -1.75599178 12.76873775 -1.76039124 10.8800354 C-1.77057785 10.02839813 -1.78076447 9.17676086 -1.79125977 8.29931641 C-1.79553482 7.55146881 -1.79980988 6.80362122 -1.80421448 6.03311157 C-1.95685325 3.74228283 -1.95685325 3.74228283 -4.0625 1.0625 C-3.0625 0.0625 -3.0625 0.0625 0 0 Z " fill="#0444C1" transform="translate(247.0625,67.9375)"/>
<path d="M0 0 C7.46414234 0.77215266 7.46414234 0.77215266 10.37698364 2.01069641 C15.68472793 3.46003308 20.82640219 3.26939371 26.30419922 3.24291992 C27.54068207 3.24481827 28.77716492 3.24671661 30.05111694 3.24867249 C33.43144796 3.25173656 36.8115331 3.24588491 40.19183493 3.23571944 C43.73816865 3.22690638 47.28449862 3.22869705 50.83084106 3.2290802 C56.78747769 3.22814467 62.74406328 3.21947747 68.70068359 3.20581055 C75.57277713 3.19010069 82.44481473 3.18481204 89.31692493 3.1855461 C96.6507681 3.18622351 103.98458991 3.17926991 111.31842661 3.1700995 C113.42310957 3.16797539 115.52778906 3.16725929 117.63247299 3.16686058 C121.56733905 3.16566228 125.50215941 3.15592156 129.43701172 3.14526367 C131.1750708 3.14594345 131.1750708 3.14594345 132.94824219 3.14663696 C138.72711387 3.12380186 144.28523547 2.87267839 150 2 C142.51020602 6.99319598 136.69135386 7.44282051 127.8293457 7.41992188 C126.01330086 7.43262619 126.01330086 7.43262619 124.16056824 7.44558716 C120.85431482 7.46492167 117.54862703 7.470738 114.24235559 7.46883965 C111.47197226 7.46871947 108.70164096 7.47730332 105.93127221 7.48561716 C99.38684435 7.50482283 92.84254401 7.50774651 86.2980957 7.50097656 C79.57411111 7.49434793 72.85067677 7.51715848 66.1268037 7.55429029 C60.33201126 7.58511588 54.53739459 7.5963332 48.74252194 7.59245348 C45.29134258 7.59039801 41.84059096 7.59567537 38.38949013 7.62034607 C34.53176633 7.64261819 30.67534842 7.63278852 26.81762695 7.61523438 C25.69357452 7.62849762 24.56952209 7.64176086 23.41140747 7.65542603 C15.18651254 7.56898838 6.05779902 6.05779902 0 0 Z " fill="#0062AA" transform="translate(210,170)"/>
<path d="M0 0 C2.475 0.495 2.475 0.495 5 1 C4.67 1.99 4.34 2.98 4 4 C3.7717845 8.57537504 3.77174039 13.15304954 3.75976562 17.73339844 C3.75003487 19.99190758 3.71898823 22.24951587 3.6875 24.5078125 C3.68097195 25.94270294 3.6757207 27.37759987 3.671875 28.8125 C3.6625293 30.11832031 3.65318359 31.42414063 3.64355469 32.76953125 C3.72547904 35.95575294 3.72547904 35.95575294 5.3972168 37.92651367 C8.47165003 39.98565807 11.40527713 39.28529547 15 39 C17.45527179 36.54472821 17.24542215 35.17124385 17.27789307 31.81898499 C17.2738446 31.116884 17.26979614 30.41478302 17.265625 29.69140625 C17.26753845 28.96888168 17.2694519 28.24635712 17.27142334 27.50193787 C17.27278504 25.97288668 17.26908964 24.44382393 17.26074219 22.91479492 C17.25005751 20.57509316 17.2606295 18.23616193 17.2734375 15.89648438 C17.2721156 14.41145664 17.26955257 12.92642938 17.265625 11.44140625 C17.26967346 10.7413295 17.27372192 10.04125275 17.27789307 9.31996155 C17.24257654 5.65626704 17.08995623 4.13493434 15 1 C16 0 16 0 18.5625 -0.0625 C19.7690625 -0.0315625 19.7690625 -0.0315625 21 0 C21.07410115 5.78406969 21.12857885 11.56786371 21.16479492 17.35229492 C21.17989082 19.32044283 21.20036948 21.28855706 21.22631836 23.2565918 C21.26266649 26.08390612 21.27971814 28.9107761 21.29296875 31.73828125 C21.30845261 32.61962234 21.32393646 33.50096344 21.33988953 34.40901184 C21.34011612 35.22963608 21.34034271 36.05026031 21.34057617 36.89575195 C21.34723801 37.61745071 21.35389984 38.33914948 21.36076355 39.0827179 C20.88761107 41.59729228 20.02180039 42.47058607 18 44 C14.78515625 44.43359375 14.78515625 44.43359375 11.0625 44.4375 C9.83660156 44.45683594 8.61070312 44.47617188 7.34765625 44.49609375 C4 44 4 44 1.81518555 42.5402832 C-0.89088294 38.75324318 -0.50038224 35.40118329 -0.390625 30.859375 C-0.38496521 29.97719299 -0.37930542 29.09501099 -0.37347412 28.18609619 C-0.35111591 25.37350787 -0.30092132 22.56220205 -0.25 19.75 C-0.22993425 17.84116426 -0.21168361 15.93230851 -0.1953125 14.0234375 C-0.151253 9.34846555 -0.08222984 4.67445008 0 0 Z " fill="#001BB9" transform="translate(278,68)"/>
<path d="M0 0 C0.85474411 -0.00807175 1.70948822 -0.01614349 2.59013367 -0.02445984 C4.40341147 -0.03831759 6.21671554 -0.04903215 8.0300293 -0.05688477 C10.80242507 -0.07408355 13.57362423 -0.11795149 16.34570312 -0.16210938 C18.10545996 -0.17223714 19.86522696 -0.18075298 21.625 -0.1875 C22.4542952 -0.20500809 23.28359039 -0.22251617 24.13801575 -0.24055481 C29.90148186 -0.21886196 29.90148186 -0.21886196 33.02050781 2.11767578 C35.94321383 6.27396662 35.62844633 10.61607109 35.57421875 15.55078125 C35.56519531 16.61941406 35.55617188 17.68804687 35.546875 18.7890625 C35.53527344 19.59730469 35.52367187 20.40554687 35.51171875 21.23828125 C34.52171875 21.73328125 34.52171875 21.73328125 33.51171875 22.23828125 C33.18171875 17.61828125 32.85171875 12.99828125 32.51171875 8.23828125 C31.85171875 8.23828125 31.19171875 8.23828125 30.51171875 8.23828125 C30.01671875 6.25828125 30.01671875 6.25828125 29.51171875 4.23828125 C23.975675 4.35621464 18.43982262 4.48043906 12.90405273 4.6105957 C11.01932657 4.65401058 9.13455939 4.69568068 7.24975586 4.7355957 C4.54658626 4.79314018 1.84362439 4.85687929 -0.859375 4.921875 C-1.70729111 4.93858749 -2.55520721 4.95529999 -3.42881775 4.97251892 C-7.27120201 4.7023732 -7.27120201 4.7023732 -10.48828125 6.23828125 C-10.72529364 9.09706034 -10.91047307 11.93711422 -11.05078125 14.80078125 C-11.09396484 15.60708984 -11.13714844 16.41339844 -11.18164062 17.24414062 C-11.28803387 19.2419693 -11.38869013 21.24010195 -11.48828125 23.23828125 C-13.46828125 24.22828125 -13.46828125 24.22828125 -15.48828125 25.23828125 C-16.81548011 18.27048722 -16.57653506 11.30839214 -16.48828125 4.23828125 C-15.35390625 3.76390625 -14.21953125 3.28953125 -13.05078125 2.80078125 C-8.20500668 0.67544153 -5.43453629 0.04805613 0 0 Z " fill="#003BBE" transform="translate(301.48828125,41.76171875)"/>
<path d="M0 0 C2.1426724 -0.00524673 4.2853425 -0.01152702 6.42800903 -0.01878357 C10.9011732 -0.02914324 15.37401839 -0.02469082 19.84716797 -0.01000977 C25.54150641 0.00716206 31.23483419 -0.01632183 36.92905998 -0.05149937 C41.34927893 -0.0736023 45.7692609 -0.07200067 50.18951797 -0.06373405 C52.28719312 -0.06292142 54.3848869 -0.06965127 56.48250961 -0.08450508 C71.9473381 -0.17724495 86.83916416 0.42738335 98.8203125 11.56640625 C97.8303125 11.89640625 96.8403125 12.22640625 95.8203125 12.56640625 C94.8303125 12.07140625 94.8303125 12.07140625 93.8203125 11.56640625 C93.8203125 10.90640625 93.8203125 10.24640625 93.8203125 9.56640625 C93.08425781 9.37304688 92.34820312 9.1796875 91.58984375 8.98046875 C90.61402344 8.72007813 89.63820313 8.4596875 88.6328125 8.19140625 C87.66988281 7.93617188 86.70695312 7.6809375 85.71484375 7.41796875 C82.8203125 6.56640625 82.8203125 6.56640625 80.39453125 5.52734375 C74.26420106 3.23893521 67.76190185 3.41775394 61.30834961 3.42114258 C60.38062241 3.41778397 59.4528952 3.41442535 58.49705505 3.41096497 C55.44724164 3.40150838 52.39748339 3.39951483 49.34765625 3.3984375 C47.21969073 3.39522234 45.09172543 3.39185807 42.96376038 3.38835144 C38.51123542 3.38237422 34.05872985 3.38051021 29.60620117 3.38110352 C23.90440053 3.38120531 18.20272393 3.36752893 12.50095272 3.35033131 C8.10945567 3.33921027 3.71798865 3.33718431 -0.67352104 3.33771324 C-2.77583686 3.33653422 -4.87815348 3.33211679 -6.9804554 3.32438087 C-9.9194319 3.31457464 -12.85813821 3.31746111 -15.79711914 3.32348633 C-16.66222107 3.31786682 -17.527323 3.31224731 -18.41864014 3.30645752 C-23.1369764 3.33101545 -26.68550037 4.01021018 -31.1796875 5.56640625 C-33.5546875 5.19140625 -33.5546875 5.19140625 -35.1796875 4.56640625 C-23.5758715 -0.24090856 -12.36012541 -0.03706792 0 0 Z " fill="#001E59" transform="translate(260.1796875,-0.56640625)"/>
<path d="M0 0 C1.17142044 -0.00350464 2.34284088 -0.00700928 3.54975891 -0.01062012 C7.41669667 -0.01941282 11.28345105 -0.01359681 15.15039062 -0.00683594 C17.84029284 -0.00728147 20.53019181 -0.01012143 23.22009277 -0.01263428 C28.85557029 -0.01626828 34.49099531 -0.01148971 40.12646484 -0.00195312 C46.63281191 0.00893036 53.13903361 0.00540438 59.64537764 -0.00560594 C65.24131067 -0.01469497 70.83720606 -0.01595619 76.43314409 -0.0107286 C79.77111178 -0.00761776 83.10897344 -0.00796554 86.44694519 -0.01380157 C90.16914339 -0.01888121 93.89110096 -0.01113596 97.61328125 0 C98.71372269 -0.00404846 99.81416412 -0.00809692 100.94795227 -0.01226807 C106.1255952 0.01642446 110.46930704 0.16150088 115.30664062 2.25878906 C112.17661467 3.18105191 109.39817469 3.37411055 106.14070129 3.35212708 C105.09643982 3.3477211 104.05217834 3.34331512 102.97627258 3.33877563 C101.26578987 3.32395645 101.26578987 3.32395645 99.52075195 3.30883789 C98.31542816 3.30255875 97.11010437 3.2962796 95.86825562 3.28981018 C93.24857616 3.27595236 90.62896529 3.26035673 88.0093174 3.24225807 C83.86053729 3.21436788 79.71175755 3.19739703 75.56291199 3.18278503 C74.14053436 3.17764119 72.71815677 3.17248457 71.29577923 3.16731548 C70.58348608 3.16472992 69.87119294 3.16214436 69.13731515 3.15948045 C59.48199569 3.12348662 49.82679208 3.07817643 40.17163086 3.01196289 C33.65439169 2.96735652 27.13725382 2.93717402 20.61987513 2.92310542 C17.17488665 2.91505942 13.73028552 2.89966728 10.28544044 2.8664341 C6.43675831 2.82937176 2.58836821 2.82379715 -1.26049805 2.82055664 C-2.3906987 2.80460449 -3.52089935 2.78865234 -4.68534851 2.7722168 C-10.86434365 2.79588221 -15.33921694 3.45553594 -20.77107716 6.49685192 C-23.14299686 7.43701237 -24.32935268 7.09468026 -26.69335938 6.25878906 C-25.32003653 5.63011238 -23.94460105 5.00605015 -22.56835938 4.38378906 C-21.80265625 4.03574219 -21.03695313 3.68769531 -20.24804688 3.32910156 C-18.98347656 2.79929688 -18.98347656 2.79929688 -17.69335938 2.25878906 C-16.89184448 1.91205139 -16.09032959 1.56531372 -15.26452637 1.20806885 C-10.16191932 -0.14829498 -5.25806347 -0.01934412 0 0 Z " fill="#6A0000" transform="translate(45.693359375,-0.2587890625)"/>
<path d="M0 0 C1.4540625 0.0309375 1.4540625 0.0309375 2.9375 0.0625 C2.77608017 0.62989899 2.61466034 1.19729797 2.448349 1.78189087 C1.92696497 4.10953208 1.79325275 6.16986745 1.76391602 8.55224609 C1.74368126 9.87414444 1.74368126 9.87414444 1.72303772 11.2227478 C1.71259933 12.1676004 1.70216095 13.112453 1.69140625 14.0859375 C1.65846972 16.09635855 1.62525804 18.10677511 1.59179688 20.1171875 C1.54440008 23.27926573 1.49995251 26.44132548 1.46069336 29.60351562 C1.42088591 32.66034624 1.36936645 35.71681038 1.31640625 38.7734375 C1.3079921 39.71424164 1.29957794 40.65504578 1.29090881 41.62435913 C1.20064387 46.43847134 0.9871333 50.60591234 -1.0625 55.0625 C-3.1875 55.9375 -3.1875 55.9375 -5.0625 56.0625 C-5.1875 49.3125 -5.1875 49.3125 -4.0625 47.0625 C-3.97788385 45.58661924 -3.95528319 44.1069356 -3.96484375 42.62866211 C-3.96814697 41.71108627 -3.9714502 40.79351044 -3.97485352 39.84812927 C-3.98730103 38.35902794 -3.98730103 38.35902794 -4 36.83984375 C-4.00378662 35.82402725 -4.00757324 34.80821075 -4.01147461 33.76161194 C-4.02372469 30.50769898 -4.0423596 27.25387313 -4.0625 24 C-4.08896466 19.71745043 -4.10902086 15.43494381 -4.125 11.15234375 C-4.13329834 10.1575853 -4.14159668 9.16282684 -4.15014648 8.13792419 C-4.15344971 7.22350052 -4.15675293 6.30907684 -4.16015625 5.36694336 C-4.16539307 4.55801132 -4.17062988 3.74907928 -4.17602539 2.91563416 C-3.97983475 -0.28688796 -3.25962251 0.06652291 0 0 Z " fill="#0025B9" transform="translate(331.0625,66.9375)"/>
<path d="M0 0 C2.44235418 2.17628766 3.60107155 3.96258474 4.625 7.0625 C4.86476562 7.75472656 5.10453125 8.44695313 5.3515625 9.16015625 C7.29922187 17.68996564 6.88708811 25.67386207 5.85546875 34.3046875 C5.72562088 35.46388702 5.59577301 36.62308655 5.46199036 37.81741333 C5.04695517 41.50446579 4.61769481 45.18968867 4.1875 48.875 C3.909818 51.30978321 3.63311719 53.74467853 3.35742188 56.1796875 C2.95299478 59.7515688 2.54798864 63.32336535 2.1388855 66.89471436 C0.9935741 76.92050029 -0.03465004 86.95543586 -1 97 C-1.33 97 -1.66 97 -2 97 C-2.27579809 87.88334101 -1.71845228 79.04581046 -0.78393555 69.98730469 C-0.11980984 63.49754582 0.35567554 57.02112765 0.65795898 50.50463867 C0.79702326 47.69539884 1.00312646 44.98274098 1.50488281 42.21289062 C2.33397494 36.83278588 2.18595049 31.43861972 2.18530273 26.00463867 C2.18749763 23.93973422 2.20571568 21.87535769 2.22460938 19.81054688 C2.22654297 18.50021484 2.22847656 17.18988281 2.23046875 15.83984375 C2.23457764 14.64738037 2.23868652 13.45491699 2.24291992 12.22631836 C2.00215824 9.02866448 1.23919478 6.92010402 0 4 C0 2.68 0 1.36 0 0 Z " fill="#860000" transform="translate(182,18)"/>
<path d="M0 0 C1.4540625 0.0309375 1.4540625 0.0309375 2.9375 0.0625 C2.93527939 0.66305206 2.93305878 1.26360413 2.93077087 1.88235474 C2.9086129 8.14422001 2.89354952 14.40607411 2.88256836 20.66796875 C2.87754588 23.00358533 2.87072668 25.33919878 2.86206055 27.67480469 C2.8499037 31.03581517 2.84425076 34.39678401 2.83984375 37.7578125 C2.83468246 38.79865997 2.82952118 39.83950745 2.82420349 40.91189575 C2.82383131 45.74368799 2.91476039 50.31330774 3.9375 55.0625 C3.2775 55.0625 2.6175 55.0625 1.9375 55.0625 C-1.07884027 49.19886654 -1.50308053 44.39663078 -1.50390625 37.859375 C-1.52371803 36.41996552 -1.52371803 36.41996552 -1.54393005 34.95147705 C-1.58462565 31.905121 -1.60645276 28.85906548 -1.625 25.8125 C-1.64879201 22.75174254 -1.67687022 19.69126775 -1.71678162 16.63067627 C-1.74113161 14.73099643 -1.75599587 12.83116625 -1.76039124 10.93133545 C-1.77057785 10.0732428 -1.78076447 9.21515015 -1.79125977 8.33105469 C-1.79553482 7.57717468 -1.79980988 6.82329468 -1.80421448 6.04656982 C-1.95509865 3.74406539 -1.95509865 3.74406539 -4.0625 1.0625 C-3.0625 0.0625 -3.0625 0.0625 0 0 Z " fill="#0015B9" transform="translate(247.0625,67.9375)"/>
<path d="M0 0 C5.66104589 0.49658297 9.87674471 1.54510684 15 4 C15 4.66 15 5.32 15 6 C30.76878222 5.93939077 46.53738502 5.86183831 62.30597687 5.76428509 C69.62812355 5.71937843 76.95022216 5.67995206 84.27246094 5.65356445 C90.6568225 5.63054268 97.04103125 5.5970983 103.42527151 5.55129844 C106.80362281 5.52742224 110.1818233 5.50865692 113.56025696 5.50238609 C117.33792546 5.49275038 121.11504496 5.46469542 124.89257812 5.43237305 C126.00460602 5.43380814 127.11663391 5.43524323 128.26235962 5.4367218 C134.58695724 5.36029106 139.19897033 4.51043403 145 2 C148 1.8125 148 1.8125 150 2 C142.51020602 6.99319598 136.69135386 7.44282051 127.8293457 7.41992188 C126.01330086 7.43262619 126.01330086 7.43262619 124.16056824 7.44558716 C120.85431482 7.46492167 117.54862703 7.470738 114.24235559 7.46883965 C111.47197226 7.46871947 108.70164096 7.47730332 105.93127221 7.48561716 C99.38684435 7.50482283 92.84254401 7.50774651 86.2980957 7.50097656 C79.57411111 7.49434793 72.85067677 7.51715848 66.1268037 7.55429029 C60.33201126 7.58511588 54.53739459 7.5963332 48.74252194 7.59245348 C45.29134258 7.59039801 41.84059096 7.59567537 38.38949013 7.62034607 C34.53176633 7.64261819 30.67534842 7.63278852 26.81762695 7.61523438 C25.69357452 7.62849762 24.56952209 7.64176086 23.41140747 7.65542603 C15.18651254 7.56898838 6.05779902 6.05779902 0 0 Z " fill="#001863" transform="translate(210,170)"/>
<path d="M0 0 C1.04288681 -0.00426498 2.08577362 -0.00852997 3.16026306 -0.01292419 C4.87613869 -0.01224442 4.87613869 -0.01224442 6.62667847 -0.0115509 C7.83185623 -0.01490952 9.037034 -0.01826813 10.2787323 -0.02172852 C13.58692391 -0.02961001 16.89505276 -0.03290675 20.20324945 -0.0335443 C22.27258606 -0.03425528 24.3419161 -0.0363906 26.41125107 -0.03904152 C33.63817512 -0.04829788 40.86508072 -0.05237641 48.0920105 -0.05158997 C54.8146483 -0.05099043 61.53720553 -0.06151708 68.25982296 -0.07733363 C74.04002257 -0.09044522 79.82019599 -0.09577228 85.60041034 -0.09513456 C89.04861905 -0.09488045 92.49675629 -0.09768252 95.9449501 -0.10831261 C99.79852637 -0.11986712 103.65199399 -0.11522467 107.50558472 -0.10920715 C108.63735641 -0.11482666 109.76912811 -0.12044617 110.93519592 -0.12623596 C119.44274113 -0.09256489 127.12123838 0.49252492 134.45431519 5.13371277 C135.28962769 5.64933777 136.12494019 6.16496277 136.98556519 6.69621277 C138.95431519 8.13371277 138.95431519 8.13371277 139.95431519 10.13371277 C136.22998136 8.92113897 132.57628712 7.62511298 128.95431519 6.13371277 C128.95431519 5.47371277 128.95431519 4.81371277 128.95431519 4.13371277 C120.76127208 2.52930278 112.93530846 1.84729085 104.59567261 1.89079285 C103.4249823 1.8888945 102.25429199 1.88699615 101.04812622 1.88504028 C97.21860838 1.88136676 93.38928461 1.89198585 89.55978394 1.90324402 C86.88085146 1.90443763 84.20192687 1.90493929 81.522995 1.90463257 C75.92756789 1.90556466 70.33219552 1.91418987 64.73678589 1.92790222 C58.28262182 1.94366134 51.82851739 1.94889872 45.37433547 1.94816667 C39.13795412 1.94755506 32.901592 1.95267018 26.66521645 1.96095848 C24.02226185 1.96413601 21.37930551 1.96611041 18.73634911 1.96685219 C15.04619764 1.96902312 11.35612055 1.97778258 7.66598511 1.9884491 C6.57856522 1.98799591 5.49114532 1.98754272 4.37077332 1.98707581 C-0.87562547 2.00922145 -5.87674098 2.21697712 -11.04568481 3.13371277 C-7.15809892 0.54198884 -4.56262685 0.00842712 0 0 Z " fill="#C10000" transform="translate(37.045684814453125,1.8662872314453125)"/>
<path d="M0 0 C0.66 0.66 1.32 1.32 2 2 C1.71531959 4.33976764 1.37351845 6.6727614 1 9 C1.00681927 11.37194219 1.07307577 13.74428269 1.19140625 16.11328125 C1.24965192 17.4576692 1.30758477 18.80207073 1.36523438 20.14648438 C1.46181083 22.22642345 1.56216927 24.30604438 1.66870117 26.38549805 C2.19603215 36.94339067 2.44614164 46.59302807 -3 56 C-3.56074219 55.73832031 -4.12148438 55.47664063 -4.69921875 55.20703125 C-5.45847656 55.13871094 -6.21773438 55.07039063 -7 55 C-9.46442224 56.96870365 -9.46442224 56.96870365 -11.8125 59.6875 C-15.67336623 63.74197899 -18.8456307 66.79098459 -24 69 C-24.99 68.67 -25.98 68.34 -27 68 C-26.35933594 67.6596875 -25.71867187 67.319375 -25.05859375 66.96875 C-19.5387335 63.87565394 -15.43898935 60.77289336 -11.47265625 55.83203125 C-10.07647093 54.09513227 -8.60281015 52.54539605 -7 51 C-7 51.66 -7 52.32 -7 53 C-5.02 52.505 -5.02 52.505 -3 52 C-1.87673302 46.52748419 -1.79821384 41.16755459 -1.71875 35.60546875 C-1.70034058 34.61750809 -1.68193115 33.62954742 -1.66296387 32.61164856 C-1.58447572 28.39851399 -1.51621096 24.18523166 -1.44775391 19.97192383 C-1.3962101 16.89135393 -1.33892984 13.81092887 -1.28125 10.73046875 C-1.26767456 9.77013229 -1.25409912 8.80979584 -1.2401123 7.82035828 C-1.22339478 6.93886612 -1.20667725 6.05737396 -1.18945312 5.14916992 C-1.17066101 3.98051643 -1.17066101 3.98051643 -1.15148926 2.78825378 C-1 1 -1 1 0 0 Z " fill="#076AC7" transform="translate(333,70)"/>
<path d="M0 0 C-0.60328125 0.26554688 -1.2065625 0.53109375 -1.828125 0.8046875 C-2.62734375 1.15789062 -3.4265625 1.51109375 -4.25 1.875 C-5.03890625 2.22304687 -5.8278125 2.57109375 -6.640625 2.9296875 C-8.94856789 3.93525952 -8.94856789 3.93525952 -10.86366463 5.05060101 C-13.27156969 6.12068704 -14.91546149 6.25383054 -17.54074097 6.26069641 C-18.89907547 6.27132362 -18.89907547 6.27132362 -20.28485107 6.28216553 C-21.76395966 6.2784494 -21.76395966 6.2784494 -23.27294922 6.2746582 C-24.83944717 6.2823246 -24.83944717 6.2823246 -26.43759155 6.29014587 C-29.89334834 6.30405738 -33.34890602 6.30308379 -36.8046875 6.30078125 C-39.20598424 6.30466753 -41.60728029 6.30900206 -44.00857544 6.31376648 C-49.04398831 6.32123221 -54.07933108 6.32093498 -59.11474609 6.31567383 C-65.56664435 6.30988108 -72.01825536 6.32680405 -78.47010612 6.3500185 C-83.43036578 6.36475324 -88.39055623 6.36562784 -93.35083389 6.36250877 C-95.72946873 6.36302219 -98.10810741 6.36826371 -100.48672104 6.37832069 C-103.81409082 6.39066136 -107.14090085 6.38390699 -110.46826172 6.37231445 C-111.45028564 6.37995819 -112.43230957 6.38760193 -113.4440918 6.39547729 C-118.73994522 6.35471025 -122.38462718 5.9104787 -127 3 C-125.25 2.375 -125.25 2.375 -123 2 C-122.38259823 2.31730513 -121.76519646 2.63461025 -121.12908554 2.96153069 C-118.76131842 4.11641782 -117.30050628 4.24701618 -114.68463135 4.24050903 C-113.82930313 4.24325836 -112.97397491 4.24600769 -112.09272766 4.24884033 C-111.16268417 4.24164978 -110.23264069 4.23445923 -109.27441406 4.22705078 C-107.79587196 4.22748886 -107.79587196 4.22748886 -106.28746033 4.22793579 C-103.03009227 4.22654269 -99.77295309 4.21098223 -96.515625 4.1953125 C-94.25689824 4.1915823 -91.99816987 4.18873536 -89.73944092 4.18673706 C-83.7947747 4.17910114 -77.85020622 4.15945291 -71.90557861 4.1373291 C-65.83940961 4.11686985 -59.77322481 4.10773517 -53.70703125 4.09765625 C-41.80464456 4.07620706 -29.90233041 4.04207153 -18 4 C-18 3.67 -18 3.34 -18 3 C-16.80375 2.71125 -15.6075 2.4225 -14.375 2.125 C-11.73937181 1.47773442 -9.30922983 0.74760321 -6.75 -0.1875 C-3.83502209 -1.04874347 -2.81187635 -0.84716788 0 0 Z " fill="#7D0000" transform="translate(161,171)"/>
<path d="M0 0 C0.33 0 0.66 0 1 0 C1.07516846 0.55647217 1.15033691 1.11294434 1.2277832 1.6862793 C2.77326096 13.11206764 4.34366924 24.53339765 5.99731445 35.9440918 C6.22973599 37.55438383 6.4590102 39.16513392 6.68481445 40.77636719 C6.96920409 42.78273499 7.27436461 44.78613203 7.58203125 46.7890625 C8.28227256 52.50103091 8.10526977 58.25569114 8.0625 64 C8.05798828 65.15628906 8.05347656 66.31257813 8.04882812 67.50390625 C8.03712529 70.33599225 8.02072996 73.16796811 8 76 C7.67 76 7.34 76 7 76 C6.08026617 67.71579428 5.16706798 59.43090406 4.26194 51.14509106 C3.84134089 47.29664946 3.41859213 43.44847069 2.99072266 39.60083008 C2.57699489 35.87960851 2.16918556 32.15777949 1.76527405 28.43548012 C1.6110646 27.0236786 1.45481296 25.61209844 1.29637146 24.20076561 C0.38841575 16.09958896 -0.23492545 8.15453677 0 0 Z " fill="#770000" transform="translate(4,72)"/>
<path d="M0 0 C0.495 0.99 0.495 0.99 1 2 C-2.99546586 2.6963333 -6.9952155 3.35943007 -11 4 C-11.71542969 4.11730469 -12.43085938 4.23460937 -13.16796875 4.35546875 C-21.36826557 5.48485095 -29.74252045 5.0801697 -38 5 C-38 4.01 -38 3.02 -38 2 C-26.44588008 -1.85137331 -12.05222635 -0.11213781 0 0 Z " fill="#003BBD" transform="translate(282,43)"/>
<path d="M0 0 C0.495 0.99 0.495 0.99 1 2 C-17.81 2.99 -17.81 2.99 -37 4 C-37 4.99 -37 5.98 -37 7 C-37.61875 7.268125 -38.2375 7.53625 -38.875 7.8125 C-41.2995233 8.95556848 -41.2995233 8.95556848 -43 12 C-43.99 11.67 -44.98 11.34 -46 11 C-45.67 15.62 -45.34 20.24 -45 25 C-45.66 24.67 -46.32 24.34 -47 24 C-47.08165496 21.79229195 -47.13948488 19.58369575 -47.1875 17.375 C-47.23970703 15.53035156 -47.23970703 15.53035156 -47.29296875 13.6484375 C-46.97018003 9.62864195 -46.25412075 7.33472961 -44 4 C-40.04770668 1.64273934 -35.5108421 1.35727884 -31 0.875 C-30.23123535 0.79008301 -29.4624707 0.70516602 -28.67041016 0.61767578 C-19.12895229 -0.32979766 -9.57549441 -0.16997919 0 0 Z " fill="#0066C4" transform="translate(281,41)"/>
<path d="M0 0 C2.80743746 4.2111562 2.3378376 7.9999904 2.4609375 12.96875 C2.69327155 16.07928798 2.69327155 16.07928798 4.9140625 17.71875 C5.60242188 18.1415625 6.29078125 18.564375 7 19 C9.58995441 22.88493162 9.25225542 26.10567236 9.1953125 30.60546875 C9.1924826 31.44467361 9.18965271 32.28387848 9.18673706 33.14851379 C9.17554385 35.82832103 9.15044101 38.50779381 9.125 41.1875 C9.11496908 43.00455246 9.10584343 44.82161017 9.09765625 46.63867188 C9.07560734 51.09257675 9.04108351 55.54623167 9 60 C8.67 60 8.34 60 8 60 C8 47.79 8 35.58 8 23 C5.525 22.01 5.525 22.01 3 21 C0.28411465 18.66132095 -0.85660573 17.43018282 -2 14 C-2.068991 11.93854893 -2.08467727 9.87498599 -2.0625 7.8125 C-2.05347656 6.72582031 -2.04445312 5.63914062 -2.03515625 4.51953125 C-2.02355469 3.68808594 -2.01195312 2.85664062 -2 2 C-1.34 2 -0.68 2 0 2 C0 1.34 0 0.68 0 0 Z " fill="#0045BE" transform="translate(237,50)"/>
<path d="M0 0 C0.33 0 0.66 0 1 0 C1.07516846 0.83845459 1.15033691 1.67690918 1.2277832 2.54077148 C1.58556883 6.50670208 1.94779155 10.47220091 2.3125 14.4375 C2.41179306 15.52052399 2.41179306 15.52052399 2.51309204 16.62542725 C3.40629831 26.31653399 4.44826102 35.97095285 5.6875 45.625 C6.77407779 54.14805653 7.41555419 62.39648914 7 71 C6.67 71 6.34 71 6 71 C5.91435791 70.28344238 5.82871582 69.56688477 5.74047852 68.82861328 C5.3516574 65.59360063 4.95715145 62.35930633 4.5625 59.125 C4.42779297 57.99707031 4.29308594 56.86914062 4.15429688 55.70703125 C4.02216797 54.63066406 3.89003906 53.55429688 3.75390625 52.4453125 C3.63345947 51.45031738 3.5130127 50.45532227 3.38891602 49.43017578 C3.12454695 46.99888371 3.12454695 46.99888371 2 45 C1.77516133 42.84287899 1.60661104 40.67979355 1.46484375 38.515625 C1.42186661 37.86358093 1.37888947 37.21153687 1.33460999 36.53973389 C1.24428788 35.15113862 1.15617083 33.76239846 1.07006836 32.37353516 C0.94057916 30.29932334 0.80191801 28.22588219 0.66210938 26.15234375 C0.094267 17.41956286 -0.11582255 8.75446861 0 0 Z " fill="#003176" transform="translate(370,38)"/>
<path d="M0 0 C4.10111247 4.10111247 3.84268864 7.3979676 4 13 C3.875 16.375 3.875 16.375 3 19 C0.4375 21.375 0.4375 21.375 -2 23 C-2 22.01 -2 21.02 -2 20 C-3.98 20.33 -5.96 20.66 -8 21 C-8 28.26 -8 35.52 -8 43 C-8.33 43 -8.66 43 -9 43 C-9.84800767 35.307359 -10.12152487 27.73708326 -10 20 C-7.69 19.34 -5.38 18.68 -3 18 C-3 13.05 -3 8.1 -3 3 C-2.67 3 -2.34 3 -2 3 C-1.34 7.29 -0.68 11.58 0 16 C0 10.72 0 5.44 0 0 Z " fill="#006BC8" transform="translate(336,47)"/>
<path d="M0 0 C0 4.76547383 -2.86276692 7.58182067 -6 11 C-14.9197707 18.31159401 -26.03460342 20.17722949 -37.25 20.1875 C-37.96929687 20.19974609 -38.68859375 20.21199219 -39.4296875 20.22460938 C-41.28795986 20.22982924 -43.14577197 20.12264513 -45 20 C-45.66 19.34 -46.32 18.68 -47 18 C-46.12263184 17.970271 -46.12263184 17.970271 -45.22753906 17.93994141 C-42.56791975 17.84446519 -39.90906162 17.73487858 -37.25 17.625 C-36.32960938 17.5940625 -35.40921875 17.563125 -34.4609375 17.53125 C-33.12675781 17.47324219 -33.12675781 17.47324219 -31.765625 17.4140625 C-30.94868164 17.3826416 -30.13173828 17.3512207 -29.29003906 17.31884766 C-26.80901497 16.97340869 -25.20107882 16.16047802 -23 15 C-21.7625 14.7525 -20.525 14.505 -19.25 14.25 C-11.22139316 12.32849669 -5.49746878 5.8067014 0 0 Z " fill="#0006B5" transform="translate(326,124)"/>
<path d="M0 0 C1.68802734 0.01353516 1.68802734 0.01353516 3.41015625 0.02734375 C4.66119141 0.04474609 4.66119141 0.04474609 5.9375 0.0625 C5.6075 1.0525 5.2775 2.0425 4.9375 3.0625 C3.08233765 3.10008423 3.08233765 3.10008423 1.18969727 3.13842773 C-3.38186713 3.23232253 -7.95327318 3.33258629 -12.5246582 3.43481445 C-14.50639146 3.47823144 -16.48816378 3.51990137 -18.4699707 3.55981445 C-21.3121317 3.61735383 -24.15409483 3.68109445 -26.99609375 3.74609375 C-27.88775742 3.76280624 -28.77942108 3.77951874 -29.69810486 3.79673767 C-33.70198395 3.499087 -33.70198395 3.499087 -37.0625 5.0625 C-37.13521741 7.41563555 -37.14620868 9.77083668 -37.125 12.125 C-37.11597656 13.41535156 -37.10695312 14.70570312 -37.09765625 16.03515625 C-37.08605469 17.03417969 -37.07445312 18.03320312 -37.0625 19.0625 C-32.6075 20.0525 -32.6075 20.0525 -28.0625 21.0625 C-28.0625 21.3925 -28.0625 21.7225 -28.0625 22.0625 C-29.52042884 22.11649736 -30.97892712 22.15529177 -32.4375 22.1875 C-33.65566406 22.22230469 -33.65566406 22.22230469 -34.8984375 22.2578125 C-37.0625 22.0625 -37.0625 22.0625 -39.0625 20.0625 C-39.26102102 17.35327199 -39.34089477 14.76946821 -39.3125 12.0625 C-39.32023438 11.32515625 -39.32796875 10.5878125 -39.3359375 9.828125 C-39.3158196 4.3158196 -39.3158196 4.3158196 -37.0625 2.0625 C-35.05053711 1.75952148 -35.05053711 1.75952148 -32.58984375 1.68359375 C-31.23922852 1.63235352 -31.23922852 1.63235352 -29.86132812 1.58007812 C-28.91708984 1.55365234 -27.97285156 1.52722656 -27 1.5 C-20.99873043 1.30178519 -15.08980661 0.99445735 -9.12768555 0.27416992 C-6.08065836 -0.03813325 -3.06048687 -0.03221565 0 0 Z " fill="#0289D3" transform="translate(278.0625,45.9375)"/>
<path d="M0 0 C0.33 0 0.66 0 1 0 C1.01981934 0.78125244 1.03963867 1.56250488 1.06005859 2.36743164 C1.15575472 5.93277318 1.26525339 9.49756442 1.375 13.0625 C1.4059375 14.29162109 1.436875 15.52074219 1.46875 16.78710938 C1.62522707 25.61176385 1.62522707 25.61176385 4 34 C7.51400668 35.54086322 7.51400668 35.54086322 11 36 C11 36.33 11 36.66 11 37 C3.65906878 37.48939541 3.65906878 37.48939541 0.89282227 35.43530273 C-1.71331761 32.08224647 -1.47256392 29.85781502 -1.42578125 25.64453125 C-1.42084908 24.59116829 -1.42084908 24.59116829 -1.41581726 23.51652527 C-1.40542271 22.03802162 -1.38551704 20.55955795 -1.35668945 19.08129883 C-1.31244805 16.80983254 -1.29522866 14.53942275 -1.28320312 12.26757812 C-1.1796629 1.1796629 -1.1796629 1.1796629 0 0 Z " fill="#0053C0" transform="translate(282,71)"/>
<path d="M0 0 C0.33 0 0.66 0 1 0 C1.16092997 7.28782864 0.55443686 14.32939996 -0.3125 21.5625 C-0.43044922 22.64724609 -0.54839844 23.73199219 -0.66992188 24.84960938 C-1.40006701 31.01652749 -2.53142265 36.29530444 -5 42 C-6 39 -6 39 -5 36 C-4.73551881 33.61966928 -4.51425744 31.23444898 -4.31640625 28.84765625 C-4.19231254 27.41729554 -4.06795543 25.98695766 -3.94335938 24.55664062 C-3.75149919 22.30762653 -3.56216948 20.05846961 -3.37768555 17.80883789 C-3.19778537 15.63359461 -3.00776209 13.45941756 -2.81640625 11.28515625 C-2.70756104 9.98457275 -2.59871582 8.68398926 -2.48657227 7.34399414 C-2.0564115 4.38769108 -1.5447539 2.51444762 0 0 Z " fill="#8F0000" transform="translate(179,116)"/>
<path d="M0 0 C0.66 0 1.32 0 2 0 C2.07474224 4.26835703 2.12887823 8.53635674 2.16479492 12.80517578 C2.17978417 14.25413661 2.20018271 15.70305283 2.22631836 17.15185547 C2.48676127 31.97156783 2.48676127 31.97156783 -1 39 C-1.66 39 -2.32 39 -3 39 C-2.125 34.125 -2.125 34.125 -1 33 C-0.84019563 30.55391002 -0.74070553 28.13268942 -0.68359375 25.68359375 C-0.6524221 24.58701195 -0.6524221 24.58701195 -0.62062073 23.46827698 C-0.55504976 21.12478344 -0.49620568 18.78117461 -0.4375 16.4375 C-0.39432192 14.85220145 -0.35070787 13.26691471 -0.30664062 11.68164062 C-0.1993608 7.78787963 -0.0981151 3.89400228 0 0 Z " fill="#0001B4" transform="translate(329,84)"/>
<path d="M0 0 C0.99 0 1.98 0 3 0 C4.53266582 3.06533164 4.10276471 6.26754272 4.0625 9.625 C4.05798828 10.33140625 4.05347656 11.0378125 4.04882812 11.765625 C4.03703875 13.51045275 4.01910324 15.255237 4 17 C2.02 17.99 2.02 17.99 0 19 C-0.19600577 16.77156512 -0.38146569 14.54220107 -0.5625 12.3125 C-0.66691406 11.07113281 -0.77132813 9.82976563 -0.87890625 8.55078125 C-0.98493841 5.44164467 -0.77228525 2.99189028 0 0 Z " fill="#0002AD" transform="translate(286,48)"/>
<path d="M0 0 C0.33 0 0.66 0 1 0 C3.42291291 13.30438788 3.20801332 26.51913648 3 40 C2.67 40 2.34 40 2 40 C0.40382115 26.60349893 -0.25829838 13.48891553 0 0 Z " fill="#970000" transform="translate(9,108)"/>
<path d="M0 0 C0.33 0 0.66 0 1 0 C0.97905273 0.73524902 0.95810547 1.47049805 0.93652344 2.22802734 C0.85256671 5.61020835 0.80108914 8.99216912 0.75 12.375 C0.69972656 14.10943359 0.69972656 14.10943359 0.6484375 15.87890625 C0.54764145 24.79935685 2.02928862 31.54393293 7 39 C6.67 39.99 6.34 40.98 6 42 C-3.59294812 28.51801887 -1.98056419 15.66883514 0 0 Z " fill="#001959" transform="translate(194,120)"/>
<path d="M0 0 C10.44882172 -0.71512848 18.67253099 1.59425461 27 8 C27.33 8.66 27.66 9.32 28 10 C25.525 9.505 25.525 9.505 23 9 C23 8.34 23 7.68 23 7 C22.26394531 6.80664062 21.52789062 6.61328125 20.76953125 6.4140625 C19.79371094 6.15367188 18.81789063 5.89328125 17.8125 5.625 C16.84957031 5.36976563 15.88664062 5.11453125 14.89453125 4.8515625 C12 4 12 4 9.375 2.9375 C6.29759977 1.72273675 3.27336904 1.38510224 0 1 C0 0.67 0 0.34 0 0 Z " fill="#004C94" transform="translate(331,2)"/>
<path d="M0 0 C0 0.66 0 1.32 0 2 C-0.99 2.33 -1.98 2.66 -3 3 C-4.36108708 4.35822296 -4.36108708 4.35822296 -5.59375 6.0546875 C-6.30337891 6.97701172 -6.30337891 6.97701172 -7.02734375 7.91796875 C-7.51332031 8.56378906 -7.99929688 9.20960937 -8.5 9.875 C-9.46694967 11.14460235 -10.43564566 12.41287694 -11.40625 13.6796875 C-11.83228516 14.24413574 -12.25832031 14.80858398 -12.69726562 15.39013672 C-14.03591903 17.0443872 -15.47045457 18.5223698 -17 20 C-15.53258129 12.33681339 -11.13867594 5.90735655 -4.6875 1.4375 C-2 0 -2 0 0 0 Z " fill="#8D0000" transform="translate(19,7)"/>
<path d="M0 0 C2.475 0.495 2.475 0.495 5 1 C4.52433594 2.6396875 4.52433594 2.6396875 4.0390625 4.3125 C2.73873989 9.51379043 2.55176115 14.66034038 2.375 20 C2.33632813 20.96550781 2.29765625 21.93101563 2.2578125 22.92578125 C2.16443059 25.2836744 2.07865671 27.64157756 2 30 C1.67 30 1.34 30 1 30 C0.67 20.1 0.34 10.2 0 0 Z " fill="#0000B3" transform="translate(278,68)"/>
<path d="M0 0 C1.65 0 3.3 0 5 0 C4.67 7.92 4.34 15.84 4 24 C3.67 24 3.34 24 3 24 C2.9498877 23.40985107 2.89977539 22.81970215 2.84814453 22.21166992 C2.61594352 19.53609298 2.37062472 16.86187659 2.125 14.1875 C2.04636719 13.25873047 1.96773438 12.32996094 1.88671875 11.37304688 C1.80292969 10.48037109 1.71914063 9.58769531 1.6328125 8.66796875 C1.55949707 7.84578857 1.48618164 7.0236084 1.41064453 6.17651367 C1.09335737 3.71664613 1.09335737 3.71664613 -1 1 C-0.67 0.67 -0.34 0.34 0 0 Z " fill="#0000B1" transform="translate(294,68)"/>
<path d="M0 0 C0.55171875 0.49113281 1.1034375 0.98226562 1.671875 1.48828125 C4.46370069 3.30109424 5.96185741 3.3172951 9.25 3.1875 C10.58804687 3.14689453 10.58804687 3.14689453 11.953125 3.10546875 C12.96632813 3.05326172 12.96632813 3.05326172 14 3 C14 4.33333333 14 5.66666667 14 7 C12.04174127 7.02694851 10.08337774 7.04637218 8.125 7.0625 C7.03445313 7.07410156 5.94390625 7.08570312 4.8203125 7.09765625 C2 7 2 7 0 6 C0 4.02 0 2.04 0 0 Z " fill="#0000B0" transform="translate(281,104)"/>
<path d="M0 0 C4.45580993 3.85670943 5.74608948 9.70445306 6.1875 15.43359375 C6.1875 17.29011483 6.10298126 19.1463373 6 21 C5.01 21.33 4.02 21.66 3 22 C2.92652344 20.67935547 2.92652344 20.67935547 2.8515625 19.33203125 C2.77679688 18.17058594 2.70203125 17.00914063 2.625 15.8125 C2.55539062 14.66394531 2.48578125 13.51539063 2.4140625 12.33203125 C2.02194196 9.1765707 1.20302452 6.90975442 0 4 C0 2.68 0 1.36 0 0 Z " fill="#004086" transform="translate(364,17)"/>
<path d="M0 0 C0.66 0.33 1.32 0.66 2 1 C0.42173185 2.46381359 -1.16282229 3.92085163 -2.75 5.375 C-3.63171875 6.18710938 -4.5134375 6.99921875 -5.421875 7.8359375 C-8 10 -8 10 -10.265625 11.1015625 C-12.36503726 11.93358542 -12.36503726 11.93358542 -13 15 C-13.66 15 -14.32 15 -15 15 C-13.64848129 10.83645043 -11.93130608 8.65196884 -8.625 5.8125 C-7.85414063 5.13832031 -7.08328125 4.46414062 -6.2890625 3.76953125 C-4.22347419 2.17275394 -2.43686864 0.92808401 0 0 Z " fill="#003679" transform="translate(223,5)"/>
<path d="M0 0 C0.33 0 0.66 0 1 0 C1.02684679 2.64590014 1.04676357 5.29153096 1.0625 7.9375 C1.07087891 8.69224609 1.07925781 9.44699219 1.08789062 10.22460938 C1.09652441 12.14994313 1.05224333 14.07535581 1 16 C0.67 16.33 0.34 16.66 0 17 C-0.22670908 18.55753051 -0.39435092 20.12377359 -0.53515625 21.69140625 C-0.62216797 22.63564453 -0.70917969 23.57988281 -0.79882812 24.55273438 C-0.88583984 25.54595703 -0.97285156 26.53917969 -1.0625 27.5625 C-1.15337891 28.55958984 -1.24425781 29.55667969 -1.33789062 30.58398438 C-1.56258814 33.05565702 -1.78310351 35.52763256 -2 38 C-2.33 38 -2.66 38 -3 38 C-2.86155153 34.20802551 -2.71299256 30.4165141 -2.5625 26.625 C-2.52318359 25.54476562 -2.48386719 24.46453125 -2.44335938 23.3515625 C-2.40146484 22.3203125 -2.35957031 21.2890625 -2.31640625 20.2265625 C-2.26141968 18.79691162 -2.26141968 18.79691162 -2.20532227 17.33837891 C-2 15 -2 15 -1 13 C-0.77049681 10.795636 -0.58924067 8.58607827 -0.4375 6.375 C-0.31181641 4.59222656 -0.31181641 4.59222656 -0.18359375 2.7734375 C-0.12300781 1.85820313 -0.06242188 0.94296875 0 0 Z " fill="#0066AD" transform="translate(203,47)"/>
<path d="M0 0 C1.4540625 0.0309375 1.4540625 0.0309375 2.9375 0.0625 C2.82351335 1.68830966 2.69594341 3.31317157 2.5625 4.9375 C2.49289063 5.84242187 2.42328125 6.74734375 2.3515625 7.6796875 C1.9375 10.0625 1.9375 10.0625 -0.0625 12.0625 C-0.51822917 10.07682292 -0.97395833 8.09114583 -1.4296875 6.10546875 C-2.04257723 3.78507026 -2.04257723 3.78507026 -4.0625 1.0625 C-3.0625 0.0625 -3.0625 0.0625 0 0 Z " fill="#0000AD" transform="translate(247.0625,67.9375)"/>
<path d="M0 0 C0.33 0 0.66 0 1 0 C1.4375 2.0625 1.4375 2.0625 1 5 C-1.89027286 8.97936119 -4.65712454 11.63376124 -9.4375 12.9375 C-10.283125 12.958125 -11.12875 12.97875 -12 13 C-9.8224411 10.8224411 -7.64184016 8.65057576 -5.4375 6.5 C-3.40718918 4.41762993 -1.72417628 2.32763798 0 0 Z " fill="#0051C0" transform="translate(326,126)"/>
<path d="M0 0 C10.56 0 21.12 0 32 0 C32.495 1.485 32.495 1.485 33 3 C32.47889648 2.84152588 31.95779297 2.68305176 31.42089844 2.51977539 C28.34892068 1.86021098 25.40660253 1.78002727 22.265625 1.68359375 C20.97011719 1.64169922 19.67460937 1.59980469 18.33984375 1.55664062 C16.97656524 1.51683329 15.61328394 1.47712094 14.25 1.4375 C12.87108125 1.39427726 11.49217474 1.35066179 10.11328125 1.30664062 C6.7422881 1.20056042 3.37122174 1.0985015 0 1 C0 0.67 0 0.34 0 0 Z " fill="#0040BC" transform="translate(297,42)"/>
<path d="M0 0 C0.33 0 0.66 0 1 0 C1.08694042 4.10403363 1.14037149 8.20783129 1.1875 12.3125 C1.22520508 14.06336914 1.22520508 14.06336914 1.26367188 15.84960938 C1.27333984 16.96787109 1.28300781 18.08613281 1.29296875 19.23828125 C1.3086792 20.26993408 1.32438965 21.30158691 1.34057617 22.36450195 C1 25 1 25 -0.51831055 26.86010742 C-1.00726807 27.23627197 -1.49622559 27.61243652 -2 28 C-1.84660156 27.24460937 -1.69320313 26.48921875 -1.53515625 25.7109375 C-0.8112152 20.6909083 -0.63680847 15.68939556 -0.4375 10.625 C-0.39431641 9.60277344 -0.35113281 8.58054687 -0.30664062 7.52734375 C-0.20112208 5.01834712 -0.09900787 2.50926057 0 0 Z " fill="#0265C8" transform="translate(328,92)"/>
<path d="M0 0 C5.66104589 0.49658297 9.87674471 1.54510684 15 4 C15 4.33 15 4.66 15 5 C9.33557626 4.63495936 4.99296295 3.9445679 0 1 C0 0.67 0 0.34 0 0 Z " fill="#00438B" transform="translate(210,170)"/>
<path d="M0 0 C6.26480445 1.74732641 10.88233868 3.97120279 16 8 C15.01 8.495 15.01 8.495 14 9 C12.31791365 8.02616054 10.65261839 7.02304948 9 6 C6.80869466 5.30420546 6.80869466 5.30420546 5 5 C5 4.34 5 3.68 5 3 C3.35 2.67 1.7 2.34 0 2 C0 1.34 0 0.68 0 0 Z " fill="#850000" transform="translate(161,3)"/>
<path d="M0 0 C-6.28453206 3.32797915 -10.88658735 4.45164525 -18 4 C-18 3.67 -18 3.34 -18 3 C-16.80375 2.71125 -15.6075 2.4225 -14.375 2.125 C-11.73937181 1.47773442 -9.30922983 0.74760321 -6.75 -0.1875 C-3.83502209 -1.04874347 -2.81187635 -0.84716788 0 0 Z " fill="#930000" transform="translate(161,171)"/>
<path d="M0 0 C0.66 0 1.32 0 2 0 C-0.21387369 4.9812158 -3.36882737 9.066924 -8 12 C-8.66 12 -9.32 12 -10 12 C-10 11.34 -10 10.68 -10 10 C-6.53846154 7 -6.53846154 7 -4 7 C-3.71125 6.401875 -3.4225 5.80375 -3.125 5.1875 C-2 3 -2 3 0 0 Z " fill="#7A0000" transform="translate(171,158)"/>
<path d="M0 0 C4.5076467 0.53031138 7.41954788 2.25221116 11 5 C11 5.66 11 6.32 11 7 C6.00724943 5.72278474 3.42388092 3.82669043 0 0 Z " fill="#8A0000" transform="translate(22,166)"/>
<path d="M0 0 C2 1 2 1 2.625 2.625 C3.12095645 5.7660575 3.06103811 8.82601831 3 12 C2.01 12.495 2.01 12.495 1 13 C0.67 8.71 0.34 4.42 0 0 Z " fill="#0006B6" transform="translate(334,51)"/>
<path d="M0 0 C4.43458973 1.3937282 6.87378374 3.60582235 10 7 C8.35 6.67 6.7 6.34 5 6 C5 5.34 5 4.68 5 4 C3.02 3.34 1.04 2.68 -1 2 C-0.67 1.34 -0.34 0.68 0 0 Z " fill="#00377E" transform="translate(349,5)"/>
<path d="M0 0 C-1.56020867 0.65134925 -3.12328579 1.29582964 -4.6875 1.9375 C-5.55761719 2.29714844 -6.42773438 2.65679687 -7.32421875 3.02734375 C-9.88179265 3.9570312 -12.3221323 4.54162625 -15 5 C-12.86699672 2.63442627 -11.04050601 1.37032472 -8.0625 0.25 C-7.39347656 -0.01296875 -6.72445313 -0.2759375 -6.03515625 -0.546875 C-3.68352509 -1.07046274 -2.26382477 -0.74954377 0 0 Z " fill="#750000" transform="translate(34,2)"/>
<path d="M0 0 C2.19549682 3.29324523 4.17811188 6.48187121 6 10 C5.67 10.99 5.34 11.98 5 13 C-0.74031891 4.738041 -0.74031891 4.738041 0 0 Z " fill="#00357C" transform="translate(195,149)"/>
<path d="M0 0 C0.33 0 0.66 0 1 0 C1 2.31 1 4.62 1 7 C2.32 6.34 3.64 5.68 5 5 C5 5.99 5 6.98 5 8 C4.21625 8.309375 3.4325 8.61875 2.625 8.9375 C0.07669872 9.92875038 0.07669872 9.92875038 -2 11 C-2.33 10.01 -2.66 9.02 -3 8 C-2.34 7.67 -1.68 7.34 -1 7 C-0.59270772 4.67843403 -0.25561323 2.3431213 0 0 Z " fill="#0040BD" transform="translate(285,60)"/>
<path d="M0 0 C2.37948772 0.17625835 3.70225849 0.69719773 5.37890625 2.40234375 C6.62115486 3.90649092 7.81376056 5.45129851 9 7 C5.0480185 7 3.85351584 5.62823828 1 3 C0.67 2.01 0.34 1.02 0 0 Z " fill="#003072" transform="translate(201,162)"/>
<path d="M0 0 C1.48117801 0.28127421 2.95993249 0.57533732 4.4375 0.875 C5.67306641 1.11863281 5.67306641 1.11863281 6.93359375 1.3671875 C7.61550781 1.57601562 8.29742187 1.78484375 9 2 C9.33 2.66 9.66 3.32 10 4 C2.25 3.125 2.25 3.125 0 2 C0 1.34 0 0.68 0 0 Z " fill="#0000B4" transform="translate(267,138)"/>
</svg>
